# Blender v2.78 (sub 0) OBJ File: ''
# www.blender.org
o Cube.043_Cube.046
v 3417.072266 1520.349609 -199.999771
v 3417.072266 1867.751709 -199.999771
v 3817.072266 1520.349609 -199.999771
v 3817.072266 1867.751709 -199.999771
v 2994.446289 1651.940063 -71.993301
v 2994.446289 1683.563354 -71.993301
v 4135.246094 1750.370361 -82.618439
v 4135.246094 1585.133057 -82.618439
v 4302.369141 1786.491821 -118.739937
v 4302.369141 1549.011597 -118.739937
v 4410.999023 1727.612183 -59.860226
v 4410.999023 1607.891235 -59.860226
v 4561.409180 1680.486328 -12.734346
v 4561.409180 1655.017090 -12.734346
v 3548.884277 1735.939575 -199.999771
v 3548.884277 1599.563843 -199.999771
v 3685.260254 1599.563843 -199.999771
v 3685.260254 1735.939575 -199.999771
v 3548.884277 1735.939575 -237.580292
v 3548.884277 1599.563843 -237.580292
v 3685.260254 1599.563843 -237.580292
v 3685.260254 1735.939575 -237.580292
v 3443.350830 1786.779175 -376.183655
v 3443.350830 1693.796021 -378.781952
v 3866.230957 1693.796021 -378.781952
v 3866.230957 1786.779175 -376.183655
v 3285.518311 1942.066895 -530.624023
v 3285.518311 1921.498047 -604.328369
v 4038.570801 1921.498047 -604.328369
v 4038.570801 1942.066895 -530.624023
v 3084.050293 2201.537354 -733.798950
v 3084.050293 2180.968506 -807.503296
v 3790.315918 2180.968506 -807.503296
v 3790.315918 2201.537354 -733.798950
v 2938.978516 2367.338867 -733.798950
v 2938.978516 2346.770020 -807.503296
v 3540.792236 2346.770020 -807.503296
v 3540.792236 2367.338867 -733.798950
v 3417.072266 1520.349609 200.000229
v 3417.072266 1867.751709 200.000229
v 3817.072266 1520.349609 200.000229
v 3817.072266 1867.751709 200.000229
v 2994.446289 1651.940063 71.993759
v 2994.446289 1683.563354 71.993759
v 4135.246094 1750.370361 82.618896
v 4135.246094 1585.133057 82.618896
v 4302.369141 1786.491821 118.740395
v 4302.369141 1549.011597 118.740395
v 4410.999023 1727.612183 59.860676
v 4410.999023 1607.891235 59.860676
v 4561.409180 1680.486328 12.734797
v 4561.409180 1655.017090 12.734797
v 3548.884277 1735.939575 200.000229
v 3548.884277 1599.563843 200.000229
v 3685.260254 1599.563843 200.000229
v 3685.260254 1735.939575 200.000229
v 3548.884277 1735.939575 237.580750
v 3548.884277 1599.563843 237.580750
v 3685.260254 1599.563843 237.580750
v 3685.260254 1735.939575 237.580750
v 3443.350830 1786.779175 376.184082
v 3443.350830 1693.796021 378.782379
v 3790.793701 1693.796021 378.782379
v 3790.793701 1786.779175 376.184082
v 3417.072266 1520.349609 0.000225
v 3417.072266 1867.751709 0.000225
v 3817.072266 1520.349609 0.000225
v 3817.072266 1867.751709 0.000225
v 2994.446289 1651.940063 0.000225
v 2994.446289 1683.563354 0.000225
v 4135.246094 1585.133057 0.000225
v 4135.246094 1750.370361 0.000225
v 4302.369141 1549.011597 0.000225
v 4302.369141 1786.491821 0.000225
v 4410.999023 1607.891235 0.000225
v 4410.999023 1727.612183 0.000225
v 4561.409180 1655.017090 0.000225
v 4561.409180 1680.486328 0.000225
v 3285.518311 1942.066895 530.624512
v 3285.518311 1921.498047 604.328857
v 4038.570801 1921.498047 604.328857
v 4038.570801 1942.066895 530.624512
v 3084.050293 2201.537354 733.799438
v 3084.050293 2180.968506 807.503784
v 3790.315918 2180.968506 807.503784
v 3790.315918 2201.537354 733.799438
v 2938.978516 2367.338867 733.799438
v 2938.978516 2346.770020 807.503784
v 3540.792236 2346.770020 807.503784
v 3540.792236 2367.338867 733.799438
v 3914.682129 1864.423096 -453.403870
v 3364.434570 1864.423096 -453.403870
v 3364.434570 1807.646973 -491.555206
v 3914.682129 1807.646973 -491.555206
v 3990.119629 1864.423096 453.404297
v 3364.434570 1864.423096 453.404297
v 3364.434570 1807.646973 491.555634
v 3990.119629 1807.646973 491.555634
vn -0.3995 0.9167 0.0000
vn 0.0000 0.0000 -1.0000
vn -1.0000 0.0000 0.0000
vn 0.1995 -0.9799 0.0000
vn -0.2899 0.0000 -0.9571
vn 0.3461 0.0000 -0.9382
vn -0.2113 0.0000 -0.9774
vn -0.2113 -0.9774 0.0000
vn 0.2990 -0.9543 0.0000
vn 0.4765 -0.8792 0.0000
vn 0.4765 0.0000 -0.8792
vn 0.2990 0.0000 -0.9543
vn 0.0000 -0.8318 -0.5551
vn 0.0000 1.0000 0.0000
vn 1.0000 0.0000 0.0000
vn 0.0000 -1.0000 0.0000
vn 0.0000 0.7052 0.7090
vn 0.0000 0.9388 0.3444
vn -0.8010 0.0000 0.5987
vn 0.6118 -0.0221 0.7907
vn 0.2990 0.9543 0.0000
vn 0.4765 0.8792 0.0000
vn 0.3461 0.9382 0.0000
vn -0.2113 0.9774 0.0000
vn -0.2973 -0.9548 0.0000
vn 0.0000 0.6165 0.7873
vn -0.8711 -0.4730 0.1320
vn 0.6550 -0.4214 0.6272
vn 0.0000 -0.7037 -0.7105
vn 0.0000 0.0000 1.0000
vn -0.8340 -0.5314 0.1483
vn 0.7751 0.6086 -0.1698
vn 0.0000 -0.6165 -0.7873
vn 0.0000 0.9632 -0.2688
vn -0.7402 -0.6476 0.1807
vn 0.5391 0.8113 -0.2264
vn -0.2899 0.0000 0.9571
vn 0.3461 0.0000 0.9382
vn -0.2113 0.0000 0.9774
vn 0.4765 0.0000 0.8792
vn 0.2990 0.0000 0.9543
vn 0.0000 -0.8318 0.5551
vn 0.0000 0.7052 -0.7090
vn 0.0000 0.9388 -0.3444
vn -0.8010 0.0000 -0.5987
vn 0.8010 0.0000 -0.5987
vn 0.0000 0.6165 -0.7873
vn -0.8058 -0.3303 -0.4915
vn 0.9115 -0.2294 -0.3413
vn 0.0000 -0.7037 0.7105
vn -0.8340 -0.5314 -0.1483
vn 0.7751 0.6086 0.1698
vn 0.0000 -0.6165 0.7873
vn 0.0000 0.9632 0.2688
vn -0.7402 -0.6476 -0.1807
vn 0.5391 0.8113 0.2264
vn 0.9115 -0.2294 0.3413
vn -0.8266 -0.0157 0.5626
vn 0.5027 -0.0241 -0.8641
vn -0.8266 -0.0157 -0.5626
vn -0.7985 -0.0168 0.6018
vn 0.6152 0.0000 0.7884
vn -0.8058 -0.3303 0.4915
vn 0.7488 -0.6384 0.1782
vn -0.7985 -0.0168 -0.6018
vn 0.7985 -0.0168 -0.6018
vn -0.8711 -0.4730 -0.1320
vn 0.9450 -0.3151 -0.0879
vn 0.9226 -0.0108 0.3855
vn 0.4743 -0.4910 -0.7307
s off
f 66//1 6//1 70//1
f 1//2 17//2 3//2
f 70//3 5//3 69//3
f 67//4 8//4 71//4
f 1//5 6//5 2//5
f 3//6 7//6 8//6
f 7//7 10//7 8//7
f 8//8 73//8 71//8
f 75//9 14//9 77//9
f 73//10 12//10 75//10
f 9//11 12//11 10//11
f 11//12 14//12 12//12
f 4//2 15//2 2//2
f 1//2 15//2 16//2
f 3//2 18//2 4//2
f 21//13 24//13 25//13
f 18//14 19//14 15//14
f 15//3 20//3 16//3
f 17//15 22//15 18//15
f 16//16 21//16 17//16
f 91//17 27//17 92//17
f 22//18 23//18 19//18
f 19//19 24//19 20//19
f 22//20 25//20 26//20
f 76//21 13//21 11//21
f 13//15 77//15 14//15
f 74//22 11//22 9//22
f 68//23 7//23 4//23
f 7//24 74//24 9//24
f 2//14 68//14 4//14
f 3//16 65//16 1//16
f 65//25 5//25 1//25
f 27//26 34//26 31//26
f 93//27 27//27 28//27
f 94//28 30//28 91//28
f 94//29 28//29 29//29
f 31//30 38//30 35//30
f 28//31 31//31 32//31
f 29//32 34//32 30//32
f 28//33 33//33 29//33
f 35//34 37//34 36//34
f 31//35 36//35 32//35
f 34//36 37//36 38//36
f 32//2 37//2 33//2
f 66//1 44//1 40//1
f 55//30 39//30 41//30
f 43//3 70//3 69//3
f 67//4 46//4 41//4
f 44//37 39//37 40//37
f 41//38 45//38 42//38
f 48//39 45//39 46//39
f 73//8 46//8 71//8
f 75//9 52//9 50//9
f 73//10 50//10 48//10
f 50//40 47//40 48//40
f 52//41 49//41 50//41
f 53//30 42//30 40//30
f 39//30 53//30 40//30
f 56//30 41//30 42//30
f 63//42 58//42 59//42
f 57//14 56//14 53//14
f 58//3 53//3 54//3
f 60//15 55//15 56//15
f 59//16 54//16 55//16
f 96//43 82//43 95//43
f 61//44 60//44 57//44
f 62//45 57//45 58//45
f 60//46 63//46 59//46
f 51//21 76//21 49//21
f 77//15 51//15 52//15
f 49//22 74//22 47//22
f 45//23 68//23 42//23
f 45//24 74//24 72//24
f 68//14 40//14 42//14
f 65//16 41//16 39//16
f 43//25 65//25 39//25
f 79//47 86//47 82//47
f 97//48 79//48 96//48
f 82//49 98//49 95//49
f 81//50 97//50 98//50
f 83//2 90//2 86//2
f 80//51 83//51 79//51
f 86//52 81//52 82//52
f 85//53 80//53 81//53
f 89//54 87//54 88//54
f 88//55 83//55 84//55
f 86//56 89//56 85//56
f 89//30 84//30 85//30
f 24//29 94//29 25//29
f 26//57 94//57 91//57
f 23//58 93//58 24//58
f 23//17 91//17 92//17
f 63//50 97//50 62//50
f 64//59 98//59 63//59
f 97//60 61//60 62//60
f 96//43 64//43 61//43
f 66//1 2//1 6//1
f 1//2 16//2 17//2
f 70//3 6//3 5//3
f 67//4 3//4 8//4
f 1//5 5//5 6//5
f 3//6 4//6 7//6
f 7//7 9//7 10//7
f 8//8 10//8 73//8
f 75//9 12//9 14//9
f 73//10 10//10 12//10
f 9//11 11//11 12//11
f 11//12 13//12 14//12
f 4//2 18//2 15//2
f 1//2 2//2 15//2
f 3//2 17//2 18//2
f 21//13 20//13 24//13
f 18//14 22//14 19//14
f 15//3 19//3 20//3
f 17//15 21//15 22//15
f 16//16 20//16 21//16
f 91//17 30//17 27//17
f 22//18 26//18 23//18
f 19//61 23//61 24//61
f 22//62 21//62 25//62
f 76//21 78//21 13//21
f 13//15 78//15 77//15
f 74//22 76//22 11//22
f 68//23 72//23 7//23
f 7//24 72//24 74//24
f 2//14 66//14 68//14
f 3//16 67//16 65//16
f 65//25 69//25 5//25
f 27//26 30//26 34//26
f 93//63 92//63 27//63
f 94//64 29//64 30//64
f 94//29 93//29 28//29
f 31//30 34//30 38//30
f 28//31 27//31 31//31
f 29//32 33//32 34//32
f 28//33 32//33 33//33
f 35//34 38//34 37//34
f 31//35 35//35 36//35
f 34//36 33//36 37//36
f 32//2 36//2 37//2
f 66//1 70//1 44//1
f 55//30 54//30 39//30
f 43//3 44//3 70//3
f 67//4 71//4 46//4
f 44//37 43//37 39//37
f 41//38 46//38 45//38
f 48//39 47//39 45//39
f 73//8 48//8 46//8
f 75//9 77//9 52//9
f 73//10 75//10 50//10
f 50//40 49//40 47//40
f 52//41 51//41 49//41
f 53//30 56//30 42//30
f 39//30 54//30 53//30
f 56//30 55//30 41//30
f 63//42 62//42 58//42
f 57//14 60//14 56//14
f 58//3 57//3 53//3
f 60//15 59//15 55//15
f 59//16 58//16 54//16
f 96//43 79//43 82//43
f 61//44 64//44 60//44
f 62//65 61//65 57//65
f 60//66 64//66 63//66
f 51//21 78//21 76//21
f 77//15 78//15 51//15
f 49//22 76//22 74//22
f 45//23 72//23 68//23
f 45//24 47//24 74//24
f 68//14 66//14 40//14
f 65//16 67//16 41//16
f 43//25 69//25 65//25
f 79//47 83//47 86//47
f 97//67 80//67 79//67
f 82//68 81//68 98//68
f 81//50 80//50 97//50
f 83//2 87//2 90//2
f 80//51 84//51 83//51
f 86//52 85//52 81//52
f 85//53 84//53 80//53
f 89//54 90//54 87//54
f 88//55 87//55 83//55
f 86//56 90//56 89//56
f 89//30 88//30 84//30
f 24//29 93//29 94//29
f 26//69 25//69 94//69
f 23//63 92//63 93//63
f 23//17 26//17 91//17
f 63//50 98//50 97//50
f 64//70 95//70 98//70
f 97//48 96//48 61//48
f 96//43 95//43 64//43
