# Blender v2.78 (sub 0) OBJ File: 'glass cup.blend'
# www.blender.org
o Circle.005_Circle.002
v 0.000001 2170.649170 -730.906189
v -279.705719 2170.649170 -675.269226
v -516.828735 2170.649170 -516.828735
v -675.269226 2170.649170 -279.705688
v -730.906189 2170.649170 0.000032
v -675.269226 2170.649170 279.705750
v -516.828735 2170.649170 516.828735
v -279.705719 2170.649170 675.269226
v -0.000110 2170.649170 730.906189
v 279.705536 2170.649170 675.269348
v 516.828613 2170.649170 516.828918
v 675.269226 2170.649170 279.705780
v 730.906189 2170.649170 -0.000009
v 675.269226 2170.649170 -279.705811
v 516.828552 2170.649170 -516.828918
v 279.705353 2170.649170 -675.269409
v -279.705719 1750.647705 675.269226
v 279.705353 1750.647705 -675.269409
v -0.000110 1750.647705 730.906189
v -279.705719 1750.647705 -675.269226
v 279.705536 1750.647705 675.269348
v -516.828735 1750.647705 -516.828735
v 516.828613 1750.647705 516.828918
v -675.269226 1750.647705 -279.705688
v 675.269226 1750.647705 279.705780
v -730.906189 1750.647705 0.000032
v 730.906189 1750.647705 -0.000009
v -675.269226 1750.647705 279.705750
v 675.269226 1750.647705 -279.705811
v -516.828735 1750.647705 516.828735
v 516.828552 1750.647705 -516.828918
v 0.000001 1750.647705 -730.906189
v -516.828735 1466.636230 516.828735
v 516.828552 1466.636230 -516.828918
v 0.000001 1466.636230 -730.906189
v -279.705719 1466.636230 675.269226
v 279.705353 1466.636230 -675.269409
v -0.000110 1466.636230 730.906189
v -279.705719 1466.636230 -675.269226
v 279.705536 1466.636230 675.269348
v -516.828735 1466.636230 -516.828735
v 516.828613 1466.636230 516.828918
v -675.269226 1466.636230 -279.705688
v 675.269226 1466.636230 279.705780
v -730.906189 1466.636230 0.000032
v 730.906189 1466.636230 -0.000009
v -675.269226 1466.636230 279.705750
v 675.269226 1466.636230 -279.705811
v -279.705719 1960.648438 675.269226
v 279.705353 1960.648438 -675.269409
v -0.000110 1960.648438 730.906189
v -279.705719 1960.648438 -675.269226
v 279.705536 1960.648438 675.269348
v -516.828735 1960.648438 -516.828735
v 516.828613 1960.648438 516.828918
v -675.269226 1960.648438 -279.705688
v 675.269226 1960.648438 279.705780
v -730.906189 1960.648438 0.000032
v 730.906189 1960.648438 -0.000009
v -675.269226 1960.648438 279.705750
v 675.269226 1960.648438 -279.705811
v -516.828735 1960.648438 516.828735
v 516.828552 1960.648438 -516.828918
v 0.000001 1960.648438 -730.906189
vn 0.7071 0.0000 -0.7071
vn 0.9239 0.0000 -0.3827
vn -0.7071 0.0000 0.7071
vn -0.9239 0.0000 0.3827
vn 1.0000 0.0000 0.0000
vn -1.0000 0.0000 0.0000
vn 0.9239 0.0000 0.3827
vn -0.9239 0.0000 -0.3827
vn 0.7071 0.0000 0.7071
vn -0.7071 0.0000 -0.7071
vn 0.3827 0.0000 0.9239
vn 0.0000 0.0000 1.0000
vn -0.3827 0.0000 0.9239
vn 0.3827 0.0000 -0.9239
vn -0.3827 0.0000 -0.9239
vn 0.0000 0.0000 -1.0000
s 1
f 34//1 29//2 48//2
f 33//3 28//4 47//4
f 48//2 27//5 46//5
f 47//4 26//6 45//6
f 46//5 25//7 44//7
f 45//6 24//8 43//8
f 44//7 23//9 42//9
f 43//8 22//10 41//10
f 42//9 21//11 40//11
f 40//11 19//12 38//12
f 38//12 17//13 36//13
f 36//13 30//3 33//3
f 34//1 31//1 29//2
f 33//3 30//3 28//4
f 48//2 29//2 27//5
f 47//4 28//4 26//6
f 46//5 27//5 25//7
f 45//6 26//6 24//8
f 44//7 25//7 23//9
f 43//8 24//8 22//10
f 42//9 23//9 21//11
f 40//11 21//11 19//12
f 38//12 19//12 17//13
f 36//13 17//13 30//3
f 49//13 7//3 62//3
f 50//14 15//1 63//1
f 51//12 8//13 49//13
f 52//15 1//16 64//16
f 64//16 16//14 50//14
f 53//11 9//12 51//12
f 54//10 2//15 52//15
f 55//9 10//11 53//11
f 56//8 3//10 54//10
f 57//7 11//9 55//9
f 58//6 4//8 56//8
f 59//5 12//7 57//7
f 60//4 5//6 58//6
f 61//2 13//5 59//5
f 62//3 6//4 60//4
f 63//1 14//2 61//2
f 41//10 20//15 39//15
f 35//16 18//14 37//14
f 39//15 32//16 35//16
f 37//14 31//1 34//1
f 31//1 61//2 29//2
f 30//3 60//4 28//4
f 29//2 59//5 27//5
f 28//4 58//6 26//6
f 27//5 57//7 25//7
f 26//6 56//8 24//8
f 25//7 55//9 23//9
f 24//8 54//10 22//10
f 23//9 53//11 21//11
f 22//10 52//15 20//15
f 21//11 51//12 19//12
f 32//16 50//14 18//14
f 20//15 64//16 32//16
f 19//12 49//13 17//13
f 18//14 63//1 31//1
f 17//13 62//3 30//3
f 49//13 8//13 7//3
f 50//14 16//14 15//1
f 51//12 9//12 8//13
f 52//15 2//15 1//16
f 64//16 1//16 16//14
f 53//11 10//11 9//12
f 54//10 3//10 2//15
f 55//9 11//9 10//11
f 56//8 4//8 3//10
f 57//7 12//7 11//9
f 58//6 5//6 4//8
f 59//5 13//5 12//7
f 60//4 6//4 5//6
f 61//2 14//2 13//5
f 62//3 7//3 6//4
f 63//1 15//1 14//2
f 41//10 22//10 20//15
f 35//16 32//16 18//14
f 39//15 20//15 32//16
f 37//14 18//14 31//1
f 31//1 63//1 61//2
f 30//3 62//3 60//4
f 29//2 61//2 59//5
f 28//4 60//4 58//6
f 27//5 59//5 57//7
f 26//6 58//6 56//8
f 25//7 57//7 55//9
f 24//8 56//8 54//10
f 23//9 55//9 53//11
f 22//10 54//10 52//15
f 21//11 53//11 51//12
f 32//16 64//16 50//14
f 20//15 52//15 64//16
f 19//12 51//12 49//13
f 18//14 50//14 63//1
f 17//13 49//13 62//3
