# Blender v2.78 (sub 0) OBJ File: 'Coconut_tree.blend'
# www.blender.org
o Circle
v -0.000001 0.000000 -160.000000
v -61.229355 0.000000 -147.820724
v -113.137093 0.000000 -113.137093
v -147.820724 0.000000 -61.229347
v -160.000000 0.000000 0.000007
v -147.820724 0.000000 61.229366
v -113.137093 0.000000 113.137093
v -61.229359 0.000000 147.820724
v -0.000026 0.000000 160.000000
v 61.229313 0.000000 147.820740
v 113.137054 0.000000 113.137123
v 147.820724 0.000000 61.229370
v 159.999985 0.000000 -0.000002
v 147.820709 0.000000 -61.229378
v 113.137039 0.000000 -113.137123
v 61.229279 0.000000 -147.820755
v -0.000004 40.000004 -123.780045
v -47.368572 40.000004 -114.357841
v -87.525711 40.000004 -87.525711
v -114.357841 40.000004 -47.368568
v -123.780045 40.000004 0.000006
v -114.357841 40.000004 47.368580
v -87.525711 40.000004 87.525711
v -47.368576 40.000004 114.357841
v -0.000023 40.000004 123.780045
v 47.368542 40.000004 114.357849
v 87.525681 40.000004 87.525734
v 114.357826 40.000004 47.368587
v 123.780037 40.000004 -0.000001
v 114.357826 40.000004 -47.368587
v 87.525665 40.000004 -87.525734
v 47.368515 40.000004 -114.357880
v 399.999969 600.000000 -22.399998
v 391.427887 600.000000 -20.694901
v 384.160797 600.000000 -15.839195
v 379.305084 600.000000 -8.572107
v 377.599976 600.000000 0.000001
v 379.305084 600.000000 8.572110
v 384.160797 600.000000 15.839195
v 391.427887 600.000000 20.694901
v 399.999969 600.000000 22.399998
v 408.572113 600.000000 20.694906
v 415.839203 600.000000 15.839195
v 420.694885 600.000000 8.572113
v 422.399994 600.000000 -0.000000
v 420.694885 600.000000 -8.572113
v 415.839203 600.000000 -15.839195
v 408.572113 600.000000 -20.694906
v 137.137970 126.090332 -34.288452
v 279.550018 237.065842 -21.360327
v 390.427032 393.977783 -12.109854
v 392.835815 393.977783 -0.000006
v 282.920105 234.478333 -0.000010
v 142.984039 122.577324 -0.000008
v 36.793564 186.388992 82.779610
v 221.704605 281.478668 51.568348
v 349.081421 393.977783 29.235741
v 338.815216 393.977783 22.376070
v 207.341431 292.506531 39.468708
v 11.877769 201.361328 63.356773
v 36.793560 186.388992 -82.779610
v 221.704605 281.478668 -51.568359
v 349.081451 393.977783 -29.235754
v 361.191284 393.977783 -31.644550
v 238.647125 268.470490 -55.817188
v 66.183762 168.727921 -89.600006
v 120.489716 136.094528 -63.356800
v 269.952850 244.434387 -39.468731
v 383.567352 393.977783 -22.376085
v 66.183762 168.727921 89.600006
v 238.647125 268.470490 55.817177
v 361.191284 393.977783 31.644539
v 11.877769 201.361328 -63.356762
v 207.341431 292.506531 -39.468712
v 338.815216 393.977783 -22.376078
v 95.573921 151.066864 -82.779625
v 255.589645 255.462234 -51.568371
v 373.301117 393.977783 -29.235762
v 95.573936 151.066849 82.779617
v 255.589676 255.462234 51.568352
v 373.301117 393.977783 29.235744
v -4.770428 211.365509 -34.288433
v 197.744263 299.875061 -21.360310
v 331.955566 393.977783 -12.109848
v 120.489761 136.094528 63.356789
v 269.952881 244.434387 39.468716
v 383.567352 393.977783 22.376074
v -10.616505 214.878510 0.000009
v 194.374176 302.462585 0.000003
v 329.546753 393.977783 -0.000004
v 137.137970 126.090332 34.288445
v 279.550018 237.065842 21.360308
v 390.427032 393.977783 12.109841
v -4.770428 211.365509 34.288448
v 197.744263 299.875061 21.360319
v 331.955566 393.977783 12.109840
v 346.746307 307.164337 -16.751997
v 349.673828 305.972900 -0.000009
v 296.496765 327.614868 40.442856
v 284.019653 332.692841 30.953625
v 296.496765 327.614868 -40.442867
v 311.214508 321.625061 -43.775043
v 338.409363 310.557281 -30.953642
v 311.214508 321.625061 43.775032
v 284.019653 332.692841 -30.953630
v 325.932251 315.635223 -40.442875
v 325.932251 315.635223 40.442860
v 275.682739 336.085785 -16.751987
v 338.409363 310.557281 30.953629
v 272.755188 337.277222 -0.000002
v 346.746307 307.164337 16.751978
v 275.682739 336.085785 16.751980
v 102.931664 261.488037 47.234024
v 118.985710 246.982117 61.714214
v 187.407700 185.158417 -0.000009
v 183.640869 188.561981 -25.562880
v 91.180573 87.026421 76.193619
v -80.158768 132.770569 0.000008
v 112.937691 81.217712 41.235691
v -72.518684 130.730820 41.235687
v 92.204681 271.180542 -25.562864
v 156.859818 212.760406 61.714218
v 156.859802 212.760422 -61.714237
v 102.931664 261.488037 -47.234013
v -18.199778 116.228745 99.551735
v -18.199778 116.228745 -99.551735
v 91.180550 87.026421 -76.193619
v 20.209494 105.974266 107.754013
v 92.204681 271.180542 25.562874
v 183.640869 188.561981 25.562868
v 88.437874 274.584106 0.000007
v 172.913879 198.254501 47.234028
v 137.922760 229.871277 66.798988
v 172.913879 198.254501 -47.234039
v 137.922760 229.871277 -66.798988
v 118.985703 246.982117 -61.714218
v 120.577774 79.177956 -0.000005
v -50.761581 124.922112 76.193596
v 20.209499 105.974266 -107.754013
v 112.937691 81.217712 -41.235691
v -72.518684 130.730820 -41.235672
v 58.618755 95.719757 99.551743
v 58.618729 95.719757 -99.551758
v -50.761581 124.922112 -76.193596
vn 0.0000 0.6712 -0.7412
vn 0.3331 0.4456 -0.8309
vn 0.2836 0.6712 -0.6848
vn 0.2836 0.6712 0.6848
vn 0.6367 0.4213 0.6457
vn 0.3331 0.4456 0.8309
vn -0.7412 0.6712 0.0000
vn -0.7691 0.5570 -0.3135
vn -0.6848 0.6712 -0.2836
vn 0.6848 0.6712 0.2836
vn 0.5241 0.6712 0.5241
vn -0.6848 0.6712 0.2836
vn -0.8264 0.5631 0.0000
vn 0.7412 0.6712 0.0000
vn 0.8418 0.4104 0.3506
vn -0.6013 0.5393 0.5895
vn -0.7691 0.5570 0.3135
vn 0.8418 0.4104 -0.3506
vn 0.9126 0.4087 0.0000
vn -0.2836 0.6712 0.6848
vn -0.5241 0.6712 0.5241
vn -0.2836 0.6712 -0.6848
vn -0.0118 0.4785 -0.8780
vn 0.5241 0.6712 -0.5241
vn 0.6848 0.6712 -0.2837
vn 0.0000 0.6712 0.7412
vn -0.3389 0.5120 0.7893
vn -0.5241 0.6712 -0.5241
vn -0.3389 0.5120 -0.7893
vn 0.6367 0.4213 -0.6457
vn -0.0118 0.4785 0.8780
vn -0.6013 0.5393 -0.5895
vn 0.9572 -0.2895 0.0000
vn 0.9194 -0.1287 -0.3715
vn 0.9898 -0.1420 0.0000
vn -0.3449 0.2486 0.9051
vn -0.6847 0.1731 0.7080
vn -0.6370 0.3863 0.6671
vn 0.0278 0.0790 -0.9965
vn -0.3602 0.1124 -0.9261
vn 0.0233 0.0404 -0.9989
vn 0.8927 -0.2669 -0.3630
vn 0.7155 -0.0901 -0.6928
vn 0.0278 0.0790 0.9965
vn -0.3602 0.1124 0.9261
vn -0.3449 0.2486 -0.9051
vn -0.6847 0.1731 -0.7080
vn 0.7026 -0.1977 -0.6835
vn 0.4021 -0.0309 -0.9151
vn 0.4014 -0.0800 0.9124
vn 0.0233 0.0404 0.9989
vn -0.6370 0.3863 -0.6671
vn -0.8992 0.2132 -0.3821
vn 0.4014 -0.0800 -0.9124
vn 0.7026 -0.1977 0.6835
vn 0.4021 -0.0309 0.9151
vn -0.8107 0.4703 -0.3486
vn -0.9738 0.2271 0.0000
vn 0.8927 -0.2669 0.3630
vn 0.7155 -0.0901 0.6928
vn -0.8107 0.4703 0.3486
vn -0.8669 0.4984 0.0000
vn 0.9194 -0.1287 0.3715
vn -0.8992 0.2132 0.3821
vn 0.9814 -0.1917 0.0000
vn 0.8028 -0.4569 -0.3829
vn 0.8540 -0.5202 0.0000
vn 0.6525 -0.7578 0.0000
vn 0.5672 -0.7379 -0.3657
vn 0.6067 -0.7949 0.0000
vn 0.8251 -0.5650 0.0000
vn -0.3097 0.3622 0.8791
vn -0.4270 0.6148 0.6630
vn -0.5968 0.4584 0.6585
vn -0.0867 0.4773 0.8744
vn -0.2319 0.7297 0.6431
vn -0.2502 0.7203 0.6469
vn -0.2180 0.4151 0.8833
vn -0.4219 0.6504 0.6316
vn 0.0420 0.2364 -0.9707
vn -0.1796 0.4413 -0.8792
vn 0.1134 0.2156 -0.9698
vn 0.1138 0.1591 -0.9807
vn -0.1002 0.4477 -0.8885
vn 0.0836 0.0817 -0.9931
vn 0.0700 0.1129 -0.9911
vn 0.9108 -0.1495 -0.3848
vn 0.6496 -0.2824 -0.7059
vn 0.6129 -0.6892 -0.3864
vn 0.4539 -0.5654 -0.6887
vn 0.7741 -0.5236 -0.3557
vn 0.0420 0.2364 0.9707
vn -0.1796 0.4413 0.8792
vn 0.1138 0.1591 0.9807
vn -0.1002 0.4477 0.8885
vn 0.0700 0.1129 0.9911
vn -0.3097 0.3622 -0.8791
vn -0.4270 0.6148 -0.6630
vn -0.0867 0.4773 -0.8744
vn -0.2319 0.7297 -0.6431
vn -0.2180 0.4151 -0.8833
vn 0.7074 -0.0429 -0.7055
vn 0.4067 -0.0395 -0.9127
vn 0.4976 -0.4896 -0.7160
vn 0.2828 -0.2817 -0.9168
vn 0.6209 -0.3955 -0.6767
vn 0.4014 0.0945 0.9110
vn 0.1134 0.2156 0.9698
vn 0.3211 -0.1869 0.9284
vn 0.0836 0.0817 0.9931
vn 0.3739 -0.1775 0.9103
vn -0.5968 0.4584 -0.6585
vn -0.5924 0.7232 -0.3550
vn -0.2502 0.7203 -0.6469
vn -0.3044 0.8929 -0.3316
vn -0.4219 0.6504 -0.6316
vn 0.4014 0.0945 -0.9110
vn 0.3211 -0.1869 -0.9284
vn 0.3739 -0.1775 -0.9103
vn 0.7074 -0.0429 0.7055
vn 0.4067 -0.0395 0.9127
vn 0.4976 -0.4896 0.7160
vn 0.2828 -0.2817 0.9168
vn 0.6209 -0.3955 0.6767
vn -0.7806 0.5180 -0.3497
vn -0.6503 0.7596 0.0000
vn -0.3571 0.8691 -0.3421
vn -0.3270 0.9450 0.0000
vn -0.5282 0.7858 -0.3216
vn 0.9108 -0.1495 0.3848
vn 0.6496 -0.2824 0.7059
vn 0.6129 -0.6892 0.3864
vn 0.4539 -0.5654 0.6887
vn 0.7741 -0.5236 0.3557
vn -0.7806 0.5180 0.3497
vn -0.8430 0.5379 0.0000
vn -0.3571 0.8691 0.3421
vn -0.3943 0.9189 0.0000
vn -0.5282 0.7858 0.3216
vn -0.5593 0.8289 0.0000
vn 0.8028 -0.4569 0.3829
vn 0.5672 -0.7379 0.3657
vn -0.5924 0.7232 0.3550
vn -0.3044 0.8929 0.3316
s 1
f 1//1 32//2 16//3
f 10//4 27//5 26//6
f 5//7 20//8 4//9
f 12//10 27//5 11//11
f 6//12 21//13 5//7
f 13//14 28//15 12//10
f 6//12 23//16 22//17
f 13//14 30//18 29//19
f 8//20 23//16 7//21
f 2//22 17//23 1//1
f 15//24 30//18 14//25
f 9//26 24//27 8//20
f 3//28 18//29 2//22
f 15//24 32//2 31//30
f 10//4 25//31 9//26
f 4//9 19//32 3//28
f 52//33 46//34 45//35
f 57//36 39//37 58//38
f 64//39 34//40 33//41
f 51//42 47//43 46//34
f 72//44 40//45 57//36
f 63//46 35//47 34//40
f 69//48 48//49 47//43
f 81//50 41//51 72//44
f 75//52 36//53 35//47
f 78//54 33//41 48//49
f 87//55 42//56 81//50
f 84//57 37//58 36//53
f 93//59 43//60 87//55
f 96//61 37//58 90//62
f 52//33 44//63 93//59
f 58//38 38//64 96//61
f 137//65 49//66 54//67
f 115//68 50//69 53//70
f 98//71 51//42 52//33
f 125//72 60//73 138//74
f 114//75 59//76 113//77
f 99//78 58//38 100//79
f 139//80 61//81 66//82
f 135//83 62//84 65//85
f 102//86 63//46 64//39
f 140//87 67//88 49//66
f 116//89 68//90 50//69
f 97//91 69//48 51//42
f 128//92 55//93 125//72
f 133//94 56//95 114//75
f 104//96 57//36 99//78
f 126//97 73//98 61//81
f 136//99 74//100 62//84
f 101//101 75//52 63//46
f 127//102 76//103 67//88
f 134//104 77//105 68//90
f 103//106 78//54 69//48
f 142//107 70//108 128//92
f 122//109 71//110 133//94
f 107//111 72//44 104//96
f 144//112 82//113 73//98
f 124//114 83//115 74//100
f 105//116 84//57 75//52
f 143//117 66//82 76//103
f 123//118 65//85 77//105
f 106//119 64//39 78//54
f 117//120 79//121 142//107
f 132//122 80//123 122//109
f 109//124 81//50 107//111
f 141//125 88//126 82//113
f 121//127 89//128 83//115
f 108//129 90//62 84//57
f 119//130 85//131 117//120
f 130//132 86//133 132//122
f 111//134 87//55 109//124
f 120//135 88//126 118//136
f 129//137 89//128 131//138
f 112//139 90//62 110//140
f 137//65 91//141 119//130
f 115//68 92//142 130//132
f 98//71 93//59 111//134
f 138//74 94//143 120//135
f 113//77 95//144 129//137
f 100//79 96//61 112//139
f 53//70 97//91 98//71
f 56//95 100//79 59//76
f 65//85 101//101 102//86
f 50//69 103//106 97//91
f 71//110 99//78 56//95
f 62//84 105//116 101//101
f 68//90 106//119 103//106
f 80//123 104//96 71//110
f 74//100 108//129 105//116
f 77//105 102//86 106//119
f 86//133 107//111 80//123
f 83//115 110//140 108//129
f 92//142 109//124 86//133
f 95//144 110//140 89//128
f 53//70 111//134 92//142
f 59//76 112//139 95//144
f 85//131 122//109 79//121
f 73//98 121//127 124//114
f 61//81 124//114 136//99
f 79//121 133//94 70//108
f 54//67 116//89 115//68
f 66//82 136//99 135//83
f 70//108 114//75 55//93
f 28//15 117//120 27//5
f 91//141 132//122 85//131
f 19//32 141//125 144//112
f 20//8 118//136 141//125
f 22//17 118//136 21//13
f 54//67 130//132 91//141
f 32//2 139//80 143//117
f 67//88 123//118 134//104
f 27//5 142//107 26//6
f 29//19 119//130 28//15
f 49//66 134//104 116//89
f 82//113 131//138 121//127
f 76//103 135//83 123//118
f 55//93 113//77 60//73
f 24//27 138//74 23//16
f 94//143 131//138 88//126
f 60//73 129//137 94//143
f 31//30 143//117 127//102
f 23//16 120//135 22//17
f 29//19 140//87 137//65
f 30//18 127//102 140//87
f 25//31 125//72 24//27
f 26//6 128//92 25//31
f 18//29 144//112 126//97
f 17//23 126//97 139//80
f 1//1 17//23 32//2
f 10//4 11//11 27//5
f 5//7 21//13 20//8
f 12//10 28//15 27//5
f 6//12 22//17 21//13
f 13//14 29//19 28//15
f 6//12 7//21 23//16
f 13//14 14//25 30//18
f 8//20 24//27 23//16
f 2//22 18//29 17//23
f 15//24 31//30 30//18
f 9//26 25//31 24//27
f 3//28 19//32 18//29
f 15//24 16//3 32//2
f 10//4 26//6 25//31
f 4//9 20//8 19//32
f 52//33 51//42 46//34
f 57//36 40//45 39//37
f 64//39 63//46 34//40
f 51//42 69//48 47//43
f 72//44 41//51 40//45
f 63//46 75//52 35//47
f 69//48 78//54 48//49
f 81//50 42//56 41//51
f 75//52 84//57 36//53
f 78//54 64//39 33//41
f 87//55 43//60 42//56
f 84//57 90//62 37//58
f 93//59 44//63 43//60
f 96//61 38//64 37//58
f 52//33 45//35 44//63
f 58//38 39//37 38//64
f 137//65 140//87 49//66
f 115//68 116//89 50//69
f 98//71 97//91 51//42
f 125//72 55//93 60//73
f 114//75 56//95 59//76
f 99//78 57//36 58//38
f 139//80 126//97 61//81
f 135//83 136//99 62//84
f 102//86 101//101 63//46
f 140//87 127//102 67//88
f 116//89 134//104 68//90
f 97//91 103//106 69//48
f 128//92 70//108 55//93
f 133//94 71//110 56//95
f 104//96 72//44 57//36
f 126//97 144//112 73//98
f 136//99 124//114 74//100
f 101//101 105//116 75//52
f 127//102 143//117 76//103
f 134//104 123//118 77//105
f 103//106 106//119 78//54
f 142//107 79//121 70//108
f 122//109 80//123 71//110
f 107//111 81//50 72//44
f 144//112 141//125 82//113
f 124//114 121//127 83//115
f 105//116 108//129 84//57
f 143//117 139//80 66//82
f 123//118 135//83 65//85
f 106//119 102//86 64//39
f 117//120 85//131 79//121
f 132//122 86//133 80//123
f 109//124 87//55 81//50
f 141//125 118//136 88//126
f 121//127 131//138 89//128
f 108//129 110//140 90//62
f 119//130 91//141 85//131
f 130//132 92//142 86//133
f 111//134 93//59 87//55
f 120//135 94//143 88//126
f 129//137 95//144 89//128
f 112//139 96//61 90//62
f 137//65 54//67 91//141
f 115//68 53//70 92//142
f 98//71 52//33 93//59
f 138//74 60//73 94//143
f 113//77 59//76 95//144
f 100//79 58//38 96//61
f 53//70 50//69 97//91
f 56//95 99//78 100//79
f 65//85 62//84 101//101
f 50//69 68//90 103//106
f 71//110 104//96 99//78
f 62//84 74//100 105//116
f 68//90 77//105 106//119
f 80//123 107//111 104//96
f 74//100 83//115 108//129
f 77//105 65//85 102//86
f 86//133 109//124 107//111
f 83//115 89//128 110//140
f 92//142 111//134 109//124
f 95//144 112//139 110//140
f 53//70 98//71 111//134
f 59//76 100//79 112//139
f 85//131 132//122 122//109
f 73//98 82//113 121//127
f 61//81 73//98 124//114
f 79//121 122//109 133//94
f 54//67 49//66 116//89
f 66//82 61//81 136//99
f 70//108 133//94 114//75
f 28//15 119//130 117//120
f 91//141 130//132 132//122
f 19//32 20//8 141//125
f 20//8 21//13 118//136
f 22//17 120//135 118//136
f 54//67 115//68 130//132
f 32//2 17//23 139//80
f 67//88 76//103 123//118
f 27//5 117//120 142//107
f 29//19 137//65 119//130
f 49//66 67//88 134//104
f 82//113 88//126 131//138
f 76//103 66//82 135//83
f 55//93 114//75 113//77
f 24//27 125//72 138//74
f 94//143 129//137 131//138
f 60//73 113//77 129//137
f 31//30 32//2 143//117
f 23//16 138//74 120//135
f 29//19 30//18 140//87
f 30//18 31//30 127//102
f 25//31 128//92 125//72
f 26//6 142//107 128//92
f 18//29 19//32 144//112
f 17//23 18//29 126//97
