# Blender v2.78 (sub 0) OBJ File: 'trees.blend'
# www.blender.org
o Circle.002
v -187.942490 -24.766457 122.089371
v -226.406525 15.232510 138.078415
v -227.805344 -24.766459 116.856239
v -288.939941 -24.766537 297.170929
v -294.355499 15.232460 255.869522
v -274.922729 15.232449 281.175446
v -123.442703 -24.766506 252.760788
v -139.431747 15.232487 214.296692
v -118.209579 -24.766489 212.897873
v -323.847015 -24.766510 226.452072
v -313.426910 -24.766527 265.283234
v -143.532364 -24.766521 287.586670
v -143.584732 15.232473 245.931732
v -318.613892 -24.766495 186.589172
v -302.624817 15.232470 225.053268
v -184.833771 15.232454 293.002167
v -159.527802 15.232461 273.569458
v -282.528778 15.232495 165.780518
v -298.471832 15.232482 193.418213
v -214.251190 -24.766542 322.493683
v -175.420044 -24.766535 312.073608
v -153.116608 -24.766462 142.179031
v -194.771530 15.232510 142.231415
v -266.636505 -24.766466 127.276314
v -298.524200 -24.766479 151.763275
v -254.114090 -24.766542 317.260559
v -215.650009 15.232446 301.271515
v -128.629654 -24.766474 174.066727
v -167.133835 15.232507 158.174515
v -257.222778 15.232501 146.347778
v -247.285049 15.232446 297.118561
v -147.701080 15.232495 183.480453
v -593.053284 369.201172 93.542267
v -616.684143 575.218079 76.479271
v -621.051270 575.218079 84.049789
v -561.003906 369.201141 135.278000
v -589.923523 575.218079 111.327827
v -549.079041 369.201141 132.078049
v -552.924622 369.201172 73.734650
v -585.075195 575.218079 74.395828
v -592.645630 575.218079 70.028717
v -586.883850 369.201172 82.847366
v -609.752319 575.218079 71.156250
v -573.245667 369.201141 133.670929
v -598.364746 575.218079 113.592957
v -542.229797 369.201172 79.904091
v -579.752136 575.218079 81.327629
v -577.091248 369.201172 75.327522
v -601.311157 575.218079 68.891098
v -583.940552 369.201141 127.501480
v -607.030151 575.218079 112.455383
v -534.709900 369.201172 89.696678
v -577.487000 575.218079 89.768822
v -565.166382 369.201172 72.127548
v -591.460388 369.201141 117.708900
v -614.600708 575.218079 108.088249
v -531.509949 369.201141 101.621559
v -578.624573 575.218079 98.434303
v -594.660400 369.201141 105.784004
v -619.923706 575.218079 101.156441
v -539.286438 369.201141 124.558189
v -533.117065 369.201141 113.863304
v -622.188843 575.218079 92.715271
v -582.991699 575.218079 106.004807
v -299.359589 54.409424 193.117249
v -307.425568 101.320610 164.066757
v -318.615601 97.807686 186.588623
v -362.474335 160.387177 171.718597
v -452.365570 212.293274 121.009071
v -460.866516 209.705826 138.359329
v -546.812866 281.198517 109.219772
v -231.781586 91.459236 292.772766
v -247.691360 176.589630 267.096558
v -203.463272 100.152382 285.488739
v -337.042542 222.209259 237.397568
v -416.129181 267.732513 192.424652
v -321.987305 236.714813 230.145309
v -509.558868 302.839935 163.791214
v -494.824310 307.917786 158.930145
v -209.951706 81.205078 141.908768
v -227.740326 161.617737 146.419434
v -247.600677 143.957138 136.527054
v -314.071960 205.098907 128.014893
v -399.959564 256.704926 108.633263
v -411.786682 243.697098 100.969872
v -496.837769 296.850311 80.742920
v -285.492859 56.449142 167.868195
v -290.185364 111.324547 146.886398
v -354.062531 163.790649 152.900772
v -440.297485 219.661636 107.725288
v -538.769958 282.389923 94.546333
v -259.531342 81.205017 288.142426
v -270.908722 161.617691 273.743317
v -350.632080 205.098846 235.847885
v -430.597229 256.704926 198.998184
v -524.461548 296.850281 162.218460
v -185.107849 91.459297 155.109955
v -213.352768 176.589676 165.815887
v -302.342041 222.209320 135.049637
v -392.472687 267.732513 122.650505
v -484.051514 302.839966 88.557976
v -263.959564 62.257713 149.308594
v -269.412415 126.296524 137.121094
v -341.962341 173.482941 138.081299
v -426.211975 230.689194 100.562355
v -526.449402 285.782806 83.979477
v -282.568970 70.950768 272.758667
v -292.690216 143.957077 269.517242
v -360.805603 187.988419 226.382950
v -444.646301 243.697083 197.888382
v -537.258667 290.860596 154.442413
v -167.058731 100.152420 178.114655
v -207.484695 186.593597 192.687256
v -294.801910 236.714813 149.962769
v -390.166443 275.100830 141.184937
v -475.311554 307.917786 101.377907
v -237.595047 70.950821 140.109451
v -327.904053 187.988480 129.340881
v -511.725342 290.860626 79.132629
v -297.902435 62.257664 249.422104
v -309.643097 126.296463 255.780228
v -366.649323 173.482925 210.894836
v -456.345001 230.689148 189.438705
v -545.998901 285.782776 141.640152
v -159.319321 105.960976 207.797791
v -212.064987 190.106506 222.713989
v -293.166748 246.407074 170.604797
v -393.866425 277.688293 161.075333
v -471.947479 311.310638 117.244942
v -303.708069 56.449120 221.593384
v -320.193634 111.324532 235.394897
v -367.241608 163.790649 191.772110
v -463.169769 219.661621 175.186279
v -549.352478 282.389923 125.759033
v -179.267105 105.960960 266.633209
v -163.591553 108.000664 239.148590
v -308.135315 246.407074 214.754089
v -297.834808 249.810532 193.634277
v -482.503906 311.310638 148.380829
v -474.471985 312.502045 133.746521
v -323.430237 101.320587 211.272003
v -464.670471 212.293259 157.302078
v -226.690735 186.593582 249.334869
v -403.026276 275.100830 179.114624
vn 0.2835 0.4695 -0.8362
vn -0.0581 0.4695 -0.8810
vn -0.0570 0.2540 -0.9655
vn -0.5819 0.4695 0.6640
vn -0.6325 0.2540 0.7317
vn -0.8693 0.2386 0.4329
vn 0.8362 0.4695 0.2835
vn 0.8810 0.4695 -0.0581
vn 0.9357 0.3481 -0.0574
vn -0.8810 0.4695 0.0581
vn -0.7917 0.4695 0.3908
vn 0.6640 0.4695 0.5819
vn 0.8856 0.3543 0.3003
vn -0.8362 0.4695 -0.2835
vn -0.9702 0.2335 0.0643
vn 0.7079 0.3481 0.6146
vn 0.4243 0.3307 0.8430
vn -0.9209 0.2335 -0.3122
vn -0.7311 0.2335 -0.6411
vn 0.0581 0.4695 0.8810
vn 0.3908 0.4695 0.7917
vn 0.5819 0.4695 -0.6640
vn 0.3168 0.2783 -0.9068
vn -0.3908 0.4695 -0.7917
vn -0.6640 0.4695 -0.5819
vn -0.2835 0.4695 0.8362
vn 0.0714 0.3059 0.9494
vn 0.7917 0.4695 -0.3908
vn 0.6341 0.3059 -0.7102
vn -0.4268 0.2386 -0.8723
vn -0.3000 0.2783 0.9124
vn 0.8495 0.3307 -0.4111
vn -0.8997 -0.3123 -0.3050
vn -0.9374 -0.1420 -0.3178
vn -0.7515 -0.1287 -0.6471
vn 0.0330 0.2525 0.9670
vn 0.3845 0.4004 0.8318
vn 0.4211 0.1732 0.8903
vn 0.2913 0.0696 -0.9541
vn 0.2987 0.0404 -0.9535
vn 0.6385 0.1124 -0.7614
vn -0.7241 -0.2897 -0.6259
vn -0.4552 -0.0901 -0.8858
vn -0.3491 0.0696 0.9345
vn 0.0438 0.1124 0.9927
vn 0.6144 0.2525 -0.7475
vn 0.8757 0.1732 -0.4506
vn -0.4444 -0.2198 -0.8685
vn -0.0869 -0.0309 -0.9957
vn -0.6732 -0.0986 0.7329
vn -0.3428 0.0404 0.9385
vn 0.8111 0.4004 -0.4264
vn 0.9743 0.2132 -0.0731
vn -0.0886 -0.0986 -0.9912
vn -0.8809 -0.2198 0.4191
vn -0.6746 -0.0309 0.7375
vn 0.8694 0.4892 -0.0702
vn 0.9223 0.2271 0.3127
vn -0.9555 -0.2897 0.0565
vn -0.9001 -0.0901 0.4264
vn 0.6474 0.4892 0.5845
vn 0.8098 0.5185 0.2746
vn -0.9901 -0.1287 0.0567
vn 0.7289 0.2132 0.6506
vn -0.9224 -0.2267 -0.3127
vn -0.8141 -0.5110 -0.2760
vn -0.6365 -0.4664 -0.6143
vn -0.6048 -0.7695 -0.2051
vn -0.5003 -0.8491 -0.1696
vn -0.3553 -0.7944 -0.4926
vn -0.7251 -0.6433 -0.2458
vn 0.0025 0.1827 0.9832
vn 0.3746 0.2856 0.8821
vn 0.1988 0.5048 0.8400
vn -0.2033 0.3800 0.9024
vn 0.0363 0.6728 0.7390
vn 0.0089 0.7153 0.6987
vn -0.0800 0.4073 0.9098
vn 0.1816 0.6630 0.7263
vn 0.2705 0.0668 -0.9604
vn 0.1961 0.0571 -0.9789
vn 0.4707 0.2920 -0.8326
vn 0.2185 0.0335 -0.9753
vn 0.2630 0.0188 -0.9646
vn 0.3942 0.4060 -0.8245
vn 0.2670 0.0745 -0.9608
vn -0.7369 -0.2015 -0.6453
vn -0.3831 -0.3377 -0.8597
vn -0.4370 -0.7111 -0.5508
vn -0.1604 -0.6284 -0.7612
vn -0.5675 -0.6014 -0.5624
vn -0.3694 0.0668 0.9269
vn -0.1328 0.2920 0.9472
vn -0.4197 0.0335 0.9070
vn -0.1885 0.4060 0.8942
vn -0.3724 0.0745 0.9251
vn 0.5999 0.1827 -0.7789
vn 0.6687 0.5048 -0.5459
vn 0.3874 0.3800 -0.8400
vn 0.4320 0.7153 -0.5492
vn 0.4898 0.4073 -0.7708
vn -0.4499 -0.1349 -0.8828
vn -0.1017 -0.1596 -0.9819
vn -0.2151 -0.5368 -0.8158
vn 0.0610 -0.3490 -0.9351
vn -0.3294 -0.4698 -0.8190
vn -0.6838 -0.0435 0.7284
vn -0.4397 0.0571 0.8964
vn -0.5758 -0.2836 0.7668
vn -0.3779 0.0188 0.9256
vn -0.6165 -0.2404 0.7498
vn 0.8338 0.2856 -0.4724
vn 0.7436 0.6478 -0.1655
vn 0.4783 0.6728 -0.5645
vn 0.3922 0.8923 -0.2237
vn 0.5858 0.6630 -0.4661
vn -0.0998 -0.0435 -0.9941
vn 0.0093 -0.2836 -0.9589
vn -0.0334 -0.2404 -0.9701
vn -0.8941 -0.1349 0.4272
vn -0.6779 -0.1596 0.7176
vn -0.6669 -0.5368 0.5168
vn -0.5203 -0.3490 0.7794
vn -0.7596 -0.4698 0.4498
vn 0.9299 0.3561 -0.0917
vn 0.6803 0.6957 0.2307
vn 0.4770 0.8514 -0.2181
vn 0.3032 0.9474 0.1028
vn 0.5765 0.8049 -0.1408
vn -0.9774 -0.2015 0.0641
vn -0.8270 -0.3377 0.4495
vn -0.6819 -0.7111 0.1714
vn -0.5902 -0.6284 0.5067
vn -0.7925 -0.6013 0.1013
vn 0.6824 0.3561 0.6384
vn 0.8757 0.3808 0.2969
vn 0.2460 0.8514 0.4632
vn 0.3959 0.9084 0.1342
vn 0.3720 0.8049 0.4623
vn 0.5002 0.8491 0.1696
vn -0.8788 -0.4664 0.1005
vn -0.5816 -0.7944 0.1749
vn 0.4896 0.6478 0.5836
vn 0.1753 0.8923 0.4161
s 1
f 1//1 3//2 2//3
f 4//4 6//5 5//6
f 7//7 9//8 8//9
f 10//10 11//11 5//6
f 12//12 7//7 13//13
f 14//14 10//10 15//15
f 12//12 17//16 16//17
f 14//14 19//18 18//19
f 20//20 21//21 16//17
f 22//22 1//1 23//23
f 24//24 25//25 18//19
f 26//26 20//20 27//27
f 28//28 22//22 29//29
f 24//24 30//30 2//3
f 4//4 26//26 31//31
f 9//8 28//28 32//32
f 33//33 35//34 34//35
f 36//36 38//37 37//38
f 39//39 41//40 40//41
f 42//42 34//35 43//43
f 44//44 36//36 45//45
f 46//46 40//41 47//47
f 48//48 43//43 49//49
f 50//50 44//44 51//51
f 52//52 47//47 53//53
f 54//54 49//49 41//40
f 55//55 50//50 56//56
f 57//57 53//53 58//58
f 59//59 55//55 60//60
f 61//61 62//62 58//58
f 33//33 59//59 63//63
f 38//37 61//61 64//64
f 65//65 67//66 66//67
f 68//68 70//69 69//70
f 71//71 33//33 42//42
f 72//72 74//73 73//74
f 75//75 77//76 76//77
f 78//78 79//79 38//37
f 80//80 82//81 81//82
f 83//83 85//84 84//85
f 86//86 39//39 46//46
f 87//87 66//67 88//88
f 89//89 69//70 90//90
f 91//91 42//42 48//48
f 92//92 72//72 93//93
f 94//94 75//75 95//95
f 96//96 78//78 36//36
f 97//97 81//82 98//98
f 99//99 84//85 100//100
f 101//101 46//46 52//52
f 102//102 88//88 103//103
f 104//104 90//90 105//105
f 106//106 48//48 54//54
f 107//107 92//92 108//108
f 109//109 94//94 110//110
f 111//111 96//96 44//44
f 112//112 98//98 113//113
f 114//114 100//100 115//115
f 116//116 52//52 57//57
f 117//117 103//103 82//81
f 118//118 105//105 85//84
f 119//119 54//54 39//39
f 120//120 107//107 121//121
f 122//122 109//109 123//123
f 124//124 111//111 50//50
f 125//125 113//113 126//126
f 127//127 115//115 128//128
f 129//129 57//57 62//62
f 130//130 120//120 131//131
f 132//132 122//122 133//133
f 134//134 124//124 55//55
f 135//135 136//136 126//126
f 137//137 138//138 128//128
f 139//139 140//140 62//62
f 65//65 130//130 141//141
f 68//68 132//132 142//142
f 71//71 134//134 59//59
f 74//73 135//135 143//143
f 77//76 137//137 144//144
f 79//79 139//139 61//61
f 70//69 71//71 91//91
f 95//95 76//77 79//79
f 85//84 86//86 101//101
f 69//70 91//91 106//106
f 110//110 95//95 78//78
f 84//85 101//101 116//116
f 90//90 106//106 119//119
f 123//123 110//110 96//96
f 100//100 116//116 129//129
f 105//105 119//119 86//86
f 133//133 123//123 111//111
f 115//115 129//129 140//140
f 142//142 133//133 124//124
f 144//144 128//128 140//140
f 70//69 142//142 134//134
f 76//77 144//144 139//139
f 131//131 121//121 109//109
f 98//98 114//114 127//127
f 81//82 99//99 114//114
f 121//121 108//108 94//94
f 67//66 68//68 89//89
f 82//81 83//83 99//99
f 108//108 93//93 75//75
f 15//15 5//6 120//120
f 141//141 131//131 122//122
f 32//32 112//112 125//125
f 8//9 125//125 136//136
f 17//16 13//13 136//136
f 67//66 141//141 132//132
f 2//3 117//117 80//80
f 88//88 104//104 118//118
f 5//6 6//5 107//107
f 19//18 15//15 130//130
f 66//67 89//89 104//104
f 113//113 127//127 138//138
f 103//103 118//118 83//83
f 93//93 73//74 77//76
f 27//27 16//17 74//73
f 143//143 126//126 138//138
f 73//74 143//143 137//137
f 30//30 102//102 117//117
f 16//17 17//16 135//135
f 19//18 65//65 87//87
f 18//19 87//87 102//102
f 31//31 27//27 72//72
f 6//5 31//31 92//92
f 29//29 97//97 112//112
f 23//23 80//80 97//97
f 1//1 2//3 23//23
f 4//4 5//6 11//11
f 7//7 8//9 13//13
f 10//10 5//6 15//15
f 12//12 13//13 17//16
f 14//14 15//15 19//18
f 12//12 16//17 21//21
f 14//14 18//19 25//25
f 20//20 16//17 27//27
f 22//22 23//23 29//29
f 24//24 18//19 30//30
f 26//26 27//27 31//31
f 28//28 29//29 32//32
f 24//24 2//3 3//2
f 4//4 31//31 6//5
f 9//8 32//32 8//9
f 33//33 34//35 42//42
f 36//36 37//38 45//45
f 39//39 40//41 46//46
f 42//42 43//43 48//48
f 44//44 45//45 51//51
f 46//46 47//47 52//52
f 48//48 49//49 54//54
f 50//50 51//51 56//56
f 52//52 53//53 57//57
f 54//54 41//40 39//39
f 55//55 56//56 60//60
f 57//57 58//58 62//62
f 59//59 60//60 63//63
f 61//61 58//58 64//64
f 33//33 63//63 35//34
f 38//37 64//64 37//38
f 65//65 66//67 87//87
f 68//68 69//70 89//89
f 71//71 42//42 91//91
f 72//72 73//74 93//93
f 75//75 76//77 95//95
f 78//78 38//37 36//36
f 80//80 81//82 97//97
f 83//83 84//85 99//99
f 86//86 46//46 101//101
f 87//87 88//88 102//102
f 89//89 90//90 104//104
f 91//91 48//48 106//106
f 92//92 93//93 108//108
f 94//94 95//95 110//110
f 96//96 36//36 44//44
f 97//97 98//98 112//112
f 99//99 100//100 114//114
f 101//101 52//52 116//116
f 102//102 103//103 117//117
f 104//104 105//105 118//118
f 106//106 54//54 119//119
f 107//107 108//108 121//121
f 109//109 110//110 123//123
f 111//111 44//44 50//50
f 112//112 113//113 125//125
f 114//114 115//115 127//127
f 116//116 57//57 129//129
f 117//117 82//81 80//80
f 118//118 85//84 83//83
f 119//119 39//39 86//86
f 120//120 121//121 131//131
f 122//122 123//123 133//133
f 124//124 50//50 55//55
f 125//125 126//126 136//136
f 127//127 128//128 138//138
f 129//129 62//62 140//140
f 130//130 131//131 141//141
f 132//132 133//133 142//142
f 134//134 55//55 59//59
f 135//135 126//126 143//143
f 137//137 128//128 144//144
f 139//139 62//62 61//61
f 65//65 141//141 67//66
f 68//68 142//142 70//69
f 71//71 59//59 33//33
f 74//73 143//143 73//74
f 77//76 144//144 76//77
f 79//79 61//61 38//37
f 70//69 91//91 69//70
f 95//95 79//79 78//78
f 85//84 101//101 84//85
f 69//70 106//106 90//90
f 110//110 78//78 96//96
f 84//85 116//116 100//100
f 90//90 119//119 105//105
f 123//123 96//96 111//111
f 100//100 129//129 115//115
f 105//105 86//86 85//84
f 133//133 111//111 124//124
f 115//115 140//140 128//128
f 142//142 124//124 134//134
f 144//144 140//140 139//139
f 70//69 134//134 71//71
f 76//77 139//139 79//79
f 131//131 109//109 122//122
f 98//98 127//127 113//113
f 81//82 114//114 98//98
f 121//121 94//94 109//109
f 67//66 89//89 66//67
f 82//81 99//99 81//82
f 108//108 75//75 94//94
f 15//15 120//120 130//130
f 141//141 122//122 132//132
f 32//32 125//125 8//9
f 8//9 136//136 13//13
f 17//16 136//136 135//135
f 67//66 132//132 68//68
f 2//3 80//80 23//23
f 88//88 118//118 103//103
f 5//6 107//107 120//120
f 19//18 130//130 65//65
f 66//67 104//104 88//88
f 113//113 138//138 126//126
f 103//103 83//83 82//81
f 93//93 77//76 75//75
f 27//27 74//73 72//72
f 143//143 138//138 137//137
f 73//74 137//137 77//76
f 30//30 117//117 2//3
f 16//17 135//135 74//73
f 19//18 87//87 18//19
f 18//19 102//102 30//30
f 31//31 72//72 92//92
f 6//5 92//92 107//107
f 29//29 112//112 32//32
f 23//23 97//97 29//29
