# Blender v2.78 (sub 0) OBJ File: 'trees.blend'
# www.blender.org
o Sphere.002
v -580.794373 513.164551 147.123810
v -593.316406 498.732574 137.266846
v -593.816345 500.848328 145.979767
v -588.609619 557.013062 123.384338
v -584.202209 540.465332 110.384773
v -577.211060 543.148071 124.017525
v -579.928589 509.499756 132.032593
v -597.352722 497.183685 129.395981
v -574.033630 525.757019 127.182991
v -586.919678 506.817047 118.399849
v -582.106262 522.659302 111.441277
v -592.645935 555.464233 115.513466
v -597.177063 539.483398 101.863388
v -604.843750 496.616730 124.476143
v -599.894531 505.835083 109.878479
v -597.088318 521.525452 101.601616
v -614.965332 522.659302 100.300613
v -600.136963 554.897278 110.593628
v -612.659058 540.465332 100.736664
v -613.782288 497.183685 123.825638
v -615.376465 506.817047 108.751717
v -630.947205 525.757019 107.886810
v -617.066467 557.013062 113.736221
v -626.499695 543.148071 107.306526
v -629.217163 509.499756 115.321579
v -621.773254 498.732574 127.618729
v -640.751526 529.988647 122.327515
v -637.707947 513.164551 127.827614
v -621.968628 559.128845 120.956589
v -634.990540 546.812744 119.812561
v -626.675415 500.848328 134.839081
v -627.175354 502.964203 143.552002
v -638.573792 516.829224 142.918808
v -635.856384 550.477478 134.903748
v -641.751343 534.220215 139.753372
v -618.432190 562.793518 137.540359
v -628.865234 553.160156 148.536514
v -623.138977 504.513000 151.422867
v -631.582764 519.511902 156.551605
v -633.678650 537.317993 155.495071
v -615.890442 554.142151 157.057877
v -615.647949 505.079956 156.342697
v -618.607910 520.493835 165.072952
v -618.696655 538.451843 165.334717
v -600.819580 537.317993 166.635727
v -610.941162 563.360474 142.460190
v -600.408447 553.160156 158.184631
v -606.709412 504.513000 156.993210
v -603.125916 519.511902 166.199707
v -589.285217 516.829224 159.629837
v -586.567749 550.477478 151.614761
v -584.837769 534.220215 159.049561
v -602.002625 562.793518 143.110703
v -598.718506 502.964203 153.200119
v -575.033386 529.988647 144.608856
v -589.109558 559.128845 132.097260
v -605.174988 563.636841 125.453102
v -578.076965 546.812744 139.108749
v -610.609924 496.340332 141.483246
v -609.075500 555.464233 109.943123
v -622.468567 561.244690 129.669510
v -594.011719 561.244690 139.317596
v -583.302368 578.168030 182.429169
v -590.012695 559.326172 174.542648
v -591.372070 562.131836 182.964127
v -604.995178 613.772278 153.984573
v -594.997314 598.313354 142.880402
v -589.597839 604.742859 155.973511
v -580.947571 573.308411 167.842743
v -593.130066 555.614075 166.983322
v -580.795776 589.932068 161.045959
v -586.347107 566.878723 154.749619
v -587.030640 582.507874 145.927368
v -608.112610 610.060181 146.425232
v -606.704285 592.036499 134.788849
v -599.889038 551.990112 162.311676
v -598.054138 560.601990 146.658127
v -600.548706 575.260010 136.584030
v -617.727905 570.130737 135.519638
v -614.871643 606.436279 141.753601
v -621.581909 587.594421 133.867050
v -608.478638 549.425476 161.779465
v -612.931702 556.159851 145.736267
v -633.964966 568.494324 143.019287
v -631.579834 603.053467 144.971207
v -635.643677 586.177246 140.361954
v -626.993469 554.742737 152.231201
v -616.597229 548.607239 165.529297
v -644.909241 570.789246 157.073502
v -636.471497 556.730286 164.402496
v -637.051941 604.200928 151.998322
v -645.121704 588.164795 152.533264
v -622.069397 549.754761 172.556412
v -623.428894 552.560425 180.977890
v -638.826294 561.589844 178.988876
v -647.476440 593.024414 167.119675
v -647.628296 576.400696 173.916443
v -635.294067 610.718750 167.979095
v -642.076965 599.454041 180.212799
v -620.311462 556.272522 188.537186
v -633.426758 568.019409 192.082031
v -641.393494 583.824951 189.035034
v -630.369934 605.730713 188.304306
v -613.552429 559.896484 193.208847
v -621.719727 574.296204 200.173538
v -627.875488 591.072693 198.378372
v -610.696228 596.202026 199.442780
v -628.534973 614.342590 172.650757
v -615.492310 610.172852 189.226151
v -604.962830 562.461060 193.741028
v -606.842163 578.738342 201.095337
v -592.780457 580.155457 194.600464
v -601.430603 611.590088 182.731247
v -594.459167 597.838440 191.943146
v -619.945435 616.907288 173.182968
v -596.844299 563.279297 189.991241
v -583.514832 595.543518 177.888947
v -606.354736 616.578003 162.406067
v -622.862244 614.600891 155.612000
v -591.952576 609.602539 170.559952
v -605.561829 551.731873 179.350449
v -623.461182 603.871643 141.221359
v -638.411438 607.006653 160.419785
v -611.826904 617.725464 169.433167
v -609.817871 575.363281 141.839813
v -616.528198 556.521362 133.953308
v -617.887695 559.327087 142.374786
v -631.510742 610.967529 113.395233
v -621.512878 595.508484 102.291061
v -616.113342 601.938171 115.384186
v -607.463196 570.503601 127.253395
v -619.645569 552.809265 126.393982
v -607.311340 587.127380 120.456642
v -612.862671 564.073975 114.160278
v -613.546204 579.703064 105.338028
v -634.628113 607.255432 105.835892
v -633.219849 589.231750 94.199509
v -626.404602 549.185364 121.722343
v -624.569641 557.797119 106.068810
v -627.064270 572.455261 95.994690
v -644.243408 567.325928 94.930298
v -641.387207 603.631470 101.164253
v -648.097473 584.789673 93.277718
v -634.994141 546.620667 121.190125
v -639.447266 553.355042 105.146957
v -660.480530 565.689514 102.429947
v -658.095337 600.248596 104.381874
v -662.159180 583.372498 99.772583
v -653.508972 551.937927 111.641846
v -643.112732 545.802490 124.939964
v -671.424805 567.984558 116.484169
v -662.987061 553.925537 123.813164
v -663.567505 601.396179 111.408974
v -671.637207 585.360046 111.943916
v -648.584900 546.950012 131.967087
v -649.944458 549.755737 140.388535
v -665.341858 558.785156 138.399521
v -673.992004 590.219604 126.530334
v -674.143860 573.596008 133.327087
v -661.809570 607.914062 127.389740
v -668.592529 596.649231 139.623474
v -646.827026 553.467834 147.947845
v -659.942322 565.214722 151.492676
v -667.908997 581.020203 148.445724
v -656.885498 602.926147 147.714951
v -640.067993 557.091675 152.619507
v -648.235291 571.491455 159.584229
v -654.390991 588.268127 157.789047
v -637.211792 593.397461 158.853455
v -655.050598 611.537964 132.061432
v -642.007935 607.368225 148.636826
v -631.478394 559.656433 153.151688
v -633.357727 575.933655 160.506027
v -619.295959 577.350769 154.011124
v -627.946228 608.785339 142.141891
v -620.974731 595.033691 151.353790
v -646.460999 614.102539 132.593628
v -623.359863 560.474670 149.401886
v -610.030334 592.738831 137.299576
v -632.870300 613.773254 121.816704
v -649.377808 611.796143 115.022667
v -618.468140 606.797852 129.970566
v -632.077393 548.927124 138.761108
v -649.976746 601.066833 100.632050
v -664.927063 604.201843 119.830444
v -638.342407 614.920715 128.843811
vn 0.7918 -0.4678 0.3927
vn 0.4364 -0.8218 0.3662
vn 0.4517 -0.8866 0.0996
vn 0.5845 0.7571 -0.2919
vn 0.8926 0.3609 -0.2701
vn 0.6888 0.2827 -0.6675
vn 0.8171 -0.5746 -0.0473
vn 0.3282 -0.9340 -0.1413
vn 0.9759 -0.1220 -0.1811
vn 0.6133 -0.6528 -0.4447
vn 0.7432 -0.2112 -0.6348
vn 0.4609 0.7097 -0.5328
vn 0.3106 0.2541 -0.9160
vn 0.0989 -0.9513 -0.2918
vn 0.2350 -0.6814 -0.6931
vn 0.3114 -0.2439 -0.9184
vn -0.2038 -0.2112 -0.9559
vn 0.2317 0.6923 -0.6834
vn -0.1408 0.2827 -0.9488
vn -0.1746 -0.9340 -0.3117
vn -0.2163 -0.6528 -0.7260
vn -0.6645 -0.1220 -0.7373
vn -0.5443 0.3609 -0.7573
vn -0.2864 0.7571 -0.5872
vn -0.4191 -0.8866 -0.1957
vn -0.6198 -0.5746 -0.5344
vn -0.8674 -0.4678 -0.1698
vn -0.9470 -0.0000 -0.3211
vn -0.7918 0.4678 -0.3927
vn -0.4364 0.8218 -0.3662
vn -0.5692 -0.8218 0.0253
vn -0.5845 -0.7571 0.2919
vn -0.8926 -0.3609 0.2701
vn -0.9759 0.1220 0.1811
vn -0.8171 0.5746 0.0473
vn -0.6133 0.6528 0.4447
vn -0.3282 0.9340 0.1413
vn -0.4609 -0.7097 0.5328
vn -0.6888 -0.2827 0.6675
vn -0.7432 0.2112 0.6348
vn -0.2350 0.6814 0.6931
vn -0.2317 -0.6923 0.6834
vn -0.3106 -0.2541 0.9160
vn -0.3114 0.2439 0.9184
vn 0.2039 0.2112 0.9559
vn -0.0989 0.9513 0.2918
vn 0.2163 0.6528 0.7260
vn 0.0419 -0.7097 0.7033
vn 0.1408 -0.2827 0.9488
vn 0.5443 -0.3609 0.7573
vn 0.6645 0.1220 0.7373
vn 0.6198 0.5746 0.5344
vn 0.1746 0.9340 0.3117
vn 0.2864 -0.7571 0.5872
vn 0.9470 0.0000 0.3211
vn 0.5692 0.8218 -0.0253
vn 0.0783 0.9698 -0.2310
vn 0.8674 0.4678 0.1698
vn -0.0783 -0.9698 0.2310
vn -0.0419 0.7097 -0.7033
vn -0.4517 0.8866 -0.0996
vn 0.4191 0.8866 0.1957
vn 0.8953 -0.1245 0.4278
vn 0.6810 -0.5784 0.4491
vn 0.7226 -0.6642 0.1914
vn 0.3000 0.8713 -0.3884
vn 0.7234 0.6078 -0.3275
vn 0.5660 0.4204 -0.7092
vn 0.9639 -0.2662 0.0025
vn 0.6272 -0.7778 -0.0399
vn 0.9631 0.1950 -0.1855
vn 0.8065 -0.4536 -0.3792
vn 0.7834 -0.0190 -0.6212
vn 0.2046 0.7577 -0.6197
vn 0.2247 0.2374 -0.9451
vn 0.4203 -0.8887 -0.1829
vn 0.4652 -0.6366 -0.6151
vn 0.3938 -0.2279 -0.8905
vn -0.1013 -0.3757 -0.9212
vn -0.0022 0.6468 -0.7627
vn -0.2090 0.1079 -0.9719
vn 0.1575 -0.9672 -0.1992
vn 0.0315 -0.7661 -0.6419
vn -0.5693 -0.4229 -0.7050
vn -0.6190 0.0666 -0.7826
vn -0.5135 0.5433 -0.6642
vn -0.0910 -0.9923 -0.0844
vn -0.3785 -0.8074 -0.4526
vn -0.6548 -0.7495 -0.0978
vn -0.8847 -0.3567 -0.3000
vn -0.8953 0.1245 -0.4278
vn -0.6810 0.5784 -0.4491
vn -0.2584 -0.9572 0.1306
vn -0.3000 -0.8713 0.3884
vn -0.7234 -0.6078 0.3275
vn -0.9631 -0.1950 0.1855
vn -0.9639 0.2662 -0.0025
vn -0.8065 0.4536 0.3792
vn -0.6272 0.7778 0.0399
vn -0.2046 -0.7577 0.6197
vn -0.5660 -0.4204 0.7092
vn -0.7834 0.0190 0.6212
vn -0.4652 0.6366 0.6151
vn 0.0022 -0.6468 0.7627
vn -0.2247 -0.2374 0.9451
vn -0.3938 0.2279 0.8905
vn 0.1013 0.3757 0.9212
vn -0.4203 0.8887 0.1829
vn -0.0315 0.7661 0.6419
vn 0.2651 -0.5683 0.7790
vn 0.2090 -0.1079 0.9719
vn 0.6190 -0.0666 0.7826
vn 0.5693 0.4229 0.7050
vn 0.3785 0.8074 0.4526
vn -0.1575 0.9672 0.1992
vn 0.5135 -0.5433 0.6642
vn 0.8847 0.3567 0.3000
vn 0.2584 0.9572 -0.1306
vn -0.2493 0.9060 -0.3421
vn 0.6548 0.7495 0.0978
vn 0.2493 -0.9060 0.3421
vn -0.2651 0.5683 -0.7790
vn -0.7226 0.6642 -0.1914
vn 0.0910 0.9923 0.0844
vn 0.6810 -0.5784 0.4492
vn -0.6810 0.5784 -0.4492
vn -0.1575 0.9672 0.1991
s 1
f 1//1 3//2 2//3
f 4//4 6//5 5//6
f 7//7 2//3 8//8
f 9//9 7//7 10//10
f 6//5 9//9 11//11
f 12//12 5//6 13//13
f 10//10 8//8 14//14
f 11//11 10//10 15//15
f 11//11 16//16 13//13
f 13//13 16//16 17//17
f 18//18 13//13 19//19
f 15//15 14//14 20//20
f 16//16 15//15 21//21
f 19//19 17//17 22//22
f 19//19 24//23 23//24
f 20//20 26//25 25//26
f 21//21 25//26 22//22
f 25//26 28//27 27//28
f 24//23 22//22 27//28
f 24//23 30//29 29//30
f 25//26 26//25 31//31
f 28//27 31//31 32//32
f 27//28 28//27 33//33
f 27//28 35//34 34//35
f 29//30 30//29 34//35
f 34//35 37//36 36//37
f 33//33 32//32 38//38
f 35//34 33//33 39//39
f 35//34 40//40 37//36
f 36//37 37//36 41//41
f 39//39 38//38 42//42
f 40//40 39//39 43//43
f 40//40 44//44 41//41
f 41//41 44//44 45//45
f 46//46 41//41 47//47
f 43//43 42//42 48//48
f 44//44 43//43 49//49
f 45//45 49//49 50//50
f 45//45 52//51 51//52
f 53//53 47//47 51//52
f 48//48 54//54 50//50
f 51//52 52//51 55//55
f 56//56 4//4 57//57
f 55//55 1//1 7//7
f 58//58 55//55 9//9
f 59//59 2//3 3//2
f 58//58 6//5 4//4
f 4//4 12//12 57//57
f 59//59 8//8 2//3
f 59//59 14//14 8//8
f 12//12 18//18 57//57
f 59//59 20//20 14//14
f 18//18 60//60 57//57
f 59//59 26//25 20//20
f 60//60 23//24 57//57
f 23//24 29//30 57//57
f 59//59 31//31 26//25
f 29//30 61//61 57//57
f 59//59 32//32 31//31
f 61//61 36//37 57//57
f 59//59 38//38 32//32
f 59//59 42//42 38//38
f 36//37 46//46 57//57
f 59//59 48//48 42//42
f 46//46 53//53 57//57
f 59//59 54//54 48//48
f 53//53 62//62 57//57
f 62//62 56//56 57//57
f 52//51 50//50 1//1
f 59//59 3//2 54//54
f 62//62 51//52 58//58
f 54//54 3//2 1//1
f 1//1 2//3 7//7
f 4//4 5//6 12//12
f 7//7 8//8 10//10
f 9//9 10//10 11//11
f 6//5 11//11 5//6
f 12//12 13//13 18//18
f 10//10 14//14 15//15
f 11//11 15//15 16//16
f 11//11 13//13 5//6
f 13//13 17//17 19//19
f 18//18 19//19 60//60
f 15//15 20//20 21//21
f 16//16 21//21 17//17
f 19//19 22//22 24//23
f 19//19 23//24 60//60
f 20//20 25//26 21//21
f 21//21 22//22 17//17
f 25//26 27//28 22//22
f 24//23 27//28 30//29
f 24//23 29//30 23//24
f 25//26 31//31 28//27
f 28//27 32//32 33//33
f 27//28 33//33 35//34
f 27//28 34//35 30//29
f 29//30 34//35 61//61
f 34//35 36//37 61//61
f 33//33 38//38 39//39
f 35//34 39//39 40//40
f 35//34 37//36 34//35
f 36//37 41//41 46//46
f 39//39 42//42 43//43
f 40//40 43//43 44//44
f 40//40 41//41 37//36
f 41//41 45//45 47//47
f 46//46 47//47 53//53
f 43//43 48//48 49//49
f 44//44 49//49 45//45
f 45//45 50//50 52//51
f 45//45 51//52 47//47
f 53//53 51//52 62//62
f 48//48 50//50 49//49
f 51//52 55//55 58//58
f 55//55 7//7 9//9
f 58//58 9//9 6//5
f 58//58 4//4 56//56
f 52//51 1//1 55//55
f 62//62 58//58 56//56
f 54//54 1//1 50//50
f 63//63 65//64 64//65
f 66//66 68//67 67//68
f 69//69 64//65 70//70
f 71//71 69//69 72//72
f 68//67 71//71 73//73
f 74//74 67//68 75//75
f 72//72 70//70 76//76
f 73//73 72//72 77//77
f 73//73 78//78 75//75
f 75//75 78//78 79//79
f 80//80 75//75 81//81
f 77//77 76//76 82//82
f 78//78 77//77 83//83
f 81//81 79//79 84//84
f 81//81 86//85 85//86
f 82//82 88//87 87//88
f 83//83 87//88 84//84
f 87//88 90//89 89//90
f 86//85 84//84 89//90
f 86//85 92//91 91//92
f 87//88 88//87 93//93
f 90//89 93//93 94//94
f 89//90 90//89 95//95
f 89//90 97//96 96//97
f 91//92 92//91 96//97
f 96//97 99//98 98//99
f 95//95 94//94 100//100
f 97//96 95//95 101//101
f 97//96 102//102 99//98
f 98//99 99//98 103//103
f 101//101 100//100 104//104
f 102//102 101//101 105//105
f 102//102 106//106 103//103
f 103//103 106//106 107//107
f 108//108 103//103 109//109
f 105//105 104//104 110//110
f 106//106 105//105 111//111
f 107//107 111//111 112//112
f 107//107 114//113 113//114
f 115//115 109//109 113//114
f 110//110 116//116 112//112
f 113//114 114//113 117//117
f 118//118 66//66 119//119
f 117//117 63//63 69//69
f 120//120 117//117 71//71
f 121//121 64//65 65//64
f 120//120 68//67 66//66
f 66//66 74//74 119//119
f 121//121 70//70 64//65
f 121//121 76//76 70//70
f 74//74 80//80 119//119
f 121//121 82//82 76//76
f 80//80 122//122 119//119
f 121//121 88//87 82//82
f 122//122 85//86 119//119
f 85//86 91//92 119//119
f 121//121 93//93 88//87
f 91//92 123//123 119//119
f 121//121 94//94 93//93
f 123//123 98//99 119//119
f 121//121 100//100 94//94
f 121//121 104//104 100//100
f 98//99 108//108 119//119
f 121//121 110//110 104//104
f 108//108 115//115 119//119
f 121//121 116//116 110//110
f 115//115 124//124 119//119
f 124//124 118//118 119//119
f 114//113 112//112 63//63
f 121//121 65//64 116//116
f 124//124 113//114 120//120
f 116//116 65//64 63//63
f 63//63 64//65 69//69
f 66//66 67//68 74//74
f 69//69 70//70 72//72
f 71//71 72//72 73//73
f 68//67 73//73 67//68
f 74//74 75//75 80//80
f 72//72 76//76 77//77
f 73//73 77//77 78//78
f 73//73 75//75 67//68
f 75//75 79//79 81//81
f 80//80 81//81 122//122
f 77//77 82//82 83//83
f 78//78 83//83 79//79
f 81//81 84//84 86//85
f 81//81 85//86 122//122
f 82//82 87//88 83//83
f 83//83 84//84 79//79
f 87//88 89//90 84//84
f 86//85 89//90 92//91
f 86//85 91//92 85//86
f 87//88 93//93 90//89
f 90//89 94//94 95//95
f 89//90 95//95 97//96
f 89//90 96//97 92//91
f 91//92 96//97 123//123
f 96//97 98//99 123//123
f 95//95 100//100 101//101
f 97//96 101//101 102//102
f 97//96 99//98 96//97
f 98//99 103//103 108//108
f 101//101 104//104 105//105
f 102//102 105//105 106//106
f 102//102 103//103 99//98
f 103//103 107//107 109//109
f 108//108 109//109 115//115
f 105//105 110//110 111//111
f 106//106 111//111 107//107
f 107//107 112//112 114//113
f 107//107 113//114 109//109
f 115//115 113//114 124//124
f 110//110 112//112 111//111
f 113//114 117//117 120//120
f 117//117 69//69 71//71
f 120//120 71//71 68//67
f 120//120 66//66 118//118
f 114//113 63//63 117//117
f 124//124 120//120 118//118
f 116//116 63//63 112//112
f 125//63 127//125 126//65
f 128//66 130//67 129//68
f 131//69 126//65 132//70
f 133//71 131//69 134//72
f 130//67 133//71 135//73
f 136//74 129//68 137//75
f 134//72 132//70 138//76
f 135//73 134//72 139//77
f 135//73 140//78 137//75
f 137//75 140//78 141//79
f 142//80 137//75 143//81
f 139//77 138//76 144//82
f 140//78 139//77 145//83
f 143//81 141//79 146//84
f 143//81 148//85 147//86
f 144//82 150//87 149//88
f 145//83 149//88 146//84
f 149//88 152//89 151//90
f 148//85 146//84 151//90
f 148//85 154//91 153//126
f 149//88 150//87 155//93
f 152//89 155//93 156//94
f 151//90 152//89 157//95
f 151//90 159//96 158//97
f 153//126 154//91 158//97
f 158//97 161//98 160//99
f 157//95 156//94 162//100
f 159//96 157//95 163//101
f 159//96 164//102 161//98
f 160//99 161//98 165//103
f 163//101 162//100 166//104
f 164//102 163//101 167//105
f 164//102 168//106 165//103
f 165//103 168//106 169//107
f 170//108 165//103 171//109
f 167//105 166//104 172//110
f 168//106 167//105 173//111
f 169//107 173//111 174//112
f 169//107 176//113 175//114
f 177//127 171//109 175//114
f 172//110 178//116 174//112
f 175//114 176//113 179//117
f 180//118 128//66 181//119
f 179//117 125//63 131//69
f 182//120 179//117 133//71
f 183//121 126//65 127//125
f 182//120 130//67 128//66
f 128//66 136//74 181//119
f 183//121 132//70 126//65
f 183//121 138//76 132//70
f 136//74 142//80 181//119
f 183//121 144//82 138//76
f 142//80 184//122 181//119
f 183//121 150//87 144//82
f 184//122 147//86 181//119
f 147//86 153//126 181//119
f 183//121 155//93 150//87
f 153//126 185//123 181//119
f 183//121 156//94 155//93
f 185//123 160//99 181//119
f 183//121 162//100 156//94
f 183//121 166//104 162//100
f 160//99 170//108 181//119
f 183//121 172//110 166//104
f 170//108 177//127 181//119
f 183//121 178//116 172//110
f 177//127 186//124 181//119
f 186//124 180//118 181//119
f 176//113 174//112 125//63
f 183//121 127//125 178//116
f 186//124 175//114 182//120
f 178//116 127//125 125//63
f 125//63 126//65 131//69
f 128//66 129//68 136//74
f 131//69 132//70 134//72
f 133//71 134//72 135//73
f 130//67 135//73 129//68
f 136//74 137//75 142//80
f 134//72 138//76 139//77
f 135//73 139//77 140//78
f 135//73 137//75 129//68
f 137//75 141//79 143//81
f 142//80 143//81 184//122
f 139//77 144//82 145//83
f 140//78 145//83 141//79
f 143//81 146//84 148//85
f 143//81 147//86 184//122
f 144//82 149//88 145//83
f 145//83 146//84 141//79
f 149//88 151//90 146//84
f 148//85 151//90 154//91
f 148//85 153//126 147//86
f 149//88 155//93 152//89
f 152//89 156//94 157//95
f 151//90 157//95 159//96
f 151//90 158//97 154//91
f 153//126 158//97 185//123
f 158//97 160//99 185//123
f 157//95 162//100 163//101
f 159//96 163//101 164//102
f 159//96 161//98 158//97
f 160//99 165//103 170//108
f 163//101 166//104 167//105
f 164//102 167//105 168//106
f 164//102 165//103 161//98
f 165//103 169//107 171//109
f 170//108 171//109 177//127
f 167//105 172//110 173//111
f 168//106 173//111 169//107
f 169//107 174//112 176//113
f 169//107 175//114 171//109
f 177//127 175//114 186//124
f 172//110 174//112 173//111
f 175//114 179//117 182//120
f 179//117 131//69 133//71
f 182//120 133//71 130//67
f 182//120 128//66 180//118
f 176//113 125//63 179//117
f 186//124 182//120 180//118
f 178//116 125//63 174//112
