# Blender v2.78 (sub 0) OBJ File: 'trees.blend'
# www.blender.org
o Plane.001
v -631.416870 379.592255 -97.840050
v -591.178894 429.274139 -120.192963
v -617.452393 448.839539 -122.585258
v -583.652222 572.821106 89.021255
v -546.165649 570.515808 24.248285
v -568.896851 557.269836 94.121696
v -585.887695 570.741882 -34.355759
v -577.485840 586.989746 22.976530
v -601.730957 508.228058 -95.811821
v -550.925903 554.762207 -34.358780
v -568.119446 490.720520 -95.541115
v -653.759277 379.531342 -92.654510
v -661.404846 363.119446 -84.680916
v -634.376038 323.835602 -60.518730
v -677.553223 448.675842 -108.636223
v -643.562500 389.351074 -99.330872
v -648.349487 458.485107 -119.144630
v -650.033630 586.792114 39.814419
v -600.626709 583.142517 87.936401
v -615.334412 572.734863 96.374504
v -667.659241 570.519104 -15.377028
v -614.911072 596.741516 26.550262
v -642.099792 517.814453 -91.520744
v -627.893066 580.319031 -29.576153
v -680.181641 508.014404 -77.603775
v -710.146851 490.333649 -62.577362
v -699.985596 428.977783 -94.939568
v -677.506287 570.158142 54.731655
v -626.254333 557.113647 107.434006
v -698.965393 554.359009 0.000304
v -620.956177 363.229675 -94.068855
v -548.841675 551.152954 359.270111
v -595.532776 598.703369 347.189972
v -571.982483 618.052307 334.949371
v -615.647644 573.001770 95.460320
v -654.182556 608.512268 148.940918
v -628.207520 556.262329 102.360855
v -616.300354 650.661804 191.375443
v -625.211609 625.360718 137.504990
v -594.325562 644.278748 277.469452
v -648.977295 634.596436 203.696243
v -625.465088 627.028503 290.472534
v -526.542908 550.294189 353.968964
v -516.704529 533.575134 357.850281
v -537.984985 485.218994 365.999695
v -511.998962 615.742310 320.689301
v -538.054077 560.886597 353.451538
v -542.457458 626.647095 324.276550
v -552.805420 622.572388 120.291641
v -600.130798 583.445068 88.677597
v -584.027344 571.783997 87.943115
v -534.688354 647.518860 171.973602
v -589.221802 634.683716 126.265251
v -555.377319 653.347107 265.605408
v -575.715576 659.594238 179.042633
v -516.027893 641.263550 258.855469
v -483.714661 621.569824 256.773895
v -486.938324 594.521545 321.373505
v -523.098145 603.464172 117.777832
v -570.961975 554.057800 88.751678
v -501.226715 628.906555 168.571030
v -557.074219 535.129822 367.447449
v -464.663055 483.081635 -53.705345
v -444.897949 518.840881 -29.657677
v -454.644470 538.228455 -39.285141
v -595.054749 571.311646 95.718079
v -541.919373 579.704773 87.983643
v -591.285522 556.105042 101.518738
v -553.540039 597.352600 75.438004
v -504.251190 583.536011 57.618664
v -475.078918 572.867126 -5.360143
v -517.769714 601.095886 43.592724
v -461.943878 554.329712 7.698844
v -475.077393 485.402893 -63.120995
v -480.168915 472.515442 -67.912071
v -481.032013 432.953644 -53.929993
v -482.658752 544.472595 -64.613152
v -469.029785 492.669067 -58.134457
v -468.107391 549.572693 -51.395309
v -587.356140 604.889771 44.864529
v -601.305542 582.006104 89.105850
v -609.822510 574.603333 82.366417
v -555.885132 609.591431 9.132108
v -569.193542 609.813477 60.042629
v -492.103149 585.508850 -22.021471
v -535.624451 613.877014 26.285040
v -511.646423 581.017578 -38.421284
v -528.145996 569.085449 -52.155243
v -495.615082 530.145264 -75.511703
v -573.255554 598.916321 -4.768976
v -603.140015 593.350281 32.633327
v -618.021118 562.064087 77.346825
v -461.314911 468.313080 -50.865936
v -317.325684 437.125610 183.653305
v -338.720551 490.237915 223.045624
v -331.453583 519.513367 205.391830
v -604.352905 569.259521 101.884819
v -561.206665 581.312500 165.776917
v -609.998413 546.360718 109.775696
v -551.036682 608.033142 144.051193
v -496.164276 586.949280 197.019470
v -391.091339 571.301575 198.787857
v -485.104645 613.576050 172.024902
v -401.041595 543.224548 222.732254
v -310.670258 440.826080 165.025665
v -307.082642 421.619537 155.617966
v -326.757507 362.180389 161.841232
v -313.550537 529.467468 155.283493
v -313.914429 451.593903 175.691208
v -322.979401 536.802307 181.461700
v -529.425781 620.048706 83.565445
v -599.077148 585.432251 90.291908
v -594.915344 574.506897 75.470207
v -460.746216 627.119446 103.848946
v -539.359619 627.056458 115.476440
v -378.500854 590.625366 167.744537
v -472.127930 633.125061 139.554214
v -367.722076 584.295044 133.380554
v -358.733795 566.747681 104.318626
v -306.308716 508.258942 132.329361
v -452.065582 611.468201 73.593452
v -522.082397 603.065613 56.273300
v -592.912537 555.860535 61.954647
v -319.131653 414.920288 189.341583
v -952.056763 487.614532 120.868851
v -940.032776 556.592163 64.247208
v -930.752380 582.189087 98.389618
v -602.984558 572.940247 69.634720
v -675.358826 612.806335 14.113993
v -607.139832 550.790955 50.913391
v -743.938660 656.544312 61.485367
v -667.294678 634.473633 55.127644
v -858.028381 629.663513 78.487587
v -752.864441 636.072632 15.514385
v -867.798401 607.365845 34.370323
v -947.671875 485.472870 150.970856
v -950.616577 461.889313 162.239761
v -949.029907 398.797485 129.555542
v -918.957092 576.428162 179.363632
v -947.702576 500.522949 136.599503
v -922.107056 592.826782 139.438217
v -653.056824 627.519592 152.871429
v -598.088013 586.534058 91.792229
v -596.766724 569.903442 112.320175
v -727.890564 648.706177 171.656342
v -658.842712 645.587036 104.843437
v -849.070068 640.293030 132.176254
v -734.539673 666.936157 117.388718
v -842.631897 622.143738 184.184509
v -839.924866 593.751831 225.724396
v -918.678955 546.162476 210.842972
v -649.582520 600.216614 191.069687
v -595.883057 545.292969 128.191284
v -723.810913 621.882385 214.968384
v -958.554932 465.766510 107.743126
vn -0.2397 -0.4028 -0.8833
vn 0.0097 0.0600 -0.9982
vn 0.0402 -0.0681 -0.9969
vn 0.5460 0.7916 0.2743
vn 0.6254 0.7039 0.3369
vn 0.4768 0.8783 -0.0365
vn 0.2515 0.8129 -0.5253
vn 0.3703 0.9268 -0.0626
vn 0.1576 0.5360 -0.8294
vn 0.3590 0.7725 -0.5238
vn 0.2705 0.4658 -0.8425
vn -0.1718 -0.4026 -0.8991
vn -0.1938 -0.5051 -0.8410
vn -0.0186 -0.4299 -0.9027
vn -0.4487 0.0587 -0.8918
vn -0.2243 0.1367 -0.9649
vn -0.2097 -0.3637 -0.9076
vn -0.3648 0.9248 0.1080
vn -0.3735 0.7891 0.4877
vn 0.0698 0.9475 0.3120
vn -0.4613 0.8110 -0.3598
vn -0.0121 0.9991 -0.0405
vn -0.1156 0.8653 -0.4877
vn -0.1842 0.5893 -0.7866
vn -0.5096 0.5342 -0.6745
vn -0.6163 0.4634 -0.6367
vn -0.4748 -0.0695 -0.8773
vn -0.4487 0.8757 0.1783
vn -0.4167 0.7010 0.5787
vn -0.5570 0.7700 -0.3112
vn -0.3787 -0.4309 -0.8191
vn 0.2658 0.2864 0.9205
vn -0.0425 0.6835 0.7287
vn -0.0566 0.5820 0.8112
vn -0.6336 0.3647 -0.6823
vn -0.6998 0.2490 -0.6696
vn -0.5837 0.6373 -0.5032
vn -0.3644 0.9259 -0.1000
vn -0.4848 0.7028 -0.5205
vn -0.2444 0.9206 0.3044
vn -0.4660 0.8821 -0.0688
vn -0.3479 0.8631 0.3662
vn 0.1979 0.2890 0.9367
vn 0.2341 0.1763 0.9561
vn 0.0493 0.2533 0.9661
vn 0.4150 0.6659 0.6199
vn 0.1809 0.7468 0.6400
vn 0.2304 0.3282 0.9161
vn 0.2489 0.6746 -0.6950
vn 0.2841 0.3293 -0.9005
vn -0.1799 0.5125 -0.8396
vn 0.3469 0.8985 -0.2691
vn -0.1140 0.7865 -0.6069
vn -0.0060 0.9828 -0.1845
vn 0.0890 0.9721 0.2169
vn 0.4215 0.8950 0.1461
vn 0.5371 0.8290 0.1558
vn 0.4573 0.5622 0.6890
vn 0.3400 0.6017 -0.7228
vn 0.3403 0.2090 -0.9168
vn 0.4482 0.8469 -0.2861
vn 0.4087 0.2395 0.8807
vn 0.6325 -0.0484 -0.7731
vn 0.8456 0.3532 -0.4003
vn 0.8623 0.2030 -0.4639
vn 0.0633 0.4769 0.8767
vn 0.0760 0.3718 0.9252
vn 0.2267 0.6388 0.7352
vn 0.1818 0.7487 0.6374
vn 0.5752 0.7245 0.3797
vn 0.7223 0.6916 -0.0037
vn 0.4970 0.8161 0.2949
vn 0.8048 0.5899 0.0650
vn 0.6935 -0.0564 -0.7183
vn 0.6366 -0.1631 -0.7538
vn 0.8274 -0.1232 -0.5479
vn 0.4176 0.4165 -0.8075
vn 0.6462 0.4877 -0.5870
vn 0.6725 -0.0012 -0.7401
vn -0.4667 0.8838 0.0320
vn -0.7763 0.6195 0.1169
vn -0.3560 0.7581 0.5464
vn -0.1215 0.9415 -0.3143
vn -0.1060 0.9377 0.3308
vn 0.2170 0.9761 -0.0124
vn 0.4605 0.8320 -0.3095
vn 0.1327 0.7924 -0.5954
vn 0.0335 0.7175 -0.6958
vn 0.4287 0.2684 -0.8627
vn -0.2384 0.8816 -0.4073
vn -0.6010 0.7988 -0.0269
vn -0.8489 0.5220 0.0827
vn 0.4447 -0.0708 -0.8929
vn 0.9573 -0.0491 0.2850
vn 0.6892 0.3388 0.6405
vn 0.7568 0.1893 0.6256
vn -0.7667 0.4644 0.4433
vn -0.8029 0.3613 0.4741
vn -0.5775 0.6193 0.5319
vn -0.5039 0.7345 0.4546
vn -0.1191 0.6949 0.7092
vn 0.2811 0.6668 0.6902
vn -0.0713 0.7922 0.6061
vn 0.2487 0.5612 0.7894
vn 0.9287 -0.0560 0.3665
vn 0.9418 -0.1628 0.2941
vn 0.8141 -0.1256 0.5669
vn 0.9045 0.4219 0.0617
vn 0.7865 0.4886 0.3777
vn 0.9407 0.0007 0.3392
vn -0.2154 0.8786 -0.4261
vn -0.4057 0.6066 -0.6838
vn -0.6472 0.7566 -0.0928
vn 0.2334 0.9417 -0.2425
vn -0.3459 0.9370 0.0493
vn 0.0945 0.9725 0.2129
vn 0.4605 0.8283 0.3192
vn 0.5917 0.7973 -0.1192
vn 0.6453 0.7194 -0.2569
vn 0.9626 0.2641 0.0596
vn 0.2749 0.8774 -0.3931
vn -0.2114 0.7884 -0.5777
vn -0.4005 0.5092 -0.7618
vn 0.9967 -0.0705 0.0412
vn -0.9736 0.1318 0.1865
vn -0.8160 0.5726 -0.0788
vn -0.8807 0.4615 -0.1067
vn 0.6751 0.5018 -0.5408
vn 0.6860 0.3903 -0.6140
vn 0.4533 0.7416 -0.4945
vn -0.0071 0.9534 -0.3018
vn 0.4514 0.8021 -0.3910
vn -0.4154 0.8817 -0.2237
vn -0.0219 0.9126 -0.4082
vn -0.4581 0.8230 -0.3358
vn -0.9836 0.1367 0.1177
vn -0.9891 0.0202 0.1455
vn -0.9936 0.1074 -0.0349
vn -0.7483 0.5396 0.3858
vn -0.7587 0.6326 0.1555
vn -0.9722 0.1761 0.1542
vn 0.5600 0.7491 0.3540
vn 0.8108 0.4355 0.3910
vn 0.7661 0.6393 -0.0661
vn 0.0981 0.9020 0.4205
vn 0.4898 0.8718 -0.0093
vn 0.0346 0.9972 0.0659
vn -0.3676 0.9223 0.1192
vn -0.3170 0.8336 0.4524
vn -0.3272 0.7591 0.5628
vn -0.8047 0.4243 0.4152
vn 0.5899 0.6749 0.4433
vn 0.8398 0.3152 0.4420
vn 0.1133 0.8466 0.5201
vn -0.9405 0.0815 0.3300
s 1
f 1//1 3//2 2//3
f 4//4 6//5 5//6
f 7//7 8//8 5//6
f 9//9 7//7 10//10
f 3//2 9//9 11//11
f 12//12 14//13 13//14
f 15//15 17//16 16//17
f 18//18 20//19 19//20
f 21//21 18//18 22//22
f 21//21 24//23 23//24
f 25//25 23//24 17//16
f 19//20 4//4 8//8
f 17//16 23//24 9//9
f 16//17 14//13 12//12
f 26//26 25//25 15//15
f 23//24 24//23 7//7
f 16//17 17//16 3//2
f 27//27 15//15 12//12
f 22//22 8//8 7//7
f 1//1 14//13 16//17
f 28//28 18//18 21//21
f 28//28 29//29 20//19
f 30//30 21//21 25//25
f 31//31 14//13 1//1
f 32//32 34//33 33//34
f 35//35 37//36 36//37
f 38//38 39//39 36//37
f 40//40 38//38 41//41
f 34//33 40//40 42//42
f 43//43 45//44 44//45
f 46//46 48//47 47//48
f 49//49 51//50 50//51
f 52//52 49//49 53//53
f 52//52 55//54 54//55
f 56//56 54//55 48//47
f 50//51 35//35 39//39
f 48//47 54//55 40//40
f 47//48 45//44 43//43
f 57//57 56//56 46//46
f 54//55 55//54 38//38
f 47//48 48//47 34//33
f 58//58 46//46 43//43
f 53//53 39//39 38//38
f 32//32 45//44 47//48
f 59//59 49//49 52//52
f 59//59 60//60 51//50
f 61//61 52//52 56//56
f 62//62 45//44 32//32
f 63//63 65//64 64//65
f 66//66 68//67 67//68
f 69//69 67//68 70//70
f 71//71 72//72 70//70
f 65//64 71//71 73//73
f 74//74 76//75 75//76
f 77//77 79//78 78//79
f 80//80 82//81 81//82
f 83//83 80//80 84//84
f 83//83 86//85 85//86
f 87//87 85//86 79//78
f 81//82 66//66 69//69
f 79//78 85//86 71//71
f 78//79 76//75 74//74
f 88//88 87//87 77//77
f 85//86 86//85 72//72
f 78//79 79//78 65//64
f 89//89 77//77 74//74
f 84//84 69//69 72//72
f 63//63 76//75 78//79
f 90//90 91//91 80//80
f 91//91 92//92 82//81
f 90//90 83//83 87//87
f 93//93 76//75 63//63
f 94//94 96//95 95//96
f 97//97 99//98 98//99
f 100//100 98//99 101//101
f 102//102 103//103 101//101
f 96//95 102//102 104//104
f 105//105 107//106 106//107
f 108//108 110//109 109//110
f 111//111 113//112 112//113
f 114//114 111//111 115//115
f 114//114 117//116 116//117
f 118//118 116//117 110//109
f 112//113 97//97 100//100
f 110//109 116//117 102//102
f 109//110 107//106 105//105
f 119//119 118//118 108//108
f 116//117 117//116 103//103
f 109//110 110//109 96//95
f 120//120 108//108 105//105
f 115//115 100//100 103//103
f 94//94 107//106 109//110
f 121//121 122//122 111//111
f 122//122 123//123 113//112
f 121//121 114//114 118//118
f 124//124 107//106 94//94
f 125//125 127//126 126//127
f 128//128 130//129 129//130
f 131//131 132//132 129//130
f 133//133 131//131 134//134
f 127//126 133//133 135//135
f 136//136 138//137 137//138
f 139//139 141//140 140//141
f 142//142 144//143 143//144
f 145//145 142//142 146//146
f 145//145 148//147 147//148
f 149//149 147//148 141//140
f 143//144 128//128 132//132
f 141//140 147//148 133//133
f 140//141 138//137 136//136
f 150//150 149//149 139//139
f 147//148 148//147 131//131
f 140//141 141//140 127//126
f 151//151 139//139 136//136
f 146//146 132//132 131//131
f 125//125 138//137 140//141
f 152//152 142//142 145//145
f 152//152 153//153 144//143
f 154//154 145//145 149//149
f 155//155 138//137 125//125
f 1//1 2//3 31//31
f 4//4 5//6 8//8
f 7//7 5//6 10//10
f 9//9 10//10 11//11
f 3//2 11//11 2//3
f 15//15 16//17 12//12
f 18//18 19//20 22//22
f 21//21 22//22 24//23
f 21//21 23//24 25//25
f 25//25 17//16 15//15
f 19//20 8//8 22//22
f 17//16 9//9 3//2
f 26//26 15//15 27//27
f 23//24 7//7 9//9
f 16//17 3//2 1//1
f 27//27 12//12 13//14
f 22//22 7//7 24//23
f 28//28 21//21 30//30
f 28//28 20//19 18//18
f 30//30 25//25 26//26
f 32//32 33//34 62//62
f 35//35 36//37 39//39
f 38//38 36//37 41//41
f 40//40 41//41 42//42
f 34//33 42//42 33//34
f 46//46 47//48 43//43
f 49//49 50//51 53//53
f 52//52 53//53 55//54
f 52//52 54//55 56//56
f 56//56 48//47 46//46
f 50//51 39//39 53//53
f 48//47 40//40 34//33
f 57//57 46//46 58//58
f 54//55 38//38 40//40
f 47//48 34//33 32//32
f 58//58 43//43 44//45
f 53//53 38//38 55//54
f 59//59 52//52 61//61
f 59//59 51//50 49//49
f 61//61 56//56 57//57
f 63//63 64//65 93//93
f 66//66 67//68 69//69
f 69//69 70//70 72//72
f 71//71 70//70 73//73
f 65//64 73//73 64//65
f 77//77 78//79 74//74
f 80//80 81//82 84//84
f 83//83 84//84 86//85
f 83//83 85//86 87//87
f 87//87 79//78 77//77
f 81//82 69//69 84//84
f 79//78 71//71 65//64
f 88//88 77//77 89//89
f 85//86 72//72 71//71
f 78//79 65//64 63//63
f 89//89 74//74 75//76
f 84//84 72//72 86//85
f 90//90 80//80 83//83
f 91//91 82//81 80//80
f 90//90 87//87 88//88
f 94//94 95//96 124//124
f 97//97 98//99 100//100
f 100//100 101//101 103//103
f 102//102 101//101 104//104
f 96//95 104//104 95//96
f 108//108 109//110 105//105
f 111//111 112//113 115//115
f 114//114 115//115 117//116
f 114//114 116//117 118//118
f 118//118 110//109 108//108
f 112//113 100//100 115//115
f 110//109 102//102 96//95
f 119//119 108//108 120//120
f 116//117 103//103 102//102
f 109//110 96//95 94//94
f 120//120 105//105 106//107
f 115//115 103//103 117//116
f 121//121 111//111 114//114
f 122//122 113//112 111//111
f 121//121 118//118 119//119
f 125//125 126//127 155//155
f 128//128 129//130 132//132
f 131//131 129//130 134//134
f 133//133 134//134 135//135
f 127//126 135//135 126//127
f 139//139 140//141 136//136
f 142//142 143//144 146//146
f 145//145 146//146 148//147
f 145//145 147//148 149//149
f 149//149 141//140 139//139
f 143//144 132//132 146//146
f 141//140 133//133 127//126
f 150//150 139//139 151//151
f 147//148 131//131 133//133
f 140//141 127//126 125//125
f 151//151 136//136 137//138
f 146//146 131//131 148//147
f 152//152 145//145 154//154
f 152//152 144//143 142//142
f 154//154 149//149 150//150
