# Blender v2.78 (sub 0) OBJ File: 'Coconut_tree.blend'
# www.blender.org
o Plane.003
v 514.797058 387.895874 -146.842667
v 419.819031 581.895142 23.817265
v 479.503662 388.006073 -168.721786
v 369.771912 582.051331 -7.207911
v 554.629944 453.755859 -144.170120
v 553.861938 515.113403 -110.258003
v 523.178528 579.140381 -54.582813
v 485.281036 594.939880 -9.638731
v 459.690887 454.052246 -203.024704
v 429.936218 515.500244 -187.081985
v 394.007050 579.543579 -134.658722
v 370.680084 595.297607 -80.682083
v 481.440338 348.611023 -132.638245
v 502.603180 414.128143 -166.446411
v 401.808472 607.924622 -2.877403
v 435.047852 621.523987 -56.427841
v 465.364838 605.101074 -105.415146
v 498.710022 542.594849 -159.519363
v 513.498962 483.263947 -183.674393
v 413.028290 597.516724 9.836744
v 510.116486 404.308197 -156.849213
v 530.307556 532.794556 -134.110962
v 537.782776 473.454437 -164.344879
v 464.052338 611.574341 -32.587906
v 498.467041 595.300903 -79.198639
v 385.384064 597.602966 -7.300459
v 485.341949 473.618134 -196.853958
v 461.855682 533.008179 -176.545715
v 427.117523 595.523682 -123.429626
v 400.750946 611.771973 -71.829636
v 490.621643 404.369080 -168.934418
v 235.658890 558.356140 225.803284
v 373.452026 578.839172 -11.630602
v 270.810333 559.910828 247.855194
v 423.297821 581.043762 19.639784
v 219.180801 619.304016 181.699234
v 236.870667 646.352966 119.483559
v 281.777710 653.689880 41.572159
v 318.801208 628.246826 0.490221
v 313.738037 623.486023 241.018875
v 360.297974 651.811829 196.914612
v 410.429626 659.379944 122.280914
v 432.941223 633.295044 72.095062
v 253.196228 509.998688 240.354507
v 257.290894 585.668274 228.492676
v 401.100800 608.227173 -2.334661
v 378.699829 659.467163 29.760672
v 348.961670 684.378296 75.407852
v 301.904633 678.131104 150.858490
v 270.829285 651.430420 202.275772
v 386.085480 596.565857 -8.201096
v 246.222855 575.075562 225.286484
v 266.805237 666.047180 131.830750
v 243.134781 640.525391 189.098175
v 346.129028 647.355530 12.409985
v 312.375793 672.302673 55.539162
v 413.618469 597.783630 9.071514
v 295.364655 642.835449 221.864166
v 334.981873 669.062500 174.600845
v 383.438354 675.445679 100.119644
v 409.175751 650.143921 51.961823
v 265.639221 575.934326 237.467194
v 337.769012 497.294678 -189.156097
v 421.682495 586.845703 -7.321186
v 314.439392 493.092224 -179.066193
v 388.600403 580.886475 6.986609
v 354.837891 554.925964 -191.393768
v 378.147247 593.867188 -158.827881
v 405.653625 623.698853 -99.464981
v 421.946533 618.132629 -54.446419
v 292.081390 543.621338 -164.251923
v 296.229980 579.111084 -123.399155
v 320.268860 608.318115 -62.536613
v 346.193176 604.486816 -21.683548
v 334.096802 457.731873 -175.636917
v 324.079834 517.448853 -183.472763
v 402.075897 606.788208 -1.551868
v 380.995667 634.596313 -39.388008
v 360.042847 638.659912 -82.137901
v 334.336182 610.291077 -141.862320
v 321.042358 574.353943 -177.386505
v 412.306091 599.385193 -5.199802
v 331.408508 510.182465 -186.253494
v 358.111053 605.799683 -151.118820
v 339.067780 569.253723 -185.232361
v 403.070618 629.672485 -47.930775
v 384.738953 634.374268 -91.877296
v 394.032776 596.093506 2.703281
v 304.403412 563.009460 -170.240234
v 312.863037 597.648987 -131.549316
v 337.575562 625.878479 -71.479431
v 361.227234 622.135071 -29.833799
v 318.522064 507.861145 -180.680206
v 102.068398 446.397522 -33.034794
v 402.845276 580.641907 -29.961048
v 102.651054 439.698090 2.772873
v 403.671600 571.141846 20.815247
v 108.813385 533.039124 -55.339314
v 167.457993 591.529419 -65.033882
v 265.715820 636.251038 -64.164108
v 337.588287 627.848206 -58.085194
v 110.380821 515.017700 40.982994
v 169.504013 568.005737 60.697433
v 267.848419 611.731567 66.889359
v 339.480286 606.094604 58.185467
v 118.703644 386.956848 -20.823298
v 102.093063 476.372681 -11.830301
v 399.584534 610.214417 -1.144161
v 334.941040 651.839661 3.532190
v 263.536346 657.908508 4.747543
v 165.812820 615.407715 1.382252
v 108.825378 561.583191 -3.454502
v 400.402222 599.288757 -16.517727
v 102.445335 465.604553 -22.973051
v 166.638779 609.077148 -34.623985
v 108.301346 554.248230 -31.274757
v 335.779541 644.831787 -29.879591
v 264.221954 651.902710 -32.722618
v 400.858612 594.041260 11.529232
v 109.167107 544.293945 21.930122
v 167.768936 596.083496 34.825329
v 265.399963 638.358948 39.666451
v 336.824646 632.815857 34.344048
v 102.767189 461.903992 -3.194250
v 709.415649 486.668365 179.874847
v 384.390076 570.074097 33.723705
v 734.432556 490.545654 130.811523
v 419.864929 575.572205 -35.849518
v 663.561890 570.943726 215.650406
v 584.197571 618.534302 204.456299
v 477.683014 646.665527 156.985443
v 415.057159 624.999268 110.516991
v 730.857300 581.373596 83.670265
v 672.039490 632.148560 32.180252
v 569.243347 660.856079 -22.582907
v 496.289520 637.589172 -48.796177
v 718.407776 423.574921 148.411041
v 714.888855 525.302979 154.655930
v 398.166046 611.316284 -0.040831
v 451.514435 670.370728 31.827875
v 519.176697 691.720459 68.015411
v 622.896973 665.076599 118.795898
v 689.736511 617.609131 149.125656
v 390.323181 594.685181 18.976372
v 710.245178 510.252533 168.256790
v 600.099792 646.926819 165.984207
v 673.933289 601.210144 185.926483
v 430.613007 652.302856 75.456024
v 495.454224 673.489990 117.275780
v 409.918152 597.722107 -19.453325
v 711.104858 606.971191 113.025635
v 648.620544 654.446838 70.825348
v 546.028687 681.328308 18.088869
v 475.482788 659.257080 -12.542669
v 724.063721 512.394226 141.155991
vn 0.5107 -0.4028 -0.7596
vn 0.2820 -0.0681 -0.9570
vn 0.3113 0.0600 -0.9484
vn -0.6052 0.7916 0.0844
vn -0.4398 0.8782 -0.1876
vn -0.7004 0.7038 0.1182
vn -0.0695 0.8129 -0.5782
vn -0.3306 0.9268 -0.1782
vn 0.1170 0.5360 -0.8361
vn -0.1718 0.7725 -0.6113
vn 0.0144 0.4658 -0.8848
vn 0.4514 -0.4026 -0.7964
vn 0.3074 -0.4299 -0.8489
vn 0.4536 -0.5051 -0.7342
vn 0.7112 0.0587 -0.7005
vn 0.4900 -0.3637 -0.7922
vn 0.5222 0.1367 -0.8418
vn 0.3108 0.9248 0.2194
vn -0.1663 0.9475 0.2730
vn 0.1971 0.7891 0.5818
vn 0.5524 0.8110 -0.1926
vn 0.0245 0.9991 -0.0344
vn 0.4270 0.5893 -0.6858
vn 0.2660 0.8653 -0.4248
vn 0.6991 0.5342 -0.4751
vn 0.7881 0.4634 -0.4051
vn 0.7313 -0.0695 -0.6784
vn 0.3676 0.8757 0.3129
vn 0.2088 0.7010 0.6819
vn 0.6274 0.7700 -0.1158
vn 0.6216 -0.4309 -0.6541
vn -0.5472 0.2864 0.7864
vn -0.2068 0.5820 0.7864
vn -0.1937 0.6835 0.7037
vn 0.8191 0.3647 -0.4427
vn 0.7143 0.6373 -0.2891
vn 0.8777 0.2490 -0.4094
vn 0.3772 0.9258 0.0223
vn 0.6263 0.7028 -0.3373
vn 0.1337 0.9206 0.3668
vn 0.4634 0.8821 0.0845
vn 0.2119 0.8630 0.4585
vn -0.4882 0.2889 0.8235
vn -0.3569 0.2533 0.8991
vn -0.5287 0.1763 0.8303
vn -0.5921 0.6659 0.4538
vn -0.5123 0.3282 0.7936
vn -0.3768 0.7468 0.5480
vn -0.0125 0.6746 -0.7381
vn 0.4399 0.5125 -0.7374
vn 0.0201 0.3293 -0.9440
vn -0.2422 0.8984 -0.3662
vn 0.3028 0.7865 -0.5382
vn -0.1539 0.9721 0.1768
vn 0.0649 0.9828 -0.1728
vn -0.4461 0.8950 0.0031
vn -0.5587 0.8289 -0.0249
vn -0.6543 0.5622 0.5057
vn -0.0899 0.6017 -0.7936
vn -0.0279 0.2090 -0.9775
vn -0.3326 0.8469 -0.4149
vn -0.6698 0.2394 0.7028
vn -0.3507 -0.0484 -0.9352
vn -0.6677 0.2030 -0.7162
vn -0.6723 0.3532 -0.6506
vn -0.3414 0.4769 0.8099
vn -0.4508 0.6388 0.6234
vn -0.3690 0.3717 0.8518
vn -0.3769 0.7487 0.5453
vn -0.6667 0.7245 0.1748
vn -0.6829 0.6915 -0.2354
vn -0.5654 0.8161 0.1197
vn -0.7831 0.5899 -0.1969
vn -0.4261 -0.0564 -0.9029
vn -0.6076 -0.1232 -0.7846
vn -0.3608 -0.1631 -0.9182
vn -0.1362 0.4165 -0.8989
vn -0.3992 -0.0012 -0.9168
vn -0.4235 0.4877 -0.7634
vn 0.4317 0.8838 0.1802
vn 0.1617 0.7581 0.6317
vn 0.6977 0.6194 0.3599
vn 0.2159 0.9415 -0.2586
vn -0.0058 0.9377 0.3473
vn -0.3367 0.8320 -0.4409
vn -0.2015 0.9761 -0.0814
vn 0.0655 0.7924 -0.6065
vn 0.1917 0.7175 -0.6697
vn -0.1290 0.2684 -0.9546
vn 0.3565 0.8816 -0.3091
vn 0.5778 0.7988 0.1675
vn 0.7774 0.5220 0.3509
vn -0.1344 -0.0708 -0.9884
vn -0.9981 -0.0491 -0.0374
vn -0.9176 0.1893 0.3494
vn -0.8583 0.3388 0.3853
vn 0.5837 0.4644 0.6660
vn 0.3761 0.6193 0.6892
vn 0.6082 0.3613 0.7067
vn 0.3312 0.7345 0.5923
vn -0.1149 0.6949 0.7098
vn -0.4878 0.6668 0.5634
vn -0.1271 0.7922 0.5969
vn -0.4890 0.5611 0.6678
vn -0.9972 -0.0559 0.0489
vn -0.9530 -0.1256 0.2755
vn -0.9864 -0.1628 -0.0239
vn -0.8764 0.4219 -0.2320
vn -0.9998 0.0007 0.0192
vn -0.8661 0.4886 0.1052
vn 0.3408 0.8786 -0.3344
vn 0.6428 0.7566 0.1199
vn 0.6037 0.6065 -0.5173
vn -0.1432 0.9416 -0.3046
vn 0.3118 0.9369 0.1578
vn -0.5386 0.8283 0.1544
vn -0.1579 0.9725 0.1712
vn -0.5221 0.7973 -0.3029
vn -0.5286 0.7194 -0.4505
vn -0.9308 0.2641 -0.2527
vn -0.1341 0.8774 -0.4605
vn 0.3857 0.7884 -0.4792
vn 0.6239 0.5092 -0.5929
vn -0.9571 -0.0705 -0.2810
vn 0.8621 0.1318 0.4892
vn 0.8683 0.4614 0.1818
vn 0.7981 0.5726 0.1874
vn -0.4657 0.5018 -0.7289
vn -0.2705 0.7416 -0.6138
vn -0.4525 0.3903 -0.8018
vn 0.1036 0.9533 -0.2835
vn -0.3020 0.8021 -0.5152
vn 0.4653 0.8817 -0.0785
vn 0.1518 0.9126 -0.3796
vn 0.5416 0.8230 -0.1709
vn 0.8937 0.1367 0.4272
vn 0.9522 0.1074 0.2860
vn 0.8900 0.0201 0.4554
vn 0.5848 0.5396 0.6056
vn 0.8712 0.1761 0.4581
vn 0.6686 0.6326 0.3909
vn -0.6440 0.7491 0.1554
vn -0.7043 0.6393 -0.3086
vn -0.8934 0.4355 0.1099
vn -0.2279 0.9019 0.3667
vn -0.4609 0.8718 -0.1661
vn 0.3099 0.9223 0.2309
vn -0.0539 0.9972 0.0513
vn 0.1549 0.8336 0.5302
vn 0.1292 0.7591 0.6380
vn 0.6288 0.4243 0.6516
vn -0.7010 0.6749 0.2304
vn -0.9373 0.3152 0.1489
vn -0.2743 0.8466 0.4561
vn 0.7847 0.0814 0.6145
s 1
f 31//1 9//2 27//3
f 26//4 12//5 4//6
f 29//7 12//5 30//8
f 28//9 11//10 29//7
f 27//3 10//11 28//9
f 21//12 1//13 13//14
f 23//15 14//16 19//17
f 24//18 15//19 20//20
f 25//21 16//22 24//18
f 25//21 18//23 17//24
f 22//25 19//17 18//23
f 15//19 30//8 26//4
f 19//17 28//9 18//23
f 14//16 21//12 13//14
f 6//26 23//15 22//25
f 18//23 29//7 17//24
f 14//16 27//3 19//17
f 5//27 21//12 23//15
f 16//22 29//7 30//8
f 31//1 14//16 13//14
f 8//28 25//21 24//18
f 8//28 20//20 2//29
f 7//30 22//25 25//21
f 3//31 31//1 13//14
f 62//32 40//33 58//34
f 57//35 43//36 35//37
f 60//38 43//36 61//39
f 59//40 42//41 60//38
f 58//34 41//42 59//40
f 52//43 32//44 44//45
f 54//46 45//47 50//48
f 55//49 46//50 51//51
f 56//52 47//53 55//49
f 56//52 49//54 48//55
f 53//56 50//48 49//54
f 46//50 61//39 57//35
f 50//48 59//40 49//54
f 45//47 52//43 44//45
f 37//57 54//46 53//56
f 49//54 60//38 48//55
f 45//47 58//34 50//48
f 36//58 52//43 54//46
f 47//53 60//38 61//39
f 62//32 45//47 44//45
f 39//59 56//52 55//49
f 39//59 51//51 33//60
f 38//61 53//56 56//52
f 34//62 62//32 44//45
f 93//63 71//64 89//65
f 88//66 74//67 66//68
f 92//69 73//70 74//67
f 90//71 73//70 91//72
f 89//65 72//73 90//71
f 83//74 63//75 75//76
f 85//77 76//78 81//79
f 86//80 77//81 82//82
f 87//83 78//84 86//80
f 87//83 80//85 79//86
f 84//87 81//79 80//85
f 77//81 92//69 88//66
f 81//79 90//71 80//85
f 76//78 83//74 75//76
f 68//88 85//77 84//87
f 80//85 91//72 79//86
f 76//78 89//65 81//79
f 67//89 83//74 85//77
f 78//84 91//72 92//69
f 93//63 76//78 75//76
f 69//90 86//80 70//91
f 70//91 82//82 64//92
f 69//90 84//87 87//83
f 65//93 93//63 75//76
f 124//94 102//95 120//96
f 119//97 105//98 97//99
f 123//100 104//101 105//98
f 121//102 104//101 122//103
f 120//96 103//104 121//102
f 114//105 94//106 106//107
f 116//108 107//109 112//110
f 117//111 108//112 113//113
f 118//114 109//115 117//111
f 118//114 111//116 110//117
f 115//118 112//110 111//116
f 108//112 123//100 119//97
f 112//110 121//102 111//116
f 107//109 114//105 106//107
f 99//119 116//108 115//118
f 111//116 122//103 110//117
f 107//109 120//96 112//110
f 98//120 114//105 116//108
f 109//115 122//103 123//100
f 124//94 107//109 106//107
f 100//121 117//111 101//122
f 101//122 113//113 95//123
f 100//121 115//118 118//114
f 96//124 124//94 106//107
f 155//125 133//126 151//127
f 150//128 136//129 128//130
f 153//131 136//129 154//132
f 152//133 135//134 153//131
f 151//127 134//135 152//133
f 145//136 125//137 137//138
f 147//139 138//140 143//141
f 148//142 139//143 144//144
f 149//145 140//146 148//142
f 149//145 142//147 141//148
f 146//149 143//141 142//147
f 139//143 154//132 150//128
f 143//141 152//133 142//147
f 138//140 145//136 137//138
f 130//150 147//139 146//149
f 142//147 153//131 141//148
f 138//140 151//127 143//141
f 129//151 145//136 147//139
f 140//146 153//131 154//132
f 155//125 138//140 137//138
f 132//152 149//145 148//142
f 132//152 144//144 126//153
f 131//154 146//149 149//145
f 127//155 155//125 137//138
f 31//1 3//31 9//2
f 26//4 30//8 12//5
f 29//7 11//10 12//5
f 28//9 10//11 11//10
f 27//3 9//2 10//11
f 23//15 21//12 14//16
f 24//18 16//22 15//19
f 25//21 17//24 16//22
f 25//21 22//25 18//23
f 22//25 23//15 19//17
f 15//19 16//22 30//8
f 19//17 27//3 28//9
f 6//26 5//27 23//15
f 18//23 28//9 29//7
f 14//16 31//1 27//3
f 5//27 1//13 21//12
f 16//22 17//24 29//7
f 8//28 7//30 25//21
f 8//28 24//18 20//20
f 7//30 6//26 22//25
f 62//32 34//62 40//33
f 57//35 61//39 43//36
f 60//38 42//41 43//36
f 59//40 41//42 42//41
f 58//34 40//33 41//42
f 54//46 52//43 45//47
f 55//49 47//53 46//50
f 56//52 48//55 47//53
f 56//52 53//56 49//54
f 53//56 54//46 50//48
f 46//50 47//53 61//39
f 50//48 58//34 59//40
f 37//57 36//58 54//46
f 49//54 59//40 60//38
f 45//47 62//32 58//34
f 36//58 32//44 52//43
f 47//53 48//55 60//38
f 39//59 38//61 56//52
f 39//59 55//49 51//51
f 38//61 37//57 53//56
f 93//63 65//93 71//64
f 88//66 92//69 74//67
f 92//69 91//72 73//70
f 90//71 72//73 73//70
f 89//65 71//64 72//73
f 85//77 83//74 76//78
f 86//80 78//84 77//81
f 87//83 79//86 78//84
f 87//83 84//87 80//85
f 84//87 85//77 81//79
f 77//81 78//84 92//69
f 81//79 89//65 90//71
f 68//88 67//89 85//77
f 80//85 90//71 91//72
f 76//78 93//63 89//65
f 67//89 63//75 83//74
f 78//84 79//86 91//72
f 69//90 87//83 86//80
f 70//91 86//80 82//82
f 69//90 68//88 84//87
f 124//94 96//124 102//95
f 119//97 123//100 105//98
f 123//100 122//103 104//101
f 121//102 103//104 104//101
f 120//96 102//95 103//104
f 116//108 114//105 107//109
f 117//111 109//115 108//112
f 118//114 110//117 109//115
f 118//114 115//118 111//116
f 115//118 116//108 112//110
f 108//112 109//115 123//100
f 112//110 120//96 121//102
f 99//119 98//120 116//108
f 111//116 121//102 122//103
f 107//109 124//94 120//96
f 98//120 94//106 114//105
f 109//115 110//117 122//103
f 100//121 118//114 117//111
f 101//122 117//111 113//113
f 100//121 99//119 115//118
f 155//125 127//155 133//126
f 150//128 154//132 136//129
f 153//131 135//134 136//129
f 152//133 134//135 135//134
f 151//127 133//126 134//135
f 147//139 145//136 138//140
f 148//142 140//146 139//143
f 149//145 141//148 140//146
f 149//145 146//149 142//147
f 146//149 147//139 143//141
f 139//143 140//146 154//132
f 143//141 151//127 152//133
f 130//150 129//151 147//139
f 142//147 152//133 153//131
f 138//140 155//125 151//127
f 129//151 125//137 145//136
f 140//146 141//148 153//131
f 132//152 131//154 149//145
f 132//152 148//142 144//144
f 131//154 130//150 146//149
