# Blender v2.78 (sub 0) OBJ File: 'logo.blend'
# www.blender.org
o Plane
v -21.033609 3.567911 0.000000
v -20.316332 7.723420 -23.915434
v 21.033609 -3.567911 -0.000000
v -0.346829 -2.044634 11.761334
v 0.346829 2.044634 -11.761334
v 21.726812 0.591681 -23.915434
v -19.431530 13.012522 1.689131
v 1.255251 7.399977 13.450464
v 1.948909 11.489246 -10.072205
v -18.714251 17.168032 -22.226303
v 22.635689 5.876701 1.689130
v 23.328894 10.036293 -22.226303
vn -0.1647 -0.9709 -0.1736
vn 0.1647 0.9709 0.1736
vn 0.5190 0.0644 -0.8523
vn -0.5069 -0.0677 0.8593
vn 0.9859 -0.1672 -0.0005
vn 0.4562 -0.2311 0.8593
vn -0.9859 0.1673 -0.0005
vn -0.4688 0.2320 -0.8523
s off
f 1//1 5//1 4//1
f 1//1 2//1 5//1
f 3//1 4//1 5//1
f 3//1 5//1 6//1
f 7//2 8//2 9//2
f 7//2 9//2 10//2
f 11//2 9//2 8//2
f 11//2 12//2 9//2
f 5//3 10//3 9//3
f 4//4 7//4 1//4
f 6//5 11//5 3//5
f 3//6 8//6 4//6
f 1//7 10//7 2//7
f 5//8 12//8 6//8
f 5//3 2//3 10//3
f 4//4 8//4 7//4
f 6//5 12//5 11//5
f 3//6 11//6 8//6
f 1//7 7//7 10//7
f 5//8 9//8 12//8
