# Blender v2.78 (sub 0) OBJ File: 'Coconut_tree.blend'
# www.blender.org
o Sphere.001_Sphere.002
v 9.618267 17.372377 -370.719116
v 59.821545 54.766598 -189.963837
v 27.415995 51.177467 -237.628250
v 265.760437 0.098250 -298.570892
v 183.237579 57.635246 -107.251968
v 333.654968 30.603148 7.649414
v 338.464508 0.116792 212.833618
v 225.315735 53.378925 129.446274
v 275.749420 -0.062724 286.463104
v 230.222992 28.763594 248.620636
v 61.583496 0.171102 396.017670
v -45.053478 13.871305 373.621033
v -89.474640 30.878042 352.537537
v -123.178658 0.024574 379.780884
v -29.610645 67.973434 161.531143
v -120.903229 48.061253 253.441910
v -213.934158 42.349045 188.179855
v -261.735413 34.519470 182.626343
v -332.565765 29.721090 -49.717255
v -374.304993 -0.038924 -137.823502
v -217.924210 45.011105 -220.392014
v -280.185852 0.083955 -284.520996
v -88.272217 51.881985 -303.174866
v -12.653725 46.239578 -327.364685
v 115.620461 17.073044 -351.727386
v 193.760376 14.729782 -323.142792
v 224.664230 28.221443 -258.353760
v 261.649597 32.580654 -210.700058
v 305.585327 34.938244 -84.787827
v 73.585808 71.245575 -43.941551
v 265.435638 50.910412 -155.776627
v 349.272064 22.848650 95.644966
v 216.011978 52.958351 39.795650
v 140.498871 78.841530 52.014263
v 139.006012 74.233040 149.090073
v 180.484314 18.896217 319.402832
v 50.970894 52.471939 212.282104
v -34.214520 56.648537 230.472351
v -78.717949 70.662407 71.166107
v -137.210159 72.233688 60.255951
v -226.063675 47.791843 121.224976
v -358.867004 8.946410 141.505325
v -143.683578 71.196884 22.067673
v -265.818573 44.297596 -57.801365
v -127.909218 58.476501 -107.246605
v -89.647415 67.278809 -144.338028
v 73.651703 0.030619 -392.476593
v 182.881180 43.617931 -216.600937
v 397.807526 -0.040973 -0.841302
v 141.215546 14.772931 349.008759
v 171.625076 -0.030794 360.359009
v 11.845978 71.489693 164.342590
v -153.178131 35.973602 329.016693
v -133.160095 12.166819 360.126801
v -214.777237 0.081609 337.395325
v -280.729706 0.066294 284.230316
v -180.086807 61.095020 66.695740
v -319.151123 29.869892 105.908035
v -375.466064 15.593131 13.463706
v -398.706787 0.009704 11.174984
v -365.960083 12.164244 -106.156143
v -313.192688 29.753990 -124.080956
v -78.186485 61.364048 -223.267410
v 172.031754 68.477272 -25.461262
v -48.634434 68.523964 -24.324612
v 9.409476 80.300369 -72.967567
v 88.574753 36.799072 -300.456360
v 52.616913 29.053434 -335.881927
v 106.473686 55.733894 -265.015900
v 49.994053 90.940392 -74.216255
v 75.767693 59.592846 -126.251076
v 149.031708 33.423660 -285.709442
v 182.982819 -0.114876 -351.811005
v 106.722305 60.836342 -95.476540
v 145.553635 53.291969 -170.179596
v 309.157013 13.920627 -216.684387
v 335.181030 0.078276 -217.443298
v 147.082642 70.843857 -65.349342
v 293.716064 31.309931 -153.478058
v 348.719055 21.411720 -97.249771
v 62.890511 96.881912 -43.858383
v 240.325897 49.138390 -48.952076
v 387.632202 0.064995 -98.995605
v 122.715271 86.321037 -23.088213
v 248.983078 48.324749 2.726188
v 378.820007 13.586269 4.893958
v 71.685799 93.807976 0.508918
v 297.280060 46.521774 91.941978
v 275.585541 31.333286 181.126144
v 366.326294 10.001235 114.421806
v 381.917786 0.031580 115.461433
v 75.540199 86.837296 54.063000
v 164.150482 78.517731 89.482864
v 304.400543 18.123579 210.463760
v 168.540863 51.271061 157.521408
v 265.248657 9.472340 281.031097
v 61.796368 74.035782 136.165146
v 129.237869 48.638508 210.631042
v 204.049652 38.614433 223.049332
v 124.861931 33.615189 296.001587
v 26.248827 80.597153 69.886208
v 46.522488 43.863319 273.909302
v 71.656631 24.708393 343.511017
v -8.795621 73.398422 68.456818
v 21.450193 25.641108 351.337708
v -12.107494 0.049346 398.486786
v -49.333553 42.623993 311.618134
v -28.421631 66.989243 81.168343
v -95.042381 57.997044 138.507965
v 7.105595 98.720673 -17.841759
v -28.794353 94.770699 21.089264
v -130.897873 48.698803 209.854340
v -180.021240 35.230110 257.239136
v -162.573212 51.268578 162.415710
v -241.334885 15.494967 287.029938
v -162.093399 57.283638 109.232819
v -280.393921 53.572815 81.633339
v -318.415863 14.782053 200.831985
v -351.491852 -0.005753 187.590042
v -67.490250 78.720406 20.798199
v -315.605835 51.134918 32.130367
v -385.748260 0.023912 99.403076
v -210.101151 54.510803 -4.968687
v -144.776215 59.596737 -46.456749
v -207.575058 51.979080 -86.400307
v -264.109283 52.641834 -166.732101
v -296.700073 21.168797 -208.891937
v -319.734436 0.006392 -237.007782
v -218.807266 33.230488 -272.947845
v -46.830627 68.562447 -58.911983
v -145.051514 58.479172 -183.105652
v -195.022003 12.896385 -324.951935
v -171.214966 -0.005999 -360.812744
v -14.841259 76.101105 -82.077568
v -154.893219 51.264877 -258.577240
v -149.515396 27.538567 -305.646271
v -32.610657 70.743408 -158.045654
v -83.655594 20.511311 -354.583038
v -82.848511 0.106416 -390.432129
v 17.600729 63.024475 -141.306854
v -5.529217 0.083055 -399.333588
vn 0.1208 0.9868 -0.1082
vn -0.1865 0.9026 -0.3881
vn -0.2230 0.7822 -0.5817
vn -0.2497 0.9152 -0.3163
vn 0.0367 0.9957 -0.0846
vn 0.0124 0.9997 0.0206
vn 0.0403 0.9842 -0.1727
vn 0.1671 0.5690 -0.8052
vn 0.5972 0.7980 0.0811
vn 0.4341 0.8770 0.2058
vn 0.0396 0.9912 0.1262
vn 0.1198 0.9905 -0.0671
vn -0.0276 0.9884 0.1495
vn 0.1104 0.9853 0.1305
vn 0.2366 0.9257 0.2953
vn 0.1553 0.9597 0.2344
vn 0.1834 0.8070 0.5613
vn 0.0571 0.9675 0.2462
vn 0.0561 0.9681 0.2443
vn 0.1083 0.9512 0.2889
vn -0.0977 0.8092 0.5793
vn -0.0184 0.9657 0.2591
vn -0.1135 0.9816 0.1537
vn -0.0552 0.9856 0.1600
vn -0.4613 0.5361 0.7070
vn -0.3545 0.8253 0.4395
vn -0.0824 0.9829 0.1649
vn -0.0646 0.9932 0.0970
vn -0.0963 0.9842 0.1487
vn -0.0593 0.9920 0.1117
vn -0.4977 0.7874 0.3638
vn -0.0984 0.9951 -0.0103
vn -0.3933 0.9141 0.0984
vn -0.4578 0.8828 0.1052
vn -0.2496 0.9682 0.0156
vn -0.3872 0.9202 -0.0571
vn -0.6654 0.7384 -0.1092
vn -0.0992 0.9609 -0.2586
vn -0.0990 0.9945 -0.0340
vn -0.3420 0.9355 -0.0887
vn -0.5449 0.8170 -0.1887
vn -0.3615 0.9180 -0.1632
vn -0.0759 0.9760 -0.2041
vn -0.3471 0.8086 -0.4750
vn -0.4741 0.8802 -0.0237
vn 0.2189 0.8945 -0.3898
vn -0.0444 0.9470 -0.3183
vn 0.1876 0.9758 -0.1127
vn 0.0688 0.9796 -0.1889
vn 0.1872 0.9027 -0.3873
vn 0.1622 0.8578 -0.4878
vn 0.0834 0.9919 -0.0960
vn 0.0302 0.9958 -0.0868
vn 0.3415 0.9242 -0.1708
vn 0.3411 0.9243 -0.1710
vn 0.1057 0.9935 0.0413
vn 0.3486 0.9352 -0.0620
vn 0.5704 0.8193 -0.0582
vn 0.3247 0.8394 0.4358
vn 0.2092 0.9734 -0.0936
vn 0.2934 0.9395 -0.1771
vn 0.4449 0.8698 0.2133
vn 0.0514 0.9886 0.1418
vn 0.1251 0.9464 0.2978
vn 0.0790 0.9865 0.1435
vn -0.2033 0.9771 0.0632
vn -0.0939 0.9834 0.1553
vn -0.1306 0.6190 0.7745
vn 0.2312 0.8836 0.4072
vn -0.2075 0.9759 0.0675
vn -0.3981 0.6762 0.6199
vn -0.1159 0.9871 0.1106
vn -0.1800 0.9656 0.1879
vn -0.3652 0.8745 0.3193
vn -0.3371 0.8211 -0.4607
vn -0.1000 0.7576 0.6450
vn -0.2492 0.9683 0.0159
vn -0.0433 0.9784 0.2022
vn -0.5465 0.8113 0.2076
vn 0.4602 0.8638 -0.2052
vn -0.2322 0.9517 -0.2009
vn -0.0927 0.9947 -0.0440
vn -0.1477 0.9884 -0.0353
vn -0.4394 0.8710 -0.2199
vn -0.1443 0.8769 -0.4585
vn -0.1540 0.9276 -0.3405
vn -0.1760 0.8832 -0.4346
vn -0.1656 0.8555 -0.4907
vn -0.0727 0.8125 -0.5784
vn -0.0722 0.9649 -0.2526
vn 0.0605 0.9914 -0.1158
vn 0.0739 0.9145 -0.3978
vn 0.2058 0.8092 -0.5504
vn 0.1888 0.9806 -0.0525
vn 0.1759 0.8286 -0.5315
vn 0.1395 0.9424 -0.3040
vn 0.3266 0.8724 -0.3638
vn 0.1435 0.9665 -0.2128
vn 0.1649 0.9469 -0.2759
vn 0.3156 0.8876 -0.3354
vn 0.5602 0.7734 -0.2967
vn 0.3105 0.8941 -0.3228
vn 0.4286 0.8258 -0.3665
vn 0.4448 0.8686 0.2185
vn 0.0285 0.9959 -0.0858
vn -0.4210 -0.1727 -0.8905
vn -0.0073 0.9519 -0.3064
vn 0.1545 0.9234 0.3514
vn 0.5716 0.8082 -0.1415
vn 0.2720 0.9573 -0.0976
vn 0.0192 0.9987 0.0472
vn 0.2416 0.9656 -0.0959
vn 0.2512 0.9650 0.0751
vn 0.3476 0.1480 -0.9259
vn 0.2631 0.9643 -0.0289
vn 0.2041 0.9788 -0.0161
vn 0.2955 0.9552 -0.0139
vn 0.4771 0.8758 -0.0735
vn 0.0595 0.9966 0.0572
vn 0.1615 0.9862 0.0363
vn 0.3536 0.9352 0.0197
vn 0.5342 0.8408 0.0881
vn 0.2364 0.9711 -0.0337
vn 0.4055 0.9129 -0.0464
vn 0.1009 0.9943 -0.0345
vn 0.2824 0.9476 0.1493
vn 0.1437 0.9219 0.3599
vn 0.2015 0.9563 0.2119
vn 0.0454 0.9851 0.1657
vn 0.2142 0.9562 0.1995
vn 0.1977 0.9655 0.1696
vn 0.4847 0.7701 0.4147
vn 0.0554 0.9940 0.0948
vn 0.3222 0.8309 0.4537
vn 0.1372 0.9633 0.2307
vn 0.0528 0.9588 0.2791
vn 0.1017 0.9789 0.1775
vn 0.2494 0.8574 0.4502
vn -0.0549 0.9754 0.2135
vn -0.0798 0.9869 0.1405
vn 0.0934 0.8950 0.4362
vn 0.0037 0.9953 0.0965
vn 0.1113 0.9467 0.3022
vn 0.0094 0.8723 0.4888
vn 0.0143 0.8819 0.4712
vn -0.2047 0.9488 0.2407
vn -0.0870 0.9955 0.0386
vn 0.0481 0.9466 0.3189
vn -0.0397 0.9892 0.1413
vn 0.0698 0.8700 -0.4881
vn -0.3199 0.9473 -0.0163
vn -0.1458 0.9892 -0.0143
vn -0.0893 0.9954 0.0350
vn -0.2079 0.9762 0.0619
vn -0.1704 0.9135 0.3694
vn -0.3610 0.9285 0.0871
vn -0.1270 0.9865 0.1032
vn -0.2565 0.9408 0.2215
vn -0.3694 0.8951 -0.2498
vn -0.0487 0.9181 0.3934
vn -0.0989 0.9865 0.1302
vn -0.3926 0.8878 0.2400
vn -0.3526 0.9237 0.1496
vn -0.6276 0.7393 0.2440
vn -0.0722 0.9907 -0.1153
vn -0.1781 0.9707 -0.1615
vn -0.4763 0.8698 -0.1289
vn -0.4114 0.8369 -0.3610
vn -0.0533 0.9847 -0.1658
vn -0.2196 0.9739 -0.0568
vn -0.4658 0.8471 -0.2559
vn -0.0829 0.9957 -0.0414
vn -0.0768 0.9969 0.0174
vn -0.3107 0.9286 -0.2029
vn -0.1437 0.9867 -0.0756
vn -0.3629 0.7737 -0.5193
vn -0.1621 0.9845 0.0664
vn -0.6313 0.7127 0.3057
vn -0.0733 0.9959 -0.0531
vn -0.0810 0.9930 -0.0862
vn -0.3128 0.8333 -0.4558
vn -0.1182 0.9053 -0.4080
vn -0.2982 0.8026 -0.5166
vn -0.0810 0.9909 -0.1074
vn -0.0566 0.8675 -0.4942
vn 0.2078 0.9761 -0.0635
vn 0.2119 0.8330 -0.5110
vn 0.1166 0.9661 -0.2303
vn -0.0676 0.9973 -0.0292
vn 0.1018 0.9453 -0.3100
vn 0.1255 0.9463 -0.2979
vn 0.3282 0.8980 -0.2932
vn 0.0396 0.9960 -0.0800
vn 0.3388 0.7774 -0.5299
vn 0.2888 0.9071 -0.3062
vn 0.1509 0.9669 -0.2056
vn 0.1550 0.9338 -0.3223
vn -0.0940 0.9919 -0.0853
vn 0.2413 0.9659 -0.0936
vn 0.2254 0.9711 0.0791
vn 0.2059 0.9784 -0.0191
vn 0.3251 0.9457 0.0058
vn 0.0877 0.9960 -0.0138
vn 0.4140 0.9103 0.0067
vn 0.3872 0.8887 0.2455
vn 0.5320 0.8417 0.0927
vn 0.5136 0.8271 0.2285
vn 0.1250 0.9850 0.1192
vn 0.5368 0.7946 0.2836
vn 0.2371 0.9516 0.1956
vn 0.2679 0.9271 0.2623
vn 0.4216 0.8418 0.3371
vn 0.3497 0.7239 0.5947
vn -0.0650 0.9250 0.3744
vn 0.4886 0.7754 0.4000
vn 0.0785 0.9811 0.1767
vn 0.1126 0.9517 0.2856
vn 0.0879 0.9629 0.2551
vn 0.0845 0.8964 0.4351
vn 0.0583 0.9818 0.1806
vn 0.0449 0.8217 0.5681
vn -0.1904 0.7167 0.6709
vn -0.1016 0.8224 0.5597
vn -0.1660 0.9851 0.0450
vn -0.2656 0.9599 0.0894
vn -0.2036 0.9554 0.2139
vn -0.1324 0.9810 0.1416
vn -0.1732 0.9786 0.1109
vn -0.2809 0.9475 0.1528
vn -0.4748 0.8466 0.2404
vn -0.1198 0.9830 0.1388
vn -0.0352 0.9808 0.1916
vn -0.3946 0.8878 0.2369
vn -0.5606 0.8240 0.0822
vn -0.0394 0.9990 -0.0212
vn -0.0830 0.9949 -0.0566
vn -0.5510 0.8317 -0.0676
vn -0.0943 0.9927 0.0746
vn -0.3748 0.9248 0.0650
vn -0.1204 0.9927 -0.0052
vn -0.0436 0.9983 0.0389
vn -0.3185 0.8610 -0.3966
vn -0.4008 0.8561 -0.3262
vn -0.3928 0.8601 -0.3256
vn -0.2216 0.9523 -0.2097
vn -0.1853 0.9818 0.0419
vn 0.1841 0.9776 -0.1015
vn 0.0781 0.9888 -0.1272
vn 0.0497 0.9958 -0.0770
vn -0.1049 0.8447 -0.5249
vn -0.0564 0.8671 -0.4948
s off
f 3//1 67//1 24//1
f 3//2 69//2 67//2
f 70//3 71//3 66//3
f 66//4 110//4 70//4
f 2//5 71//5 75//5
f 75//6 69//6 2//6
f 75//7 31//7 48//7
f 84//8 64//8 30//8
f 86//9 91//9 49//9
f 94//10 90//10 32//10
f 110//11 92//11 87//11
f 34//12 92//12 93//12
f 92//13 97//13 35//13
f 98//14 99//14 95//14
f 10//15 36//15 96//15
f 100//16 36//16 99//16
f 50//17 11//17 51//17
f 100//18 102//18 105//18
f 105//19 103//19 100//19
f 52//20 38//20 37//20
f 12//21 14//21 106//21
f 53//22 13//22 107//22
f 15//23 112//23 38//23
f 16//24 107//24 38//24
f 53//25 115//25 54//25
f 55//26 115//26 56//26
f 39//27 116//27 109//27
f 114//28 112//28 109//28
f 114//29 17//29 113//29
f 116//30 114//30 109//30
f 118//31 119//31 56//31
f 43//32 40//32 120//32
f 58//33 59//33 42//33
f 42//34 59//34 122//34
f 43//35 123//35 57//35
f 19//36 61//36 59//36
f 61//37 20//37 60//37
f 65//38 43//38 120//38
f 125//39 123//39 124//39
f 62//40 61//40 19//40
f 126//41 127//41 62//41
f 61//42 62//42 127//42
f 21//43 126//43 131//43
f 129//44 132//44 22//44
f 65//45 110//45 130//45
f 110//46 134//46 46//46
f 110//47 66//47 134//47
f 140//48 137//48 134//48
f 137//49 3//49 63//49
f 24//50 67//50 68//50
f 1//51 24//51 68//51
f 2//52 140//52 71//52
f 75//53 5//53 31//53
f 28//54 79//54 76//54
f 80//55 76//55 79//55
f 31//56 5//56 82//56
f 86//57 29//57 6//57
f 86//58 49//58 83//58
f 64//59 84//59 87//59
f 6//60 85//60 88//60
f 93//61 33//61 34//61
f 7//62 90//62 94//62
f 98//63 37//63 102//63
f 36//64 100//64 50//64
f 37//65 38//65 102//65
f 101//66 104//66 52//66
f 15//67 38//67 52//67
f 54//68 12//68 13//68
f 109//69 108//69 111//69
f 16//70 113//70 53//70
f 54//71 115//71 14//71
f 114//72 116//72 17//72
f 18//73 113//73 17//73
f 56//74 115//74 118//74
f 40//75 111//75 120//75
f 57//76 39//76 40//76
f 40//77 43//77 57//77
f 117//78 41//78 57//78
f 58//79 121//79 59//79
f 83//80 77//80 76//80 80//80
f 121//81 44//81 19//81
f 45//82 125//82 124//82
f 44//83 123//83 125//83
f 127//84 20//84 61//84
f 129//85 135//85 136//85
f 138//86 132//86 136//86
f 133//87 132//87 138//87
f 138//88 139//88 133//88
f 138//89 24//89 1//89
f 134//90 66//90 140//90
f 3//91 140//91 2//91
f 1//92 68//92 25//92
f 25//93 73//93 47//93
f 69//94 75//94 48//94
f 67//95 69//95 72//95
f 25//96 72//96 26//96
f 71//97 70//97 74//97
f 72//98 48//98 27//98
f 26//99 72//99 27//99
f 27//100 76//100 26//100
f 28//101 31//101 79//101
f 27//102 28//102 76//102
f 4//103 76//103 77//103
f 70//104 110//104 30//104
f 75//105 74//105 5//105
f 30//106 110//106 81//106
f 74//107 78//107 5//107
f 111//108 108//108 104//108 110//108
f 79//109 31//109 29//109
f 29//110 80//110 79//110
f 78//111 30//111 64//111
f 5//112 78//112 82//112
f 82//113 29//113 31//113
f 30//114 81//114 84//114
f 64//115 85//115 82//115
f 29//116 82//116 6//116
f 80//117 29//117 86//117
f 80//118 86//118 83//118
f 81//119 110//119 87//119
f 81//120 87//120 84//120
f 86//121 6//121 32//121
f 86//122 32//122 91//122
f 64//123 87//123 34//123
f 93//124 8//124 33//124
f 85//125 33//125 88//125
f 32//126 89//126 94//126
f 8//127 93//127 95//127
f 8//128 89//128 88//128
f 8//129 95//129 99//129
f 8//130 99//130 89//130
f 99//131 10//131 89//131
f 7//132 96//132 9//132
f 92//133 35//133 93//133
f 9//134 36//134 51//134
f 99//135 36//135 10//135
f 97//136 37//136 98//136
f 98//137 100//137 99//137
f 36//138 50//138 51//138
f 92//139 110//139 101//139
f 92//140 101//140 97//140
f 50//141 103//141 11//141
f 97//142 101//142 52//142
f 50//143 100//143 103//143
f 11//144 105//144 12//144
f 11//145 12//145 106//145
f 101//146 110//146 104//146
f 52//147 104//147 15//147
f 107//148 13//148 105//148
f 107//149 16//149 53//149
f 47//150 141//150 1//150 25//150
f 15//151 104//151 108//151
f 15//152 108//152 109//152
f 38//153 112//153 16//153
f 16//154 112//154 113//154
f 55//155 14//155 115//155
f 109//156 111//156 39//156
f 17//157 116//157 41//157
f 115//158 18//158 118//158
f 111//159 110//159 120//159
f 39//160 111//160 40//160
f 116//161 39//161 57//161
f 18//162 117//162 58//162
f 58//163 42//163 118//163
f 122//164 119//164 42//164
f 121//165 123//165 44//165
f 123//166 43//166 124//166
f 59//167 121//167 19//167
f 120//168 110//168 65//168
f 43//169 65//169 124//169
f 19//170 44//170 62//170
f 20//171 127//171 128//171
f 124//172 65//172 45//172
f 45//173 131//173 125//173
f 21//174 129//174 127//174
f 21//175 131//175 135//175
f 22//176 132//176 133//176
f 45//177 130//177 46//177
f 110//178 46//178 130//178
f 46//179 134//179 137//179
f 46//180 137//180 63//180
f 136//181 135//181 23//181
f 129//182 136//182 132//182
f 23//183 138//183 136//183
f 63//184 23//184 135//184
f 141//185 139//185 1//185
f 30//186 78//186 74//186 70//186
f 26//187 73//187 25//187
f 140//188 66//188 71//188
f 3//189 2//189 69//189
f 25//190 68//190 67//190
f 25//191 67//191 72//191
f 72//192 69//192 48//192
f 75//193 71//193 74//193
f 4//194 73//194 26//194
f 26//195 76//195 4//195
f 28//196 27//196 48//196
f 28//197 48//197 31//197
f 131//198 46//198 63//198 135//198
f 64//199 82//199 78//199
f 33//200 85//200 64//200
f 6//201 82//201 85//201
f 33//202 64//202 34//202
f 8//203 88//203 33//203
f 32//204 6//204 88//204
f 32//205 88//205 89//205
f 90//206 91//206 32//206
f 7//207 91//207 90//207
f 34//208 87//208 92//208
f 35//209 95//209 93//209
f 94//210 89//210 10//210
f 10//211 96//211 94//211
f 94//212 96//212 7//212
f 96//213 36//213 9//213
f 97//214 98//214 35//214
f 95//215 35//215 98//215
f 102//216 100//216 98//216
f 37//217 97//217 52//217
f 107//218 105//218 102//218
f 103//219 105//219 11//219
f 38//220 107//220 102//220
f 12//221 105//221 13//221
f 53//222 54//222 13//222
f 54//223 14//223 12//223
f 109//224 112//224 15//224
f 115//225 53//225 113//225
f 115//226 113//226 18//226
f 114//227 113//227 112//227
f 17//228 41//228 18//228
f 118//229 18//229 58//229
f 42//230 119//230 118//230
f 41//231 116//231 57//231
f 41//232 117//232 18//232
f 117//233 121//233 58//233
f 60//234 122//234 59//234
f 123//235 121//235 117//235
f 117//236 57//236 123//236
f 61//237 60//237 59//237
f 125//238 126//238 44//238
f 62//239 44//239 126//239
f 45//240 65//240 130//240
f 131//241 126//241 125//241
f 21//242 127//242 126//242
f 129//243 22//243 127//243
f 22//244 128//244 127//244
f 135//245 129//245 21//245
f 46//246 131//246 45//246
f 140//247 3//247 137//247
f 3//248 23//248 63//248
f 3//249 24//249 23//249
f 24//250 138//250 23//250
f 1//251 139//251 138//251
