# Blender v2.78 (sub 0) OBJ File: 'glass cup.blend'
# www.blender.org
o Cylinder
v 47.367798 1340.843262 -92.560883
v -887.984741 2871.844238 -92.560921
v 89.398071 1366.521484 -72.159393
v -845.954468 2897.522461 -72.159431
v 106.807617 1377.157593 -22.905834
v -828.544800 2908.158691 -22.905869
v 89.398071 1366.521484 26.347710
v -845.954468 2897.522461 26.347675
v 47.367798 1340.843262 46.749199
v -887.984741 2871.844238 46.749161
v 5.337402 1315.165283 26.347694
v -930.015015 2846.166504 26.347660
v -12.072144 1304.529053 -22.905846
v -947.424561 2835.530273 -22.905880
v 5.337402 1315.165283 -72.159393
v -930.015015 2846.166504 -72.159431
vn 0.0000 0.0000 -1.0000
vn 0.6034 0.3686 -0.7071
vn 0.8533 0.5213 0.0000
vn 0.6034 0.3686 0.7071
vn 0.0000 0.0000 1.0000
vn -0.6034 -0.3686 0.7071
vn -0.8533 -0.5213 0.0000
vn -0.6034 -0.3686 -0.7071
s 1
f 2//1 3//2 1//1
f 4//2 5//3 3//2
f 6//3 7//4 5//3
f 8//4 9//5 7//4
f 10//5 11//6 9//5
f 12//6 13//7 11//6
f 14//7 15//8 13//7
f 16//8 1//1 15//8
f 2//1 4//2 3//2
f 4//2 6//3 5//3
f 6//3 8//4 7//4
f 8//4 10//5 9//5
f 10//5 12//6 11//6
f 12//6 14//7 13//7
f 14//7 16//8 15//8
f 16//8 2//1 1//1
