# Blender v2.78 (sub 0) OBJ File: 'Coconut_tree.blend'
# www.blender.org
o Plane_Plane.013
v 121.978645 -39.480343 -0.010127
v 262.686951 16.403557 -2.044913
v -138.549332 504.962341 -26.010899
v -75.978470 538.348999 -21.049438
v -93.693901 -39.758537 0.000002
v 84.125572 -47.694382 0.288953
v -245.840454 478.864807 -18.883568
v -182.503815 477.641052 -23.819122
v 291.413544 36.082176 -2.761426
v 390.864105 146.326630 -6.775529
v -47.127666 547.685486 -27.566492
v 3.491951 597.340698 -23.197378
vn -0.0832 0.0078 0.9965
vn 0.0787 0.0593 0.9951
vn -0.0077 0.0433 0.9990
vn -0.0000 0.0364 0.9993
vn 0.0004 0.0461 0.9989
vn -0.0661 -0.0204 0.9976
s off
f 1//1 4//1 3//1
f 5//2 8//2 7//2
f 10//3 11//3 9//3
f 1//4 2//4 4//4
f 5//5 6//5 8//5
f 10//6 12//6 11//6
