# Blender v2.78 (sub 0) OBJ File: 'Island lp.blend'
# www.blender.org
o Cylinder.005_Cylinder.006
v -0.000003 -335.624939 -266.591705
v 397.095306 762.879517 -89.206810
v 188.508804 -335.624939 -188.508804
v 460.174042 762.879517 -63.078758
v 266.591705 -335.624939 0.000012
v 486.302124 762.879517 0.000004
v 188.508804 -335.624939 188.508804
v 460.174042 762.879517 63.078758
v -0.000027 -335.624939 266.591705
v 397.095306 762.879517 89.206810
v -188.508835 -335.624939 188.508759
v 334.016571 762.879517 63.078724
v -266.591736 -335.624939 -0.000003
v 307.888519 762.879517 -0.000001
v -188.508835 -335.624939 -188.508759
v 334.016571 762.879517 -63.078724
v -0.000008 286.511902 -159.191284
v 112.565216 286.511902 -112.565224
v 159.191254 286.511902 0.000009
v 112.565216 286.511902 112.565239
v -0.000022 286.511902 159.191284
v -112.565254 286.511902 112.565201
v -159.191299 286.511902 0.000000
v -112.565254 286.511902 -112.565201
v 135.083847 -24.556536 -135.083862
v 191.037415 -24.556536 0.000009
v 135.083847 -24.556536 135.083862
v -0.000032 -24.556536 191.037445
v -135.083908 -24.556536 135.083832
v -191.037460 -24.556536 -0.000002
v -135.083908 -24.556536 -135.083832
v -0.000015 -24.556536 -191.037445
v 111.609955 420.402618 -139.521027
v 210.266220 420.402618 -98.656258
v 251.130981 420.402618 0.000008
v 210.266220 420.402618 98.656281
v 111.609962 420.402618 139.521027
v 12.953687 420.402618 98.656242
v -27.911070 420.402618 -0.000000
v 12.953687 420.402618 -98.656242
v -112.565254 286.511902 112.565201
v -159.191299 286.511902 0.000000
v -112.565254 286.511902 -112.565201
v 12.953687 420.402618 98.656242
v -27.911070 420.402618 -0.000000
v 12.953687 420.402618 -98.656242
v -112.565254 286.511902 112.565201
v -159.191299 286.511902 0.000000
v -112.565254 286.511902 -112.565201
v 12.953687 420.402618 98.656242
v -27.911070 420.402618 -0.000000
v 12.953687 420.402618 -98.656242
v -159.191299 286.511902 0.000000
v -27.911070 420.402618 -0.000000
v -112.565254 286.511902 112.565201
v -159.191299 286.511902 0.000000
v -112.565254 286.511902 -112.565201
v 12.953687 420.402618 98.656242
v -27.911070 420.402618 -0.000000
v 12.953687 420.402618 -98.656242
v -222.939926 462.614502 45.647430
v -241.847717 462.614502 0.000000
v -222.939926 462.614502 -45.647430
v -172.039505 516.909851 40.007072
v -188.610977 516.909851 -0.000000
v -172.039505 516.909851 -40.007072
v -88.075508 434.343628 -0.000000
v -65.134628 434.343628 -55.384178
v -65.134636 434.343628 55.384178
v -135.599136 359.179321 -63.192467
v -135.599136 359.179321 63.192467
v -161.774323 359.179321 0.000000
v -240.151291 463.249512 0.925914
v -186.914551 517.544861 0.925913
v -232.730698 555.176086 46.051109
v -245.739120 567.399841 -0.020066
v -225.278122 562.078918 -44.676849
v -162.339279 579.909668 48.039406
v -173.740311 590.622986 7.660945
v -155.807556 585.959534 -31.477884
vn 0.1714 0.0019 -0.9852
vn 0.6302 -0.3901 -0.6713
vn 0.0159 0.1323 -0.9911
vn 0.6947 -0.4485 -0.5623
vn 0.8243 -0.5661 0.0000
vn 0.6947 -0.4485 0.5623
vn 0.6302 -0.3901 0.6713
vn 0.1714 0.0019 0.9852
vn 0.0159 0.1323 0.9911
vn -0.5077 0.5452 0.6671
vn -0.3052 0.4327 0.8483
vn -0.7140 0.7001 0.0000
vn -0.1231 0.7555 0.6434
vn -0.5077 0.5452 -0.6671
vn -0.5662 0.8027 -0.1871
vn -0.0728 0.1815 -0.9807
vn 0.6965 0.1722 -0.6965
vn 0.0000 0.1722 -0.9850
vn 0.6508 -0.1280 -0.7483
vn 0.9850 0.1722 0.0000
vn 0.9628 -0.2701 0.0000
vn 0.6965 0.1722 0.6965
vn -0.0728 0.1815 0.9807
vn 0.0000 0.1722 0.9850
vn -0.6965 0.1722 0.6965
vn -0.4479 0.1382 0.8833
vn -0.9850 0.1722 0.0000
vn -0.9256 0.2856 -0.2481
vn -0.6965 0.1722 -0.6965
vn -0.7804 0.0264 0.6247
vn 0.6871 0.2360 -0.6871
vn 0.0000 0.2360 -0.9717
vn 0.9717 0.2360 0.0000
vn 0.6871 0.2360 0.6871
vn 0.0000 0.2360 0.9717
vn -0.6871 0.2360 0.6871
vn -0.9717 0.2360 0.0000
vn -0.6871 0.2360 -0.6871
vn 0.6508 -0.1280 0.7483
vn 0.4852 0.8744 0.0000
vn 0.6634 0.3026 0.6843
vn 0.0876 0.8536 0.5135
vn 0.6364 0.3175 -0.7030
vn 0.6734 0.6241 0.3963
vn 0.0000 0.0000 1.0000
vn 0.4777 0.8736 0.0930
vn 0.6417 0.5066 0.5759
vn 0.7395 0.5687 -0.3600
vn 0.0876 0.8536 -0.5135
vn -0.6076 -0.1933 -0.7703
vn -0.5923 -0.2174 0.7758
vn -0.6559 0.0554 0.7528
vn -0.9303 -0.3668 0.0000
vn -0.6559 0.0554 -0.7528
vn -0.9661 -0.2508 0.0605
vn -0.5499 0.5392 0.6378
vn -0.5673 0.3475 0.7466
vn -0.8279 0.5598 -0.0338
vn -0.4649 0.4386 -0.7690
s 1
f 2//1 34//2 33//3
f 4//4 35//5 34//2
f 35//5 8//6 36//7
f 36//7 10//8 37//9
f 37//9 12//10 38//11
f 38//11 14//12 39//13
f 16//14 33//3 40//15
f 14//12 40//15 39//13
f 17//16 25//17 32//18
f 18//19 26//20 25//17
f 19//21 27//22 26//20
f 27//22 21//23 28//24
f 21//23 29//25 28//24
f 22//26 30//27 29//25
f 24//28 32//18 31//29
f 23//30 31//29 30//27
f 32//18 3//31 1//32
f 25//17 5//33 3//31
f 26//20 7//34 5//33
f 27//22 9//35 7//34
f 28//24 11//36 9//35
f 11//36 30//27 13//37
f 15//38 32//18 1//32
f 30//27 15//38 13//37
f 33//3 18//19 17//16
f 34//2 19//21 18//19
f 19//21 36//7 20//39
f 20//39 37//9 21//23
f 21//23 38//11 22//26
f 67//40 64//41 69//42
f 40//15 17//16 24//28
f 67//40 66//43 65//44
f 40//15 45//45 46//45
f 39//13 44//45 45//45
f 40//15 43//45 46//45
f 22//26 44//45 41//45
f 24//28 42//45 43//45
f 23//30 41//45 42//45
f 46//45 51//45 52//45
f 45//45 50//45 51//45
f 46//45 49//45 52//45
f 41//45 50//45 47//45
f 43//45 48//45 49//45
f 42//45 47//45 48//45
f 52//45 59//45 60//45
f 51//45 58//45 59//45
f 52//45 57//45 60//45
f 47//45 58//45 55//45
f 49//45 56//45 57//45
f 48//45 55//45 56//45
f 23//30 54//45 53//45
f 64//41 79//46 78//47
f 65//44 80//48 79//46
f 68//49 63//50 66//43
f 69//42 61//51 71//52
f 72//53 63//50 70//54
f 72//53 61//51 62//55
f 39//13 69//42 38//11
f 39//13 68//49 67//40
f 40//15 70//54 68//49
f 38//11 71//52 22//26
f 23//30 70//54 24//28
f 23//30 71//52 72//53
f 65//44 73//56 74//56
f 75//57 79//46 76//58
f 79//46 77//59 76//58
f 66//43 77//59 80//48
f 64//41 75//57 61//51
f 62//55 77//59 63//50
f 62//55 75//57 76//58
f 2//1 4//4 34//2
f 4//4 6//5 35//5
f 35//5 6//5 8//6
f 36//7 8//6 10//8
f 37//9 10//8 12//10
f 38//11 12//10 14//12
f 16//14 2//1 33//3
f 14//12 16//14 40//15
f 17//16 18//19 25//17
f 18//19 19//21 26//20
f 19//21 20//39 27//22
f 27//22 20//39 21//23
f 21//23 22//26 29//25
f 22//26 23//30 30//27
f 24//28 17//16 32//18
f 23//30 24//28 31//29
f 32//18 25//17 3//31
f 25//17 26//20 5//33
f 26//20 27//22 7//34
f 27//22 28//24 9//35
f 28//24 29//25 11//36
f 11//36 29//25 30//27
f 15//38 31//29 32//18
f 30//27 31//29 15//38
f 33//3 34//2 18//19
f 34//2 35//5 19//21
f 19//21 35//5 36//7
f 20//39 36//7 37//9
f 21//23 37//9 38//11
f 67//40 65//44 64//41
f 40//15 33//3 17//16
f 67//40 68//49 66//43
f 40//15 39//13 45//45
f 39//13 38//11 44//45
f 40//15 24//28 43//45
f 22//26 38//11 44//45
f 24//28 23//30 42//45
f 23//30 22//26 41//45
f 46//45 45//45 51//45
f 45//45 44//45 50//45
f 46//45 43//45 49//45
f 41//45 44//45 50//45
f 43//45 42//45 48//45
f 42//45 41//45 47//45
f 52//45 51//45 59//45
f 51//45 50//45 58//45
f 52//45 49//45 57//45
f 47//45 50//45 58//45
f 49//45 48//45 56//45
f 48//45 47//45 55//45
f 23//30 39//13 54//45
f 64//41 65//44 79//46
f 65//44 66//43 80//48
f 68//49 70//54 63//50
f 69//42 64//41 61//51
f 72//53 62//55 63//50
f 72//53 71//52 61//51
f 39//13 67//40 69//42
f 39//13 40//15 68//49
f 40//15 24//28 70//54
f 38//11 69//42 71//52
f 23//30 72//53 70//54
f 23//30 22//26 71//52
f 65//44 62//55 73//56
f 75//57 78//47 79//46
f 79//46 80//48 77//59
f 66//43 63//50 77//59
f 64//41 78//47 75//57
f 62//55 76//58 77//59
f 62//55 61//51 75//57
