# Blender v2.78 (sub 0) OBJ File: 'glass cup.blend'
# www.blender.org
o Circle.006_Circle.003
v 0.000001 60.826042 -704.139343
v -269.462463 60.826042 -650.539917
v -497.901733 60.826042 -497.901733
v -650.539917 60.826042 -269.462463
v -704.139343 60.826042 0.000030
v -650.539917 60.826042 269.462524
v -497.901733 60.826042 497.901733
v -269.462494 60.826042 650.539917
v -0.000105 60.826042 704.139343
v 269.462311 60.826042 650.540039
v 497.901611 60.826042 497.901886
v 650.539978 60.826042 269.462585
v 704.139282 60.826042 -0.000009
v 650.539917 60.826042 -269.462616
v 497.901550 60.826042 -497.901886
v 269.462158 60.826042 -650.540161
v -0.000001 2179.450928 -705.747070
v -270.077728 2179.450928 -652.025269
v -499.038544 2179.450928 -499.038544
v -652.025269 2179.450928 -270.077728
v -705.747070 2179.450928 0.000031
v -652.025269 2179.450928 270.077789
v -499.038544 2179.450928 499.038544
v -270.077759 2179.450928 652.025269
v -0.000108 2179.450928 705.747070
v 270.077576 2179.450928 652.025330
v 499.038391 2179.450928 499.038696
v 652.025269 2179.450928 270.077820
v 705.747131 2179.450928 -0.000008
v 652.025269 2179.450928 -270.077850
v 499.038361 2179.450928 -499.038696
v 270.077393 2179.450928 -652.025391
v -0.000026 335.880890 -31.386520
v -12.011135 335.880890 -28.997391
v -22.193666 335.880890 -22.193624
v -28.997391 335.880890 -12.011112
v -31.386560 335.880890 -0.000006
v -28.997391 335.880890 12.011091
v -22.193666 335.880890 22.193623
v -12.011135 335.880890 28.997347
v -0.000031 335.880890 31.386515
v 12.011068 335.880890 28.997347
v 22.193581 335.880890 22.193623
v 28.997347 335.880890 12.011091
v 31.386475 335.880890 -0.000008
v 28.997347 335.880890 -12.011112
v 22.193581 335.880890 -22.193624
v 12.011068 335.880890 -28.997391
v -184.754364 318.675201 76.527763
v -340.511322 261.768951 141.044434
v -496.268311 105.292580 205.561127
v -537.156921 105.292671 0.000022
v -368.566803 261.769012 0.000012
v -199.976669 318.675201 0.000003
v 184.754318 318.675201 -76.527794
v 340.511292 261.768951 -141.044479
v 496.268280 105.292580 -205.561142
v 537.156921 105.292496 -0.000008
v 368.566803 261.768951 -0.000008
v 199.976624 318.675201 -0.000008
v -141.404877 318.675201 141.404846
v -260.616119 261.768951 260.616089
v -379.827332 105.292671 379.827301
v 141.404770 318.675201 -141.404892
v 260.615997 261.768951 -260.616180
v 379.827148 105.292580 -379.827454
v -76.527794 318.675201 184.754318
v -141.044449 261.768951 340.511292
v -205.561111 105.292496 496.268311
v 76.527649 318.675201 -184.754410
v 141.044250 261.768951 -340.511414
v 205.560822 105.292580 -496.268433
v -0.000050 318.675201 199.976669
v -0.000069 261.768951 368.566833
v -0.000088 105.292671 537.156921
v -76.527786 318.675201 -184.754364
v -141.044434 261.768951 -340.511322
v -205.561081 105.292671 -496.268311
v -0.000007 105.292580 -537.156921
v -0.000014 261.768951 -368.566803
v -0.000020 318.675201 -199.976639
v 76.527695 318.675201 184.754364
v 141.044327 261.768951 340.511353
v 205.560959 105.292496 496.268402
v -141.404877 318.675201 -141.404846
v -260.616119 261.768951 -260.616089
v -379.827332 105.292671 -379.827301
v 141.404785 318.675201 141.404892
v 260.615997 261.768951 260.616180
v 379.827209 105.292496 379.827454
v -184.754364 318.675201 -76.527763
v -340.511322 261.768951 -141.044418
v -496.268311 105.292671 -205.561081
v 184.754318 318.675201 76.527771
v 340.511292 261.768951 141.044464
v 496.268311 105.292320 205.561127
v -499.038544 243.291534 499.038544
v -270.077759 243.291534 652.025269
v 499.038361 243.291534 -499.038696
v 270.077393 243.291534 -652.025391
v -0.000108 243.291534 705.747070
v -0.000001 243.291534 -705.747070
v -270.077728 243.291534 -652.025269
v 270.077576 243.291534 652.025330
v -499.038544 243.291534 -499.038544
v 499.038391 243.291534 499.038696
v -652.025269 243.291534 -270.077728
v 652.025269 243.291534 270.077820
v -705.747070 243.291534 0.000031
v 705.747131 243.291534 -0.000008
v -652.025269 243.291534 270.077789
v 652.025269 243.291534 -270.077850
v -446.501587 3078.250977 184.947052
v -341.737549 3078.250977 341.737549
v 446.501587 3078.250977 -184.947098
v 341.737427 3078.250977 -341.737671
v -184.947052 3078.250977 446.501587
v 184.946823 3078.250977 -446.501709
v -0.000082 3078.250977 483.289886
v -0.000009 3078.250977 -483.289886
v -184.947052 3078.250977 -446.501587
v 184.946899 3078.250977 446.501678
v -341.737549 3078.250977 -341.737549
v 341.737457 3078.250977 341.737671
v -446.501587 3078.250977 -184.947006
v 446.501587 3078.250977 184.947083
v -483.289886 3078.250977 0.000019
v 483.289886 3078.250977 -0.000008
v -218.828949 3527.651367 218.828918
v 218.828842 3527.651367 -218.828995
v -118.429398 3527.651367 285.913757
v 118.429207 3527.651367 -285.913818
v -0.000064 3527.651367 309.470825
v -118.429398 3527.651367 -285.913757
v 118.429283 3527.651367 285.913818
v -218.828949 3527.651367 -218.828918
v 218.828888 3527.651367 218.828995
v -285.913757 3527.651367 -118.429367
v 285.913727 3527.651367 118.429413
v -309.470825 3527.651367 0.000010
v 309.470825 3527.651367 -0.000007
v -285.913757 3527.651367 118.429390
v 285.913757 3527.651367 -118.429420
v -0.000018 3527.651367 -309.470825
v -270.077759 1773.906494 652.025269
v 270.077393 1773.906494 -652.025391
v -0.000108 1773.906494 705.747070
v -270.077728 1773.906494 -652.025269
v 270.077576 1773.906494 652.025330
v -499.038544 1773.906494 -499.038544
v 499.038391 1773.906494 499.038696
v -652.025269 1773.906494 -270.077728
v 652.025269 1773.906494 270.077820
v -705.747070 1773.906494 0.000031
v 705.747131 1773.906494 -0.000008
v -652.025269 1773.906494 270.077789
v 652.025269 1773.906494 -270.077850
v -499.038544 1773.906494 499.038544
v 499.038361 1773.906494 -499.038696
v -0.000001 1773.906494 -705.747070
v -585.492371 2628.851074 242.518967
v 585.492371 2628.851074 -242.519028
v -0.000002 2628.851074 -633.732422
v -448.116547 2628.851074 448.116547
v 448.116364 2628.851074 -448.116669
v -242.518936 2628.851074 585.492432
v 242.518646 2628.851074 -585.492554
v -0.000098 2628.851074 633.732422
v -242.518936 2628.851074 -585.492432
v 242.518768 2628.851074 585.492493
v -448.116547 2628.851074 -448.116547
v 448.116425 2628.851074 448.116669
v -585.492371 2628.851074 -242.518906
v 585.492432 2628.851074 242.518967
v -633.732422 2628.851074 0.000026
v 633.732422 2628.851074 -0.000009
v -499.038544 1499.671387 499.038544
v 499.038361 1499.671387 -499.038696
v -0.000001 1499.671387 -705.747070
v -270.077759 1499.671387 652.025269
v 270.077393 1499.671387 -652.025391
v -0.000108 1499.671387 705.747070
v -270.077728 1499.671387 -652.025269
v 270.077576 1499.671387 652.025330
v -499.038544 1499.671387 -499.038544
v 499.038391 1499.671387 499.038696
v -652.025269 1499.671387 -270.077728
v 652.025269 1499.671387 270.077820
v -705.747070 1499.671387 0.000031
v 705.747131 1499.671387 -0.000008
v -652.025269 1499.671387 270.077789
v 652.025269 1499.671387 -270.077850
v -499.038544 493.285431 499.038544
v 499.038361 493.285431 -499.038696
v -0.000001 493.285431 -705.747070
v -270.077759 493.285431 652.025269
v 270.077393 493.285431 -652.025391
v -0.000108 493.285431 705.747070
v -270.077728 493.285431 -652.025269
v 270.077576 493.285431 652.025330
v -499.038544 493.285431 -499.038544
v 499.038391 493.285431 499.038696
v -652.025269 493.285431 -270.077728
v 652.025269 493.285431 270.077820
v -705.747070 493.285431 0.000031
v 705.747131 493.285431 -0.000008
v -652.025269 493.285431 270.077789
v 652.025269 493.285431 -270.077850
v -270.077759 1976.678833 652.025269
v 270.077393 1976.678833 -652.025391
v -0.000108 1976.678833 705.747070
v -270.077728 1976.678833 -652.025269
v 270.077576 1976.678833 652.025330
v -499.038544 1976.678833 -499.038544
v 499.038391 1976.678833 499.038696
v -652.025269 1976.678833 -270.077728
v 652.025269 1976.678833 270.077820
v -705.747070 1976.678833 0.000031
v 705.747131 1976.678833 -0.000008
v -652.025269 1976.678833 270.077789
v 652.025269 1976.678833 -270.077850
v -499.038544 1976.678833 499.038544
v 499.038361 1976.678833 -499.038696
v -0.000001 1976.678833 -705.747070
v -0.000037 3527.652100 0.000000
vn 0.7071 0.0000 -0.7071
vn 0.9239 0.0000 -0.3827
vn -0.7071 0.0000 0.7071
vn -0.9239 0.0000 0.3827
vn 1.0000 0.0000 0.0000
vn -1.0000 0.0000 0.0000
vn 0.9239 0.0000 0.3827
vn -0.9239 0.0000 -0.3827
vn 0.7071 0.0000 0.7071
vn -0.7071 0.0000 -0.7071
vn 0.3827 0.0000 0.9239
vn 0.0000 0.0000 1.0000
vn -0.3827 0.0000 0.9239
vn -0.7049 0.0786 0.7049
vn 0.3827 0.0000 -0.9239
vn 0.7049 0.0786 -0.7049
vn -0.3815 0.0786 0.9210
vn -0.3827 0.0000 -0.9239
vn 0.0000 0.0786 -0.9969
vn 0.0000 0.0000 -1.0000
vn 0.3815 0.0786 -0.9210
vn 0.0000 0.0786 0.9969
vn -0.3815 0.0786 -0.9210
vn 0.3815 0.0786 0.9210
vn -0.7049 0.0786 -0.7049
vn 0.7049 0.0786 0.7049
vn -0.9210 0.0786 -0.3815
vn 0.9210 0.0786 0.3815
vn -0.9969 0.0786 0.0000
vn 0.9969 0.0786 0.0000
vn -0.9210 0.0786 0.3815
vn 0.9210 0.0786 -0.3815
vn 0.2252 -0.9743 0.0000
vn 0.0528 -0.9984 -0.0219
vn 0.2081 -0.9743 -0.0862
vn -0.2252 -0.9743 0.0000
vn -0.0528 -0.9984 0.0219
vn -0.2081 -0.9743 0.0862
vn 0.0404 -0.9984 -0.0404
vn 0.1592 -0.9743 -0.1592
vn -0.1592 -0.9743 0.1592
vn -0.0404 -0.9984 0.0404
vn 0.0862 -0.9743 -0.2081
vn 0.0219 -0.9984 -0.0528
vn -0.0219 -0.9984 0.0528
vn -0.0862 -0.9743 0.2081
vn 0.0000 -0.9984 -0.0572
vn 0.0000 -0.9743 -0.2252
vn 0.0000 -0.9743 0.2252
vn 0.0219 -0.9984 0.0528
vn 0.0862 -0.9743 0.2081
vn 0.0000 -0.9984 0.0572
vn -0.0219 -0.9984 -0.0528
vn -0.0862 -0.9743 -0.2081
vn 0.1592 -0.9743 0.1592
vn 0.0404 -0.9984 0.0404
vn -0.0404 -0.9984 -0.0404
vn -0.1592 -0.9743 -0.1592
vn 0.2081 -0.9743 0.0862
vn 0.0528 -0.9984 0.0219
vn -0.0528 -0.9984 -0.0219
vn -0.2081 -0.9743 -0.0862
vn 0.0572 -0.9984 0.0000
vn -0.0572 -0.9984 0.0000
vn 0.6614 -0.7500 0.0000
vn -0.4244 -0.8882 -0.1758
vn -0.4593 -0.8882 0.0000
vn -0.5302 -0.8478 0.0000
vn -0.6110 -0.7500 -0.2531
vn 0.4593 -0.8882 0.0000
vn -0.6614 -0.7500 0.0000
vn 0.4899 -0.8478 0.2029
vn 0.5302 -0.8478 0.0000
vn 0.4677 -0.7500 0.4677
vn 0.6110 -0.7500 0.2531
vn -0.3248 -0.8882 -0.3248
vn -0.4899 -0.8478 -0.2029
vn -0.3749 -0.8478 -0.3749
vn -0.4677 -0.7500 -0.4677
vn 0.4244 -0.8882 0.1758
vn 0.3248 -0.8882 0.3248
vn 0.3749 -0.8478 0.3749
vn 0.2531 -0.7500 0.6110
vn -0.2029 -0.8478 -0.4899
vn 0.1758 -0.8882 0.4244
vn 0.2029 -0.8478 0.4899
vn 0.0000 -0.7500 0.6614
vn -0.1758 -0.8882 -0.4244
vn 0.0000 -0.8882 -0.4593
vn 0.0000 -0.8478 -0.5302
vn 0.0000 -0.7500 -0.6614
vn -0.1758 -0.8882 0.4244
vn 0.0000 -0.8882 0.4593
vn 0.0000 -0.8478 0.5302
vn -0.2531 -0.7500 -0.6110
vn 0.1758 -0.8882 -0.4244
vn 0.2029 -0.8478 -0.4899
vn 0.4677 -0.7500 -0.4677
vn 0.2531 -0.7500 -0.6110
vn -0.3749 -0.8478 0.3749
vn -0.2029 -0.8478 0.4899
vn -0.4677 -0.7500 0.4677
vn -0.2531 -0.7500 0.6110
vn 0.3248 -0.8882 -0.3248
vn 0.6110 -0.7500 -0.2531
vn -0.3248 -0.8882 0.3248
vn -0.4244 -0.8882 0.1758
vn -0.6110 -0.7500 0.2531
vn 0.4244 -0.8882 -0.1758
vn 0.3749 -0.8478 -0.3749
vn 0.4899 -0.8478 -0.2029
vn -0.4899 -0.8478 0.2029
vn 0.9239 -0.0044 -0.3827
vn -0.7071 -0.0044 0.7071
vn -0.9239 -0.0044 0.3827
vn 1.0000 -0.0044 0.0000
vn -1.0000 -0.0044 0.0000
vn 0.9239 -0.0044 0.3827
vn -0.9239 -0.0044 -0.3827
vn 0.7071 -0.0044 0.7071
vn -0.7071 -0.0044 -0.7071
vn 0.3827 -0.0044 0.9239
vn -0.3827 -0.0044 -0.9239
vn 0.0000 -0.0044 1.0000
vn 0.0000 -0.0044 -1.0000
vn 0.3827 -0.0044 -0.9239
vn -0.3827 -0.0044 0.9239
vn 0.7071 -0.0044 -0.7071
vn 0.8977 0.2363 -0.3718
vn 0.9410 0.3383 0.0000
vn 0.9716 0.2363 0.0000
vn -0.9716 0.2363 0.0000
vn -0.8694 0.3383 0.3601
vn -0.9410 0.3383 0.0000
vn 0.8694 0.3383 0.3601
vn 0.8977 0.2363 0.3718
vn -0.8977 0.2363 -0.3718
vn -0.8694 0.3383 -0.3601
vn 0.6654 0.3383 0.6654
vn 0.6871 0.2363 0.6871
vn -0.6654 0.3383 -0.6654
vn -0.6871 0.2363 -0.6871
vn 0.3601 0.3383 0.8694
vn 0.3718 0.2363 0.8977
vn -0.3601 0.3383 -0.8694
vn -0.3718 0.2363 -0.8977
vn 0.0000 0.3383 0.9410
vn 0.0000 0.2363 0.9716
vn 0.0000 0.2363 -0.9716
vn 0.3601 0.3383 -0.8694
vn 0.3718 0.2363 -0.8977
vn 0.0000 0.3383 -0.9410
vn -0.3601 0.3383 0.8694
vn -0.3718 0.2363 0.8977
vn 0.6654 0.3383 -0.6654
vn 0.6871 0.2363 -0.6871
vn -0.6654 0.3383 0.6654
vn -0.6871 0.2363 0.6871
vn 0.8694 0.3383 -0.3601
vn -0.8977 0.2363 0.3718
vn 0.6097 0.7926 0.0000
vn -0.5633 0.7926 0.2333
vn -0.6097 0.7926 0.0000
vn 0.5633 0.7926 0.2333
vn -0.5633 0.7926 -0.2333
vn 0.4311 0.7926 0.4311
vn -0.4311 0.7926 -0.4311
vn 0.2333 0.7926 0.5633
vn -0.2333 0.7926 -0.5633
vn 0.0000 0.7926 0.6097
vn 0.0000 0.7926 -0.6097
vn 0.2333 0.7926 -0.5633
vn -0.2333 0.7926 0.5633
vn 0.4311 0.7926 -0.4311
vn -0.4311 0.7926 0.4311
vn 0.5633 0.7926 -0.2333
vn 0.0000 1.0000 0.0000
s 1
f 178//1 157//2 192//2
f 177//3 156//4 191//4
f 192//2 155//5 190//5
f 191//4 154//6 189//6
f 190//5 153//7 188//7
f 189//6 152//8 187//8
f 188//7 151//9 186//9
f 187//8 150//10 185//10
f 186//9 149//11 184//11
f 184//11 147//12 182//12
f 182//12 145//13 180//13
f 180//13 158//3 177//3
f 196//13 177//3 193//3
f 198//12 180//13 196//13
f 200//11 182//12 198//12
f 202//9 184//11 200//11
f 203//8 185//10 201//10
f 204//7 186//9 202//9
f 205//6 187//8 203//8
f 206//5 188//7 204//7
f 207//4 189//6 205//6
f 208//2 190//5 206//5
f 193//3 191//4 207//4
f 194//1 192//2 208//2
f 178//1 159//1 157//2
f 177//3 158//3 156//4
f 192//2 157//2 155//5
f 191//4 156//4 154//6
f 190//5 155//5 153//7
f 189//6 154//6 152//8
f 188//7 153//7 151//9
f 187//8 152//8 150//10
f 186//9 151//9 149//11
f 184//11 149//11 147//12
f 182//12 147//12 145//13
f 180//13 145//13 158//3
f 196//13 180//13 177//3
f 198//12 182//12 180//13
f 200//11 184//11 182//12
f 202//9 186//9 184//11
f 203//8 187//8 185//10
f 204//7 188//7 186//9
f 205//6 189//6 187//8
f 206//5 190//5 188//7
f 207//4 191//4 189//6
f 208//2 192//2 190//5
f 193//3 177//3 191//4
f 194//1 178//1 192//2
f 209//13 23//14 222//3
f 210//15 31//16 223//1
f 211//12 24//17 209//13
f 212//18 17//19 224//20
f 224//20 32//21 210//15
f 213//11 25//22 211//12
f 214//10 18//23 212//18
f 215//9 26//24 213//11
f 216//8 19//25 214//10
f 217//7 27//26 215//9
f 218//6 20//27 216//8
f 219//5 28//28 217//7
f 220//4 21//29 218//6
f 221//2 29//30 219//5
f 222//3 22//31 220//4
f 223//1 30//32 221//2
f 54//33 38//34 49//35
f 60//36 46//37 55//38
f 49//35 39//39 61//40
f 64//41 46//37 47//42
f 67//43 39//39 40//44
f 64//41 48//45 70//46
f 67//43 41//47 73//48
f 81//49 34//50 76//51
f 81//49 48//45 33//52
f 73//48 42//53 82//54
f 85//55 34//50 35//56
f 82//54 43//57 88//58
f 91//59 35//56 36//60
f 88//58 44//61 94//62
f 91//59 37//63 54//33
f 60//36 44//61 45//64
f 43//57 39//39 35//56
f 13//65 96//66 58//67
f 96//66 59//68 58//67
f 59//68 94//62 60//36
f 4//69 52//70 5//71
f 52//70 92//72 53//73
f 92//72 54//33 53//73
f 11//74 96//66 12//75
f 90//76 95//77 96//66
f 89//78 94//62 95//77
f 3//79 93//80 4//69
f 87//81 92//72 93//80
f 86//82 91//59 92//72
f 10//83 90//76 11//74
f 90//76 83//84 89//78
f 83//84 88//58 89//78
f 3//79 78//85 87//81
f 87//81 77//86 86//82
f 77//86 85//55 86//82
f 9//87 84//88 10//83
f 75//89 83//84 84//88
f 74//90 82//54 83//84
f 1//91 72//92 79//93
f 72//92 80//94 79//93
f 80//94 70//46 81//49
f 2//95 79//93 78//85
f 79//93 77//86 78//85
f 80//94 76//51 77//86
f 9//87 69//96 75//89
f 69//96 74//90 75//89
f 68//97 73//48 74//90
f 15//98 72//92 16//99
f 72//92 65//100 71//101
f 65//100 70//46 71//101
f 7//102 69//96 8//103
f 63//104 68//97 69//96
f 68//97 61//40 67//43
f 14//105 66//106 15//98
f 57//107 65//100 66//106
f 65//100 55//38 64//41
f 6//108 63//104 7//102
f 51//109 62//110 63//104
f 50//111 61//40 62//110
f 13//65 57//107 14//105
f 58//67 56//112 57//107
f 59//68 55//38 56//112
f 5//71 51//109 6//108
f 52//70 50//111 51//109
f 53//73 49//35 50//111
f 15//98 112//113 14//105
f 6//108 97//114 111//115
f 14//105 110//116 13//65
f 6//108 109//117 5//71
f 13//65 108//118 12//75
f 5//71 107//119 4//69
f 11//74 108//118 106//120
f 4//69 105//121 3//79
f 11//74 104//122 10//83
f 3//79 103//123 2//95
f 10//83 101//124 9//87
f 16//99 102//125 100//126
f 2//95 102//125 1//91
f 8//103 101//124 98//127
f 16//99 99//128 15//98
f 162//129 128//130 176//131
f 175//132 113//133 127//134
f 176//131 126//135 174//136
f 173//137 127//134 125//138
f 174//136 124//139 172//140
f 173//137 123//141 171//142
f 172//140 122//143 170//144
f 171//142 121//145 169//146
f 170//144 119//147 168//148
f 163//149 118//150 167//151
f 169//146 120//152 163//149
f 168//148 117//153 166//154
f 167//151 116//155 165//156
f 166//154 114//157 164//158
f 165//156 115//159 162//129
f 164//158 113//133 161//160
f 115//159 141//161 128//130
f 127//134 142//162 140//163
f 126//135 141//161 139//164
f 127//134 138//165 125//138
f 126//135 137//166 124//139
f 125//138 136//167 123//141
f 124//139 135//168 122//143
f 123//141 134//169 121//145
f 122//143 133//170 119//147
f 118//150 144//171 132//172
f 121//145 144//171 120//152
f 119//147 131//173 117//153
f 118//150 130//174 116//155
f 117//153 129//175 114//157
f 115//159 130//174 143//176
f 114//157 142//162 113//133
f 185//10 148//18 183//18
f 179//20 146//15 181//15
f 183//18 160//20 179//20
f 181//15 159//1 178//1
f 23//14 161//160 22//31
f 31//16 162//129 30//32
f 24//17 164//158 23//14
f 32//21 165//156 31//16
f 25//22 166//154 24//17
f 18//23 163//149 17//19
f 17//19 167//151 32//21
f 26//24 168//148 25//22
f 19//25 169//146 18//23
f 27//26 170//144 26//24
f 20//27 171//142 19//25
f 28//28 172//140 27//26
f 21//29 173//137 20//27
f 29//30 174//136 28//28
f 22//31 175//132 21//29
f 30//32 176//131 29//30
f 197//15 178//1 194//1
f 199//18 179//20 195//20
f 195//20 181//15 197//15
f 201//10 183//18 199//18
f 99//128 208//2 112//113
f 97//114 207//4 111//115
f 112//113 206//5 110//116
f 111//115 205//6 109//117
f 110//116 204//7 108//118
f 109//117 203//8 107//119
f 108//118 202//9 106//120
f 107//119 201//10 105//121
f 106//120 200//11 104//122
f 105//121 199//18 103//123
f 104//122 198//12 101//124
f 102//125 197//15 100//126
f 103//123 195//20 102//125
f 101//124 196//13 98//127
f 99//128 197//15 194//1
f 98//127 193//3 97//114
f 159//1 221//2 157//2
f 158//3 220//4 156//4
f 157//2 219//5 155//5
f 156//4 218//6 154//6
f 155//5 217//7 153//7
f 154//6 216//8 152//8
f 153//7 215//9 151//9
f 152//8 214//10 150//10
f 151//9 213//11 149//11
f 150//10 212//18 148//18
f 149//11 211//12 147//12
f 160//20 210//15 146//15
f 148//18 224//20 160//20
f 147//12 209//13 145//13
f 146//15 223//1 159//1
f 145//13 222//3 158//3
f 8//103 97//114 7//102
f 209//13 24//17 23//14
f 210//15 32//21 31//16
f 211//12 25//22 24//17
f 212//18 18//23 17//19
f 224//20 17//19 32//21
f 213//11 26//24 25//22
f 214//10 19//25 18//23
f 215//9 27//26 26//24
f 216//8 20//27 19//25
f 217//7 28//28 27//26
f 218//6 21//29 20//27
f 219//5 29//30 28//28
f 220//4 22//31 21//29
f 221//2 30//32 29//30
f 222//3 23//14 22//31
f 223//1 31//16 30//32
f 54//33 37//63 38//34
f 60//36 45//64 46//37
f 49//35 38//34 39//39
f 64//41 55//38 46//37
f 67//43 61//40 39//39
f 64//41 47//42 48//45
f 67//43 40//44 41//47
f 81//49 33//52 34//50
f 81//49 70//46 48//45
f 73//48 41//47 42//53
f 85//55 76//51 34//50
f 82//54 42//53 43//57
f 91//59 85//55 35//56
f 88//58 43//57 44//61
f 91//59 36//60 37//63
f 60//36 94//62 44//61
f 35//56 34//50 33//52
f 33//52 48//45 47//42
f 47//42 46//37 45//64
f 45//64 44//61 43//57
f 43//57 42//53 41//47
f 41//47 40//44 43//57
f 39//39 38//34 35//56
f 37//63 36//60 35//56
f 35//56 33//52 47//42
f 47//42 45//64 35//56
f 43//57 40//44 39//39
f 38//34 37//63 35//56
f 35//56 45//64 43//57
f 13//65 12//75 96//66
f 96//66 95//77 59//68
f 59//68 95//77 94//62
f 4//69 93//80 52//70
f 52//70 93//80 92//72
f 92//72 91//59 54//33
f 11//74 90//76 96//66
f 90//76 89//78 95//77
f 89//78 88//58 94//62
f 3//79 87//81 93//80
f 87//81 86//82 92//72
f 86//82 85//55 91//59
f 10//83 84//88 90//76
f 90//76 84//88 83//84
f 83//84 82//54 88//58
f 3//79 2//95 78//85
f 87//81 78//85 77//86
f 77//86 76//51 85//55
f 9//87 75//89 84//88
f 75//89 74//90 83//84
f 74//90 73//48 82//54
f 1//91 16//99 72//92
f 72//92 71//101 80//94
f 80//94 71//101 70//46
f 2//95 1//91 79//93
f 79//93 80//94 77//86
f 80//94 81//49 76//51
f 9//87 8//103 69//96
f 69//96 68//97 74//90
f 68//97 67//43 73//48
f 15//98 66//106 72//92
f 72//92 66//106 65//100
f 65//100 64//41 70//46
f 7//102 63//104 69//96
f 63//104 62//110 68//97
f 68//97 62//110 61//40
f 14//105 57//107 66//106
f 57//107 56//112 65//100
f 65//100 56//112 55//38
f 6//108 51//109 63//104
f 51//109 50//111 62//110
f 50//111 49//35 61//40
f 13//65 58//67 57//107
f 58//67 59//68 56//112
f 59//68 60//36 55//38
f 5//71 52//70 51//109
f 52//70 53//73 50//111
f 53//73 54//33 49//35
f 15//98 99//128 112//113
f 6//108 7//102 97//114
f 14//105 112//113 110//116
f 6//108 111//115 109//117
f 13//65 110//116 108//118
f 5//71 109//117 107//119
f 11//74 12//75 108//118
f 4//69 107//119 105//121
f 11//74 106//120 104//122
f 3//79 105//121 103//123
f 10//83 104//122 101//124
f 16//99 1//91 102//125
f 2//95 103//123 102//125
f 8//103 9//87 101//124
f 16//99 100//126 99//128
f 162//129 115//159 128//130
f 175//132 161//160 113//133
f 176//131 128//130 126//135
f 173//137 175//132 127//134
f 174//136 126//135 124//139
f 173//137 125//138 123//141
f 172//140 124//139 122//143
f 171//142 123//141 121//145
f 170//144 122//143 119//147
f 163//149 120//152 118//150
f 169//146 121//145 120//152
f 168//148 119//147 117//153
f 167//151 118//150 116//155
f 166//154 117//153 114//157
f 165//156 116//155 115//159
f 164//158 114//157 113//133
f 115//159 143//176 141//161
f 127//134 113//133 142//162
f 126//135 128//130 141//161
f 127//134 140//163 138//165
f 126//135 139//164 137//166
f 125//138 138//165 136//167
f 124//139 137//166 135//168
f 123//141 136//167 134//169
f 122//143 135//168 133//170
f 118//150 120//152 144//171
f 121//145 134//169 144//171
f 119//147 133//170 131//173
f 118//150 132//172 130//174
f 117//153 131//173 129//175
f 115//159 116//155 130//174
f 114//157 129//175 142//162
f 185//10 150//10 148//18
f 179//20 160//20 146//15
f 183//18 148//18 160//20
f 181//15 146//15 159//1
f 23//14 164//158 161//160
f 31//16 165//156 162//129
f 24//17 166//154 164//158
f 32//21 167//151 165//156
f 25//22 168//148 166//154
f 18//23 169//146 163//149
f 17//19 163//149 167//151
f 26//24 170//144 168//148
f 19//25 171//142 169//146
f 27//26 172//140 170//144
f 20//27 173//137 171//142
f 28//28 174//136 172//140
f 21//29 175//132 173//137
f 29//30 176//131 174//136
f 22//31 161//160 175//132
f 30//32 162//129 176//131
f 197//15 181//15 178//1
f 199//18 183//18 179//20
f 195//20 179//20 181//15
f 201//10 185//10 183//18
f 99//128 194//1 208//2
f 97//114 193//3 207//4
f 112//113 208//2 206//5
f 111//115 207//4 205//6
f 110//116 206//5 204//7
f 109//117 205//6 203//8
f 108//118 204//7 202//9
f 107//119 203//8 201//10
f 106//120 202//9 200//11
f 105//121 201//10 199//18
f 104//122 200//11 198//12
f 102//125 195//20 197//15
f 103//123 199//18 195//20
f 101//124 198//12 196//13
f 99//128 100//126 197//15
f 98//127 196//13 193//3
f 159//1 223//1 221//2
f 158//3 222//3 220//4
f 157//2 221//2 219//5
f 156//4 220//4 218//6
f 155//5 219//5 217//7
f 154//6 218//6 216//8
f 153//7 217//7 215//9
f 152//8 216//8 214//10
f 151//9 215//9 213//11
f 150//10 214//10 212//18
f 149//11 213//11 211//12
f 160//20 224//20 210//15
f 148//18 212//18 224//20
f 147//12 211//12 209//13
f 146//15 210//15 223//1
f 145//13 209//13 222//3
f 8//103 98//127 97//114
f 143//176 130//174 225//177
f 134//169 136//167 225//177
f 141//161 143//176 225//177
f 142//162 129//175 225//177
f 133//170 135//168 225//177
f 140//163 142//162 225//177
f 132//172 144//171 225//177
f 139//164 141//161 225//177
f 144//171 134//169 225//177
f 138//165 140//163 225//177
f 131//173 133//170 225//177
f 137//166 139//164 225//177
f 130//174 132//172 225//177
f 136//167 138//165 225//177
f 129//175 131//173 225//177
f 135//168 137//166 225//177
